<svg width="43" height="42" viewBox="0 0 43 42" fill="none" xmlns="http://www.w3.org/2000/svg">
<mask id="mask0_379_4651" style="mask-type:luminance" maskUnits="userSpaceOnUse" x="0" y="0" width="43" height="42">
<path d="M0.5 0H42.5V42H0.5V0Z" fill="white"/>
</mask>
<g mask="url(#mask0_379_4651)">
<path d="M40.5921 21.1771V15.2739C40.5921 13.2722 39.0392 11.6442 37.0773 11.4861L31.5952 1.91124C31.3479 1.47566 31.0162 1.09375 30.6196 0.787833C30.223 0.481916 29.7693 0.258129 29.2852 0.129553C28.8049 0.000472595 28.3038 -0.031996 27.8109 0.0340289C27.318 0.100054 26.8431 0.263259 26.4137 0.514184L7.62095 11.4563H4.31953C3.30759 11.458 2.33759 11.8608 1.62203 12.5764C0.906477 13.2919 0.503706 14.2619 0.501953 15.2739V38.1815C0.503414 39.1937 0.906056 40.164 1.62164 40.8798C2.33723 41.5956 3.30739 41.9985 4.31953 42.0002H36.7756C37.7877 41.9985 38.7579 41.5956 39.4735 40.8798C40.1891 40.164 40.5917 39.1937 40.5932 38.1815V32.2794C41.1494 32.0826 41.6312 31.7187 41.9727 31.2376C42.3142 30.7564 42.4986 30.1815 42.5008 29.5914V23.8629C42.4986 23.2727 42.3139 22.6977 41.9723 22.2165C41.6306 21.7353 41.1485 21.3715 40.5921 21.1749M34.8602 11.453H26.5397L32.7801 7.81997L34.8602 11.453ZM31.8317 6.16318L22.7465 11.453H18.9775L30.889 4.52076L31.8317 6.16318ZM27.3742 2.16213C27.586 2.03748 27.8205 1.95636 28.064 1.92352C28.3075 1.89069 28.5551 1.9068 28.7923 1.97092C29.2786 2.10134 29.6864 2.41634 29.9384 2.85734L29.9406 2.86066L15.1832 11.453H11.4142L27.3742 2.16213ZM38.6833 38.1804C38.6824 38.6864 38.481 39.1714 38.1232 39.5292C37.7655 39.887 37.2805 40.0884 36.7745 40.0892H4.31953C3.81337 40.0884 3.3282 39.8868 2.97039 39.5288C2.61258 39.1708 2.41133 38.6855 2.41074 38.1793V15.275C2.41133 14.7688 2.61258 14.2835 2.97039 13.9255C3.3282 13.5675 3.81337 13.366 4.31953 13.3651H36.7756C37.2817 13.366 37.7669 13.5675 38.1247 13.9255C38.4825 14.2835 38.6838 14.7688 38.6844 15.275V21.0002H32.9569C31.4383 21.0017 29.9824 21.6056 28.9086 22.6794C27.8348 23.7532 27.2309 25.2091 27.2294 26.7277C27.2309 28.2463 27.8348 29.7022 28.9086 30.776C29.9824 31.8498 31.4383 32.4537 32.9569 32.4552H38.6844L38.6833 38.1804ZM40.5921 29.5892C40.5921 29.8425 40.4914 30.0854 40.3124 30.2645C40.1333 30.4436 39.8904 30.5442 39.6371 30.5442H32.9558C31.9437 30.5424 30.9735 30.1395 30.2579 29.4237C29.5423 28.7079 29.1397 27.7376 29.1382 26.7255C29.14 25.7136 29.5427 24.7436 30.2583 24.028C30.9739 23.3124 31.9438 22.9097 32.9558 22.9079H39.6382C40.1643 22.9079 40.5921 23.3357 40.5921 23.8618V29.5892Z" fill="#D0A567"/>
<path d="M32.9557 24.8187C32.4497 24.8196 31.9647 25.021 31.6069 25.3787C31.2491 25.7365 31.0478 26.2215 31.0469 26.7275C31.0478 27.2335 31.2491 27.7185 31.6069 28.0762C31.9647 28.434 32.4497 28.6354 32.9557 28.6363C33.4618 28.6357 33.9471 28.4344 34.3051 28.0766C34.6631 27.7188 34.8647 27.2336 34.8656 26.7275C34.8647 26.2213 34.6631 25.7362 34.3051 25.3783C33.9471 25.0205 33.4618 24.8193 32.9557 24.8187Z" fill="#D0A567"/>
</g>
</svg>
