<svg width="43" height="40" viewBox="0 0 43 40" fill="none" xmlns="http://www.w3.org/2000/svg">
<path d="M41.4538 4.66832C40.9085 3.90245 40.1374 3.42954 39.3077 3.35224L9.72935 0.414207C8.89829 0.328246 8.07265 0.642325 7.42932 1.28916C7.11546 1.60154 6.85602 1.98723 6.66625 2.42356C6.47648 2.85989 6.36022 3.33805 6.3243 3.82993L5.72929 10.4713H3.35426C1.61424 10.4713 0.199219 12.1529 0.199219 14.2233V36.247C0.199219 38.3162 1.61424 40.0003 3.35426 40.0003H33.0347C34.7737 40.0003 36.1887 38.3162 36.1887 36.247V32.6753L37.2417 32.7789C37.3304 32.7878 37.4187 32.7923 37.5067 32.7923C39.1277 32.7923 40.5108 31.308 40.6478 29.3522L42.1878 7.40407C42.2231 6.91131 42.1763 6.41494 42.0502 5.9448C41.924 5.47465 41.7212 5.04046 41.4538 4.66832ZM3.35326 12.4222H33.0337C33.8687 12.4222 34.5477 13.2302 34.5477 14.2233V16.2304H1.84024V14.2233C1.84024 13.2302 2.51825 12.4222 3.35326 12.4222ZM1.84124 18.1813H34.5487V22.2307H1.84024L1.84124 18.1813ZM33.0347 38.0481H3.35326C2.51925 38.0481 1.84024 37.2401 1.84024 36.247V24.1817H34.5477V36.247C34.5477 37.2401 33.8697 38.0481 33.0347 38.0481ZM40.5538 7.24199L39.0137 29.1889C38.9437 30.1796 38.2097 30.9169 37.3787 30.834L36.1887 30.7158V14.2233C36.1887 12.1542 34.7737 10.4701 33.0337 10.4701H7.38032L7.95732 4.02612L7.95932 4.00419C8.02932 3.01469 8.76133 2.27622 9.59335 2.35908L39.1707 5.2959C39.5737 5.33733 39.9398 5.56155 40.2008 5.92957C40.4618 6.29515 40.5878 6.76187 40.5538 7.24199Z" fill="#D0A567"/>
<path d="M31.4142 26.8004H23.5192C23.4128 26.799 23.3073 26.8201 23.2085 26.8627C23.1097 26.9052 23.0197 26.9684 22.9435 27.0484C22.8674 27.1285 22.8066 27.2239 22.7647 27.3293C22.7228 27.4346 22.7005 27.5479 22.6992 27.6625V33.0819C22.6992 33.5583 23.0662 33.944 23.5192 33.944H31.4142C31.5206 33.9455 31.6262 33.9243 31.725 33.8817C31.8237 33.8392 31.9138 33.7761 31.9899 33.696C32.0661 33.616 32.1268 33.5205 32.1688 33.4152C32.2107 33.3098 32.2329 33.1966 32.2342 33.0819V27.6636C32.233 27.5489 32.2109 27.4355 32.169 27.33C32.1272 27.2245 32.0664 27.129 31.9903 27.0488C31.9141 26.9686 31.824 26.9054 31.7252 26.8628C31.6263 26.8202 31.5207 26.799 31.4142 26.8004ZM30.5942 32.2188H24.3402V28.5268H30.5942V32.2188Z" fill="#D0A567"/>
</svg>
