<svg width="43" height="33" viewBox="0 0 43 33" fill="none" xmlns="http://www.w3.org/2000/svg">
<rect x="1.5" y="1.40005" width="40" height="29.8" rx="5" stroke="#D0A567" stroke-width="2"/>
<g clip-path="url(#clip0_379_4674)">
<path d="M14.5439 10.0099C17.034 7.27983 21.208 6.27702 24.7021 7.54214L24.7188 7.548L24.7363 7.55386C25.5542 7.81677 26.3308 8.23076 27.0654 8.75113L27.0664 8.75211C27.4113 8.99555 27.7426 9.26965 28.0635 9.57144C27.6287 10.1324 26.5698 11.2236 24.0889 13.1857L23.3242 13.7912L23.3398 13.8117C23.3324 13.8169 23.3266 13.8222 23.3223 13.8253C23.3121 13.8327 23.3018 13.84 23.2939 13.8459C23.2633 13.8688 23.2164 13.9049 23.1602 13.9484C23.0441 14.0381 22.8671 14.1763 22.6514 14.3449C22.219 14.6827 21.6242 15.1496 21.0322 15.6144C20.4402 16.0793 19.8501 16.543 19.4268 16.8761C19.2151 17.0427 19.0446 17.1767 18.9365 17.2619C18.8829 17.3042 18.8437 17.3356 18.8223 17.3527C18.817 17.3569 18.8119 17.361 18.8076 17.3644L18.79 17.3781C18.788 17.3798 18.7839 17.3836 18.7812 17.3859C18.7769 17.3896 18.7648 17.4003 18.7568 17.4074C18.7371 17.4257 18.5937 17.5971 18.502 17.7707C18.5822 18.1391 18.7671 18.3993 18.9785 18.5832L18.7207 18.8332C20.5649 20.7456 22.5488 22.357 24.374 23.3234L24.376 23.3244C25.3663 23.8466 26.2176 24.1262 26.9033 24.2257C26.953 24.2329 27.0028 24.2369 27.0518 24.2423C23.3546 26.8788 18.1605 26.5293 14.8457 23.3087L14.5049 22.9601C11.1307 19.3138 11.189 13.6062 14.5361 10.0177L14.5439 10.0099ZM18.8262 17.3488C18.8276 17.3477 18.83 17.3464 18.832 17.3449C18.833 17.3442 18.8344 17.3431 18.8359 17.3419C18.8326 17.3446 18.829 17.3465 18.8262 17.3488Z" stroke="#CFA567" stroke-width="2"/>
</g>
<defs>
<clipPath id="clip0_379_4674">
<rect width="21" height="21" fill="white" transform="translate(11 6.00015)"/>
</clipPath>
</defs>
</svg>
