<svg width="43" height="42" viewBox="0 0 43 42" fill="none" xmlns="http://www.w3.org/2000/svg">
<mask id="mask0_379_4680" style="mask-type:luminance" maskUnits="userSpaceOnUse" x="0" y="0" width="43" height="42">
<path d="M0.5 0H42.5V42H0.5V0Z" fill="white"/>
</mask>
<g mask="url(#mask0_379_4680)">
<rect x="1.5" y="6.40005" width="40" height="29.8" rx="5" stroke="#D0A567" stroke-width="2"/>
<g clip-path="url(#clip0_379_4680)">
<path d="M22.979 27.8107H25.1727V15.2107H21.9819C18.773 15.2107 17.0869 16.8604 17.0869 19.2898C17.0869 21.2297 18.0116 22.3718 19.6613 23.5502L16.7969 27.8107H19.1718L22.3626 23.0426L21.2567 22.2993C19.9151 21.3928 19.2625 20.6858 19.2625 19.1629C19.2625 17.8213 20.2052 16.9148 22 16.9148H22.979V27.8107Z" fill="#D0A567"/>
</g>
<rect x="12" y="12.0002" width="19" height="19" rx="9.5" stroke="#D0A567" stroke-width="2"/>
</g>
<defs>
<clipPath id="clip0_379_4680">
<rect x="11" y="11.0002" width="21" height="21" rx="10.5" fill="white"/>
</clipPath>
</defs>
</svg>
