<svg width="384" height="194" viewBox="0 0 384 194" fill="none" xmlns="http://www.w3.org/2000/svg">
<path d="M69.3647 155V35.1355C69.3647 31.1844 64.2457 29.6256 62.0436 32.906L4.18173 119.101C2.39788 121.759 4.30226 125.331 7.50283 125.331H88" stroke="#D0A567" stroke-width="2"/>
<path d="M364.365 155V35.1355C364.365 31.1844 359.246 29.6256 357.044 32.906L299.182 119.101C297.398 121.759 299.302 125.331 302.503 125.331H383" stroke="#D0A567" stroke-width="2"/>
<path d="M138.392 170.2L115.765 147.572C112.654 144.461 112.654 139.37 115.765 136.258C118.876 133.147 123.967 133.147 127.079 136.258L149.706 158.886C152.817 161.997 152.817 167.088 149.706 170.2C146.595 173.311 141.504 173.311 138.392 170.2Z" stroke="#D0A567" stroke-width="2" stroke-miterlimit="10"/>
<path d="M125.525 182.646L103.251 160.372C101.059 158.18 101.059 154.644 103.251 152.452C105.443 150.26 108.979 150.26 111.171 152.452L133.445 174.726C135.637 176.918 135.637 180.454 133.445 182.646C131.323 184.909 127.788 184.909 125.525 182.646Z" stroke="#D0A567" stroke-width="2" stroke-miterlimit="10"/>
<path d="M109.474 187.242L98.7965 176.564C95.6145 173.382 95.6145 168.15 98.7965 164.968C98.7965 164.968 98.8672 165.038 98.9379 164.968L121.141 187.171C121.141 187.171 121.07 187.242 121.141 187.312C117.888 190.424 112.656 190.424 109.474 187.242Z" stroke="#D0A567" stroke-width="2" stroke-miterlimit="10"/>
<path d="M256.197 111.652L245.873 117.026L233.286 110.238L232.933 97.8636L214.336 85.0649V64.276L207.053 56.9928L212.922 42.78L232.791 37.1938C207.901 19.799 173.395 22.2032 151.191 44.4063C133.372 62.2254 128.281 87.9641 135.918 110.309L128.069 118.158C125.665 120.562 125.665 124.38 128.069 126.784L159.04 157.756C161.444 160.16 165.263 160.16 167.667 157.756L175.445 149.977C197.79 157.614 223.528 152.523 241.347 134.704C248.136 128.057 253.085 120.137 256.197 111.652Z" stroke="#D0A567" stroke-width="2" stroke-miterlimit="10"/>
<path d="M240.571 40.5878L228.338 52.8207L239.864 64.3466L261.926 57.9826L240.571 40.5878Z" stroke="#D0A567" stroke-width="2" stroke-miterlimit="10"/>
<path d="M239.087 79.2661L227.349 80.9631C227.349 80.9631 232.794 91.499 233.43 90.0141C234.208 88.5292 239.087 79.2661 239.087 79.2661Z" stroke="#D0A567" stroke-width="2" stroke-miterlimit="10"/>
<path d="M274.581 101.611L282.006 112.996L266.803 106.985L274.581 101.611Z" stroke="#D0A567" stroke-width="2" stroke-miterlimit="10"/>
<path d="M285.682 53.1735C285.682 53.1735 275.076 47.658 274.581 47.1631C274.086 46.6681 268.924 50.9814 268.924 50.9814L282.642 59.1839L285.682 53.1735Z" stroke="#D0A567" stroke-width="2" stroke-miterlimit="10"/>
<path d="M275.786 71.842L266.665 76.8624L259.028 67.3872L251.462 88.3883L272.887 94.2572L275.786 71.842Z" stroke="#D0A567" stroke-width="2" stroke-miterlimit="10"/>
<path d="M140.231 139.087C141.15 138.168 169.718 109.46 174.879 103.591C180.041 97.7216 184.496 89.8727 181.456 86.125C178.344 82.3066 174.95 85.5593 174.526 87.115C174.102 88.6706 174.667 97.4387 187.042 98.358C199.416 99.2772 207.972 87.7514 204.578 82.943C201.184 78.1347 184.284 80.1853 187.89 101.186C189.87 112.642 198.426 111.298 198.426 111.298C198.426 111.298 204.719 110.803 201.113 104.368C197.507 97.9337 183.648 109.106 175.94 116.813C168.233 124.521 146.383 145.239 146.383 145.239" stroke="#D0A567" stroke-width="2" stroke-miterlimit="10"/>
</svg>
