<svg width="48" height="48" viewBox="0 0 48 48" fill="none" xmlns="http://www.w3.org/2000/svg">
<path d="M45.75 1.5H2.25C2.05109 1.5 1.86032 1.57902 1.71967 1.71967C1.57902 1.86032 1.5 2.05109 1.5 2.25V5.25C1.5 5.44891 1.57902 5.63968 1.71967 5.78033C1.86032 5.92098 2.05109 6 2.25 6H9V18H6.75C6.58706 18 6.42856 18.0531 6.29847 18.1512C6.16838 18.2493 6.07378 18.3871 6.02897 18.5438L3.02897 29.0438C2.99704 29.1554 2.99146 29.2729 3.01268 29.387C3.03389 29.5012 3.08131 29.6088 3.15121 29.7015C3.22111 29.7942 3.31157 29.8694 3.41548 29.9212C3.51939 29.973 3.6339 30 3.75 30H6.07584C6.24879 30.8468 6.70894 31.6079 7.37844 32.1545C8.04795 32.7011 8.88571 32.9996 9.75 32.9996C10.6143 32.9996 11.4521 32.7011 12.1216 32.1545C12.7911 31.6079 13.2512 30.8468 13.4242 30H15.75C15.8661 30 15.9806 29.973 16.0845 29.9212C16.1884 29.8694 16.2789 29.7942 16.3488 29.7015C16.4187 29.6088 16.4661 29.5012 16.4873 29.387C16.5085 29.2729 16.503 29.1554 16.471 29.0438L13.471 18.5438C13.4262 18.3871 13.3316 18.2493 13.2015 18.1512C13.0714 18.0531 12.9129 18 12.75 18H10.5V6H23.25V31.5H21C20.8371 31.5 20.6786 31.5531 20.5485 31.6512C20.4184 31.7493 20.3238 31.8871 20.279 32.0438L17.279 42.5438C17.247 42.6554 17.2415 42.7729 17.2627 42.887C17.2839 43.0012 17.3313 43.1088 17.4012 43.2015C17.4711 43.2942 17.5616 43.3694 17.6655 43.4212C17.7694 43.473 17.8839 43.5 18 43.5H20.3258C20.4988 44.3468 20.9589 45.1079 21.6284 45.6545C22.2979 46.2011 23.1357 46.4996 24 46.4996C24.8643 46.4996 25.7021 46.2011 26.3716 45.6545C27.0411 45.1079 27.5012 44.3468 27.6742 43.5H30C30.1161 43.5 30.2306 43.473 30.3345 43.4212C30.4384 43.3694 30.5289 43.2942 30.5988 43.2015C30.6687 43.1088 30.7161 43.0012 30.7373 42.887C30.7585 42.7729 30.753 42.6554 30.721 42.5438L27.721 32.0438C27.6762 31.8871 27.5816 31.7493 27.4515 31.6512C27.3214 31.5531 27.1629 31.5 27 31.5H24.75V6H37.5V15H35.25C35.0871 15 34.9286 15.0531 34.7985 15.1512C34.6684 15.2493 34.5738 15.3871 34.529 15.5438L31.529 26.0438C31.497 26.1554 31.4915 26.2729 31.5127 26.387C31.5339 26.5012 31.5813 26.6088 31.6512 26.7015C31.7211 26.7942 31.8116 26.8694 31.9155 26.9212C32.0194 26.973 32.1339 27 32.25 27H34.5758C34.7488 27.8468 35.2089 28.6079 35.8784 29.1545C36.548 29.7011 37.3857 29.9996 38.25 29.9996C39.1143 29.9996 39.952 29.7011 40.6216 29.1545C41.2911 28.6079 41.7512 27.8468 41.9242 27H44.25C44.3661 27 44.4806 26.973 44.5845 26.9212C44.6884 26.8694 44.7789 26.7942 44.8488 26.7015C44.9187 26.6088 44.9661 26.5012 44.9873 26.387C45.0085 26.2729 45.003 26.1554 44.971 26.0438L41.971 15.5438C41.9262 15.3871 41.8316 15.2493 41.7015 15.1512C41.5714 15.0531 41.4129 15 41.25 15H39V6H45.75C45.9489 6 46.1397 5.92098 46.2803 5.78033C46.421 5.63968 46.5 5.44891 46.5 5.25V2.25C46.5 2.05109 46.421 1.86032 46.2803 1.71967C46.1397 1.57902 45.9489 1.5 45.75 1.5ZM9.75 31.5C9.28622 31.4986 8.83425 31.3536 8.45614 31.0851C8.07804 30.8165 7.79234 30.4374 7.63828 30H11.8618C11.7077 30.4375 11.422 30.8165 11.0439 31.0851C10.6658 31.3536 10.2138 31.4986 9.75 31.5ZM12.1842 19.5L14.7558 28.5H4.74422L7.31578 19.5H12.1842ZM24 45C23.5362 44.9986 23.0842 44.8536 22.7061 44.5851C22.328 44.3165 22.0423 43.9375 21.8883 43.5H26.1118C25.9577 43.9375 25.672 44.3165 25.2939 44.5851C24.9158 44.8536 24.4638 44.9986 24 45ZM26.4342 33L29.0058 42H18.9942L21.5658 33H26.4342ZM38.25 28.5C37.7862 28.4986 37.3342 28.3536 36.9561 28.0851C36.578 27.8165 36.2923 27.4374 36.1383 27H40.3618C40.2077 27.4375 39.922 27.8165 39.5439 28.0851C39.1658 28.3536 38.7138 28.4986 38.25 28.5ZM40.6842 16.5L43.2558 25.5H33.2442L35.8158 16.5H40.6842ZM45 4.5H3V3H45V4.5Z" fill="#D0A567"/>
</svg>
