<svg width="51" height="51" viewBox="0 0 51 51" fill="none" xmlns="http://www.w3.org/2000/svg">
<path d="M48.6595 7.80631L39.7841 4.10871C38.8105 3.7032 37.6938 3.7033 36.7204 4.10881L28.9601 7.33557C28.5792 7.49435 28.399 7.93163 28.5576 8.31254C28.7163 8.69344 29.1536 8.87374 29.5346 8.71496L37.2949 5.4881C37.903 5.23469 38.601 5.23459 39.2096 5.488L48.0845 9.1854C48.9478 9.54549 49.5057 10.3552 49.5057 11.248V43.1977C49.5057 44.4401 48.4386 45.4509 47.127 45.4509H45.9158C45.5031 45.4509 45.1687 45.7853 45.1687 46.1979C45.1687 46.6106 45.5031 46.945 45.9158 46.945H47.127C49.2624 46.945 50.9998 45.264 50.9998 43.1977V11.248C50.9998 9.75028 50.0812 8.39938 48.6595 7.80631Z" fill="#D0A567"/>
<path d="M46.541 45.4511H30.1069C30.6238 44.8636 30.9068 44.1182 30.9068 43.3294C30.9068 42.5422 30.6218 41.8207 30.1503 41.2613C30.4476 41.1096 30.7229 40.9111 30.966 40.6681C31.5728 40.0612 31.9069 39.2543 31.9069 38.3958C31.9069 37.5774 31.5989 36.8299 31.0934 36.2619C31.3437 36.1202 31.5768 35.9445 31.7856 35.7355C32.3924 35.1288 32.7266 34.3218 32.7266 33.4631C32.7266 32.6471 32.4205 31.9015 31.9178 31.3341C32.1723 31.1912 32.4094 31.0133 32.622 30.8012C33.2284 30.1934 33.5623 29.3867 33.5623 28.5294C33.5623 26.7569 32.1207 25.315 30.3488 25.315H26.9989V11.2481C26.9989 10.3552 27.5568 9.54551 28.4197 9.18562L29.7784 8.61984C30.1593 8.46126 30.3395 8.02397 30.1809 7.64297C30.0223 7.26206 29.585 7.08157 29.2041 7.24045L27.8448 7.80643C26.4233 8.3994 25.5048 9.7504 25.5048 11.2481V25.3151H22.3833C23.4227 22.0303 23.3343 18.6023 22.1213 14.6236C21.937 14.0211 21.5704 13.505 21.0609 13.1311C20.5544 12.7596 19.9542 12.5631 19.3249 12.5631C18.5143 12.5631 17.7606 12.8868 17.2023 13.4746C16.6444 14.0623 16.3603 14.8317 16.4024 15.6409C16.636 20.133 14.5639 21.6791 11.696 23.8192C10.7518 24.5238 9.71988 25.2943 8.70566 26.2393V25.2602C8.70566 24.8475 8.37127 24.5131 7.95859 24.5131H0.74707C0.334389 24.5131 0 24.8475 0 25.2602V46.4481C0 46.8608 0.334389 47.1951 0.74707 47.1951H7.95879C8.37147 47.1951 8.70586 46.8608 8.70586 46.4481V44.5686C10.1248 44.7036 11.1611 44.9864 12.168 45.7581C12.829 46.2647 13.6438 46.5437 14.4623 46.5437H27.6377C28.176 46.8061 28.7728 46.9451 29.3777 46.9451H46.5409C46.9536 46.9451 47.288 46.6107 47.288 46.1981C47.288 45.7854 46.9536 45.4511 46.541 45.4511ZM13.0769 44.5721C11.6682 43.4927 10.1627 43.1927 8.70586 43.0669V30.2819C8.70586 29.8692 8.37147 29.5348 7.95879 29.5348C7.54611 29.5348 7.21172 29.8692 7.21172 30.2819V45.7011H1.49414V26.0073H7.21172V31.0885C7.21172 31.5012 7.54611 31.8356 7.95879 31.8356C8.37147 31.8356 8.70586 31.5012 8.70586 31.0885V28.3617C9.95556 26.9826 11.2937 25.984 12.5898 25.0168C15.4595 22.8755 18.1698 20.8529 17.8948 15.5634C17.8742 15.1675 18.0132 14.791 18.2863 14.5035C18.5594 14.2157 18.9284 14.0573 19.3252 14.0573C19.6343 14.0573 19.9289 14.1536 20.1772 14.3359C20.4251 14.5178 20.6033 14.7684 20.6926 15.0602C21.928 19.1128 21.9087 22.5224 20.6317 25.7905C20.5418 26.0204 20.5714 26.2798 20.7106 26.4837C20.8497 26.6876 21.0806 26.8095 21.3275 26.8095H30.349C31.2971 26.8095 32.0683 27.5812 32.0683 28.5298C32.0683 28.9885 31.8893 29.4205 31.5655 29.7451C31.2398 30.07 30.8079 30.249 30.349 30.249H27.28C26.8673 30.249 26.533 30.5834 26.533 30.9961C26.533 31.4088 26.8673 31.7431 27.28 31.7431H29.5133C30.4612 31.7431 31.2325 32.5148 31.2325 33.4635C31.2325 33.923 31.0538 34.3548 30.7291 34.6794C30.4046 35.0041 29.9728 35.1828 29.5133 35.1828H27.28C26.8673 35.1828 26.533 35.5171 26.533 35.9298C26.533 36.3425 26.8673 36.6769 27.28 36.6769H28.6934C29.6415 36.6769 30.4127 37.4482 30.4127 38.3962C30.4127 38.8556 30.2339 39.2875 29.9094 39.6121C29.5841 39.9374 29.1522 40.1164 28.6934 40.1164H27.6933H26.4601C26.0475 40.1164 25.7131 40.4508 25.7131 40.8635C25.7131 41.2762 26.0475 41.6105 26.4601 41.6105H27.6933C28.6414 41.6105 29.4127 42.3818 29.4127 43.3298C29.4127 43.7892 29.2337 44.2215 28.9099 44.546C28.6065 44.8488 28.1272 45.0419 27.7685 45.0483C27.7437 45.0487 14.4623 45.0501 14.4623 45.0501C13.9706 45.0496 13.4785 44.88 13.0769 44.5721Z" fill="#D0A567"/>
<path d="M40.948 11.5799C40.948 10.01 39.6708 8.73285 38.1009 8.73285C36.5311 8.73285 35.2539 10.01 35.2539 11.5799C35.2539 13.1497 36.5311 14.4269 38.1009 14.4269C39.6708 14.4269 40.948 13.1497 40.948 11.5799ZM36.748 11.5799C36.748 10.8339 37.355 10.227 38.1009 10.227C38.8469 10.227 39.4538 10.8339 39.4538 11.5799C39.4538 12.3259 38.8469 12.9328 38.1009 12.9328C37.355 12.9328 36.748 12.326 36.748 11.5799Z" fill="#D0A567"/>
<path d="M38.5671 37.071H37.2272C36.5215 37.071 35.9474 36.4967 35.9474 35.791C35.9474 35.3783 35.613 35.0439 35.2003 35.0439C34.7876 35.0439 34.4532 35.3783 34.4532 35.791C34.4532 37.2948 35.6561 38.522 37.1501 38.5631V40.2165C37.1501 40.6291 37.4844 40.9635 37.8971 40.9635C38.3098 40.9635 38.6442 40.6291 38.6442 40.2165V38.5631C40.1382 38.522 41.3411 37.2948 41.3411 35.791V34.7568C41.3411 33.7972 40.728 32.9534 39.8154 32.6568L36.4406 31.5606C36.1456 31.4647 35.9474 31.1919 35.9474 30.8818V29.4009C35.9474 28.8277 36.4136 28.3613 36.9868 28.3613H38.8077C39.3808 28.3613 39.8471 28.8277 39.8471 29.4009C39.8471 29.8136 40.1815 30.1479 40.5941 30.1479C41.0068 30.1479 41.3412 29.8136 41.3412 29.4009C41.3412 28.0038 40.2047 26.8672 38.8077 26.8672H38.6442V25.2159C38.6442 24.8032 38.3098 24.4688 37.8971 24.4688C37.4844 24.4688 37.1501 24.8032 37.1501 25.2159V26.8672H36.9867C35.5898 26.8672 34.4531 28.0037 34.4531 29.4009V30.8818C34.4531 31.8413 35.0662 32.6851 35.9788 32.9816L39.3535 34.0778C39.6487 34.1738 39.8469 34.4466 39.8469 34.7568V35.791C39.8471 36.4967 39.2728 37.071 38.5671 37.071Z" fill="#D0A567"/>
</svg>
