<svg width="50" height="50" viewBox="0 0 50 50" fill="none" xmlns="http://www.w3.org/2000/svg">
<g clip-path="url(#clip0)">
<path d="M24.4539 43.8566C24.4539 41.2236 22.3196 39.0894 19.6872 39.0894C17.0542 39.0894 14.9199 41.2236 14.9199 43.8561C14.9199 46.4891 17.0542 48.6233 19.6872 48.6233C22.3182 48.6205 24.4511 46.4881 24.4539 43.8566ZM16.6107 43.8566C16.6107 42.1573 17.9878 40.7802 19.6872 40.7802C21.386 40.7802 22.7631 42.1573 22.7631 43.8561C22.7631 45.5554 21.386 46.9325 19.6872 46.9325C17.9888 46.9306 16.6126 45.5545 16.6107 43.8566Z" fill="#D0A567"/>
<path d="M37.339 48.6233C39.972 48.6238 42.1063 46.4895 42.1063 43.8566C42.1067 41.2236 39.9724 39.0894 37.3395 39.0894C34.7066 39.0894 32.5723 41.2236 32.5723 43.8566C32.5756 46.4876 34.7075 48.62 37.339 48.6233ZM37.339 40.7802C39.0379 40.7802 40.4154 42.1573 40.4154 43.8561C40.4159 45.555 39.0383 46.9325 37.3395 46.9325C35.6407 46.9325 34.2631 45.5554 34.2631 43.8566C34.265 42.1587 35.6411 40.7825 37.339 40.7802Z" fill="#D0A567"/>
<path d="M0.845406 3.01922H6.00229C7.69923 3.01262 9.14614 4.24817 9.40467 5.92578L13.4869 31.7121C13.8723 34.2124 16.0292 36.0547 18.5593 36.0448H43.7922C44.2588 36.0448 44.6376 35.666 44.6376 35.1994C44.6376 34.7323 44.2588 34.354 43.7922 34.354H18.5593C16.8624 34.3606 15.4155 33.1245 15.1569 31.4474L14.463 27.0633H40.3059C42.4939 27.0623 44.4414 25.6763 45.1585 23.6095L49.953 9.77162C50.0431 9.51309 50.0021 9.2272 49.8436 9.00405C49.6846 8.78138 49.4279 8.64881 49.1543 8.64881H11.5474L11.0747 5.66111C10.6893 3.16075 8.53237 1.3185 6.00229 1.32841H0.845406C0.378357 1.32841 0 1.70724 0 2.17381C0 2.64086 0.378357 3.01922 0.845406 3.01922ZM47.9664 10.3401L43.5611 23.0556C43.0799 24.4421 41.7735 25.372 40.3059 25.3725H14.195L11.8149 10.3396L47.9664 10.3401Z" fill="#D0A567"/>
<path d="M22.5326 16.7615L27.5798 21.8088L36.2328 13.1558" stroke="#D0A567" stroke-width="1.8" stroke-linecap="round"/>
</g>
<defs>
<clipPath id="clip0">
<rect width="50" height="50" fill="white"/>
</clipPath>
</defs>
</svg>
