<svg width="72" height="72" viewBox="0 0 72 72" fill="none" xmlns="http://www.w3.org/2000/svg">
<path d="M65.5463 4.99909L65.468 4.8601C63.8932 2.06335 60.9209 0.3 57.6678 0.3C54.2916 0.3 51.2613 2.17909 49.7372 5.09812L49.6236 5.31559L49.388 5.24748C48.8013 5.07792 48.1909 4.99068 47.5766 4.99068C43.9792 4.99068 41.052 7.9179 41.052 11.5155C41.052 12.1263 41.5472 12.6217 42.1582 12.6217H53.6077C54.2186 12.6217 54.714 12.1263 54.714 11.5155C54.714 10.9046 54.2186 10.4092 53.6077 10.4092H43.8188H43.3858L43.538 10.0038C44.1513 8.37004 45.7295 7.20317 47.5768 7.20317C48.3127 7.20317 49.0398 7.39244 49.6799 7.75106C49.9678 7.91232 50.3134 7.93657 50.6209 7.81735L65.5463 4.99909ZM65.5463 4.99909L65.7053 5.01192M65.5463 4.99909L65.7053 5.01192M65.7053 5.01192C69.0559 5.2824 71.7005 8.09641 71.7005 11.5155C71.7005 12.1263 71.205 12.6217 70.5942 12.6217H64.9692C64.3584 12.6217 63.863 12.1263 63.863 11.5155C63.863 10.9046 64.3584 10.4092 64.9692 10.4092H68.9336H69.3666L69.2144 10.0038C68.6011 8.37003 67.0227 7.20317 65.1755 7.20317C65.0875 7.20317 65.0021 7.20687 64.9204 7.21167C64.458 7.2366 64.0275 6.97404 63.8423 6.55115L63.8423 6.55112M65.7053 5.01192L63.8423 6.55112M63.8423 6.55112C62.7674 4.09794 60.3441 2.51264 57.668 2.51264C54.7565 2.51264 52.1854 4.36981 51.2709 7.13359M63.8423 6.55112L51.2709 7.13359M51.2709 7.13359C51.1671 7.44708 50.9288 7.69784 50.621 7.81732L51.2709 7.13359Z" fill="#D0A567" stroke="#FAF8F5" stroke-width="0.6"/>
<mask id="path-2-inside-1" fill="white">
<path d="M71.8244 60.9134L50.8708 23.001C50.6231 22.553 50.1519 22.275 49.64 22.275C49.1281 22.275 48.6568 22.5531 48.4093 23.001L40.0234 38.1741L37.1781 33.8082C36.9185 33.4099 36.4754 33.1697 36 33.1697C35.5245 33.1697 35.0814 33.4099 34.8218 33.8082L18.458 58.9177L15.5592 53.9543H16.5912C17.0949 53.9543 17.5601 53.6851 17.8109 53.2483C18.0616 52.8115 18.0596 52.2739 17.8055 51.8391L14.4952 46.1709H15.1827C15.6865 46.1709 16.1516 45.9016 16.4024 45.4648C16.6531 45.0281 16.6511 44.4904 16.397 44.0556L14.114 40.1468L16.4548 35.6342L18.6328 37.1102C19.243 37.5236 19.9359 37.7369 20.6418 37.7369C20.9146 37.7369 21.1897 37.705 21.4625 37.6405C22.4681 37.403 23.3485 36.7251 23.878 35.781L27.7618 28.8565C27.9299 28.5565 28.1776 28.3741 28.459 28.3431C28.6388 28.3228 28.9063 28.3588 29.1606 28.6419C29.8768 29.439 30.841 29.8778 31.8759 29.8777C32.9107 29.8777 33.875 29.4388 34.5909 28.6419L36.3027 26.7367L38.3488 30.681C38.7066 31.3703 39.5553 31.639 40.2446 31.2817C40.9339 30.9241 41.203 30.0753 40.8453 29.3859L37.8635 23.6378C37.8635 23.6376 37.8634 23.6375 37.8634 23.6373L29.9348 8.35256C29.693 7.88653 29.2116 7.59375 28.6865 7.59375C28.1614 7.59375 27.6801 7.88625 27.4382 8.35256L12.4359 37.2734L11.1138 35.0097C10.8618 34.5779 10.3994 34.3126 9.89946 34.3126C9.39954 34.3126 8.93717 34.5779 8.68517 35.0097L3.40204 44.0554C3.14793 44.4903 3.14596 45.0278 3.39669 45.4646C3.64743 45.9013 4.11262 46.1706 4.61633 46.1706H5.30385L1.9934 51.8388C1.73929 52.2737 1.73732 52.8112 1.98806 53.248C2.23879 53.6848 2.70398 53.9541 3.2077 53.9541H4.23974L0.191998 60.8846C-0.0621111 61.3196 -0.0640798 61.857 0.186654 62.2938C0.437388 62.7306 0.902575 62.9999 1.40629 62.9999H70.5937C71.0913 62.9999 71.5519 62.7368 71.8049 62.3082C72.0577 61.8794 72.0652 61.3491 71.8244 60.9134ZM28.6864 12.0541L34.9187 24.0685L32.4987 26.7619C32.3205 26.9602 32.1051 27.0649 31.8757 27.0649C31.6462 27.0649 31.4308 26.9602 31.2525 26.7619C30.4433 25.8613 29.3127 25.4188 28.149 25.5475C26.9589 25.6794 25.9237 26.3837 25.3087 27.4803L21.4249 34.405C21.2773 34.6682 21.0608 34.8451 20.8156 34.9031C20.6717 34.9371 20.4498 34.9439 20.2104 34.7816L17.7587 33.1202L28.6864 12.0541ZM3.85598 60.1875L7.90358 53.2573C8.15769 52.8223 8.15965 52.2849 7.90892 51.8481C7.65819 51.4113 7.193 51.142 6.68928 51.142H5.65724L8.96768 45.4738C9.22179 45.0389 9.22376 44.5014 8.97303 44.0646C8.72229 43.6279 8.25711 43.3586 7.75339 43.3586H7.06588L9.89918 38.5074L12.7325 43.3586H12.045C11.5413 43.3586 11.0761 43.6279 10.8253 44.0646C10.5746 44.5014 10.5766 45.039 10.8307 45.4738L14.141 51.142H13.1089C12.6052 51.142 12.14 51.4113 11.8893 51.8481C11.6386 52.2849 11.6405 52.8225 11.8946 53.2573L15.9422 60.1875H3.85598ZM37.4062 39.3094L42.9166 47.7648H37.4062V39.3094ZM20.9876 60.1875L34.5937 39.3094V48.7532L27.142 60.1875H20.9876ZM30.499 60.1875L35.9998 51.7467L41.5007 60.1875H30.499ZM44.0877 59.0059L38.5948 50.5772H44.0877V59.0059ZM41.7621 40.8424L49.64 26.5884L61.2489 47.5929C61.1226 48.0151 60.8432 48.3445 60.465 48.5032C60.2379 48.5984 59.7868 48.7026 59.3175 48.3303L53.7631 43.925C52.1984 42.6836 50.0065 42.7848 48.5513 44.1657L45.6946 46.8766L41.7621 40.8424ZM46.9002 60.1875V53.8777L51.0122 60.1875H46.9002ZM54.3692 60.1875L47.2559 49.2723L50.4873 46.2058C50.9298 45.7856 51.5437 45.7544 52.0152 46.1283L57.5696 50.5338C58.2963 51.1102 59.1562 51.4069 60.0285 51.4069C60.5403 51.4069 61.0564 51.3047 61.5519 51.097C62.0005 50.909 62.4051 50.6429 62.7544 50.3174L68.2095 60.1875H54.3692Z"/>
</mask>
<path d="M71.8244 60.9134L50.8708 23.001C50.6231 22.553 50.1519 22.275 49.64 22.275C49.1281 22.275 48.6568 22.5531 48.4093 23.001L40.0234 38.1741L37.1781 33.8082C36.9185 33.4099 36.4754 33.1697 36 33.1697C35.5245 33.1697 35.0814 33.4099 34.8218 33.8082L18.458 58.9177L15.5592 53.9543H16.5912C17.0949 53.9543 17.5601 53.6851 17.8109 53.2483C18.0616 52.8115 18.0596 52.2739 17.8055 51.8391L14.4952 46.1709H15.1827C15.6865 46.1709 16.1516 45.9016 16.4024 45.4648C16.6531 45.0281 16.6511 44.4904 16.397 44.0556L14.114 40.1468L16.4548 35.6342L18.6328 37.1102C19.243 37.5236 19.9359 37.7369 20.6418 37.7369C20.9146 37.7369 21.1897 37.705 21.4625 37.6405C22.4681 37.403 23.3485 36.7251 23.878 35.781L27.7618 28.8565C27.9299 28.5565 28.1776 28.3741 28.459 28.3431C28.6388 28.3228 28.9063 28.3588 29.1606 28.6419C29.8768 29.439 30.841 29.8778 31.8759 29.8777C32.9107 29.8777 33.875 29.4388 34.5909 28.6419L36.3027 26.7367L38.3488 30.681C38.7066 31.3703 39.5553 31.639 40.2446 31.2817C40.9339 30.9241 41.203 30.0753 40.8453 29.3859L37.8635 23.6378C37.8635 23.6376 37.8634 23.6375 37.8634 23.6373L29.9348 8.35256C29.693 7.88653 29.2116 7.59375 28.6865 7.59375C28.1614 7.59375 27.6801 7.88625 27.4382 8.35256L12.4359 37.2734L11.1138 35.0097C10.8618 34.5779 10.3994 34.3126 9.89946 34.3126C9.39954 34.3126 8.93717 34.5779 8.68517 35.0097L3.40204 44.0554C3.14793 44.4903 3.14596 45.0278 3.39669 45.4646C3.64743 45.9013 4.11262 46.1706 4.61633 46.1706H5.30385L1.9934 51.8388C1.73929 52.2737 1.73732 52.8112 1.98806 53.248C2.23879 53.6848 2.70398 53.9541 3.2077 53.9541H4.23974L0.191998 60.8846C-0.0621111 61.3196 -0.0640798 61.857 0.186654 62.2938C0.437388 62.7306 0.902575 62.9999 1.40629 62.9999H70.5937C71.0913 62.9999 71.5519 62.7368 71.8049 62.3082C72.0577 61.8794 72.0652 61.3491 71.8244 60.9134ZM28.6864 12.0541L34.9187 24.0685L32.4987 26.7619C32.3205 26.9602 32.1051 27.0649 31.8757 27.0649C31.6462 27.0649 31.4308 26.9602 31.2525 26.7619C30.4433 25.8613 29.3127 25.4188 28.149 25.5475C26.9589 25.6794 25.9237 26.3837 25.3087 27.4803L21.4249 34.405C21.2773 34.6682 21.0608 34.8451 20.8156 34.9031C20.6717 34.9371 20.4498 34.9439 20.2104 34.7816L17.7587 33.1202L28.6864 12.0541ZM3.85598 60.1875L7.90358 53.2573C8.15769 52.8223 8.15965 52.2849 7.90892 51.8481C7.65819 51.4113 7.193 51.142 6.68928 51.142H5.65724L8.96768 45.4738C9.22179 45.0389 9.22376 44.5014 8.97303 44.0646C8.72229 43.6279 8.25711 43.3586 7.75339 43.3586H7.06588L9.89918 38.5074L12.7325 43.3586H12.045C11.5413 43.3586 11.0761 43.6279 10.8253 44.0646C10.5746 44.5014 10.5766 45.039 10.8307 45.4738L14.141 51.142H13.1089C12.6052 51.142 12.14 51.4113 11.8893 51.8481C11.6386 52.2849 11.6405 52.8225 11.8946 53.2573L15.9422 60.1875H3.85598ZM37.4062 39.3094L42.9166 47.7648H37.4062V39.3094ZM20.9876 60.1875L34.5937 39.3094V48.7532L27.142 60.1875H20.9876ZM30.499 60.1875L35.9998 51.7467L41.5007 60.1875H30.499ZM44.0877 59.0059L38.5948 50.5772H44.0877V59.0059ZM41.7621 40.8424L49.64 26.5884L61.2489 47.5929C61.1226 48.0151 60.8432 48.3445 60.465 48.5032C60.2379 48.5984 59.7868 48.7026 59.3175 48.3303L53.7631 43.925C52.1984 42.6836 50.0065 42.7848 48.5513 44.1657L45.6946 46.8766L41.7621 40.8424ZM46.9002 60.1875V53.8777L51.0122 60.1875H46.9002ZM54.3692 60.1875L47.2559 49.2723L50.4873 46.2058C50.9298 45.7856 51.5437 45.7544 52.0152 46.1283L57.5696 50.5338C58.2963 51.1102 59.1562 51.4069 60.0285 51.4069C60.5403 51.4069 61.0564 51.3047 61.5519 51.097C62.0005 50.909 62.4051 50.6429 62.7544 50.3174L68.2095 60.1875H54.3692Z" fill="#D0A567" stroke="#FAF8F5" stroke-width="1.2" mask="url(#path-2-inside-1)"/>
<path d="M9 64.9875H19.6875C20.2983 64.9875 20.7937 65.4829 20.7937 66.0937C20.7937 66.7046 20.2983 67.2 19.6875 67.2H9C8.38915 67.2 7.89375 66.7046 7.89375 66.0937C7.89375 65.4829 8.38915 64.9875 9 64.9875Z" fill="#D0A567" stroke="#FAF8F5" stroke-width="0.6"/>
<path d="M52.5566 64.9875H70.579C71.1898 64.9875 71.6852 65.4829 71.6852 66.0937C71.6852 66.7046 71.1898 67.2 70.579 67.2H52.5566C51.9458 67.2 51.4504 66.7046 51.4504 66.0937C51.4504 65.4829 51.9458 64.9875 52.5566 64.9875Z" fill="#D0A567" stroke="#FAF8F5" stroke-width="0.6"/>
<path d="M29.6719 69.4875H47.8109C48.4217 69.4875 48.917 69.9829 48.917 70.5938C48.917 71.2046 48.4216 71.7 47.8108 71.7H29.6719C29.061 71.7 28.5656 71.2046 28.5656 70.5938C28.5656 69.9829 29.061 69.4875 29.6719 69.4875Z" fill="#D0A567" stroke="#FAF8F5" stroke-width="0.6"/>
<path d="M8.83253 1.07835L8.99954 1.19025L9.16654 1.07833C9.91721 0.575244 10.8057 0.3 11.7352 0.3C12.3461 0.3 12.8415 0.795403 12.8415 1.40625C12.8415 2.01709 12.3461 2.51249 11.7352 2.51249C11.0046 2.51249 10.3205 2.84042 9.85928 3.41011L9.85919 3.41023C9.64928 3.6698 9.33326 3.82059 8.99938 3.82059C8.6655 3.82059 8.34949 3.6698 8.13958 3.41023L8.13951 3.41015C7.67847 2.84042 6.99433 2.51249 6.26367 2.51249C5.65282 2.51249 5.15742 2.01709 5.15742 1.40625C5.15742 0.795403 5.65282 0.3 6.26367 0.3C7.19323 0.3 8.0817 0.575242 8.83253 1.07835Z" fill="#D0A567" stroke="#FAF8F5" stroke-width="0.6"/>
<path d="M15.096 10.0783L15.2631 10.1903L15.4301 10.0783C16.1806 9.57513 17.0692 9.3 17.9988 9.3C18.6096 9.3 19.105 9.7954 19.105 10.4062C19.105 11.0171 18.6096 11.5125 17.9988 11.5125C17.2681 11.5125 16.584 11.8404 16.1231 12.41L16.123 12.4101C15.913 12.6697 15.597 12.8206 15.2632 12.8206C14.9293 12.8206 14.6131 12.6698 14.4032 12.4102L14.4032 12.4102C13.9421 11.8404 13.258 11.5125 12.5273 11.5125C11.9165 11.5125 11.4211 11.0171 11.4211 10.4062C11.4211 9.7954 11.9165 9.3 12.5273 9.3C13.4569 9.3 14.3454 9.57512 15.096 10.0783Z" fill="#D0A567" stroke="#FAF8F5" stroke-width="0.6"/>
<path d="M65.7357 27.9793L65.5687 27.8674C64.818 27.3642 63.9295 27.0891 63 27.0891C62.3892 27.0891 61.8938 27.5845 61.8938 28.1953C61.8938 28.8062 62.3892 29.3016 63 29.3016C63.7306 29.3016 64.4149 29.6294 64.8757 30.1991L65.7357 27.9793ZM65.7357 27.9793L65.9027 27.8674M65.7357 27.9793L65.9027 27.8674M65.9027 27.8674C66.6534 27.3643 67.5419 27.0892 68.4714 27.0891L65.9027 27.8674ZM66.5956 30.1992L66.5956 30.1992C67.0566 29.6295 67.7408 29.3016 68.4714 29.3016C69.0823 29.3016 69.5777 28.8062 69.5777 28.1953C69.5777 27.5845 69.0823 27.0891 68.4715 27.0891L66.5956 30.1992ZM66.5956 30.1992C66.3856 30.4587 66.0696 30.6095 65.7357 30.6095H65.7357H65.7357H65.7357H65.7357H65.7357H65.7357H65.7357H65.7357H65.7357H65.7357H65.7357H65.7357H65.7357H65.7357H65.7357H65.7357H65.7356H65.7356H65.7356H65.7356H65.7356H65.7356H65.7356H65.7356H65.7356H65.7356H65.7356H65.7356H65.7356H65.7356H65.7356H65.7356H65.7356H65.7356H65.7356H65.7356C65.4019 30.6095 65.0858 30.4588 64.8757 30.1991L66.5956 30.1992Z" fill="#D0A567" stroke="#FAF8F5" stroke-width="0.6"/>
<path d="M53.8323 16.3642L53.9994 16.4762L54.1664 16.3642C54.9171 15.861 55.8056 15.5859 56.7351 15.5859C57.3459 15.5859 57.8413 16.0813 57.8413 16.6921C57.8413 17.303 57.3459 17.7984 56.7351 17.7984C56.0044 17.7984 55.3203 18.1263 54.8593 18.6959L54.8592 18.696C54.6493 18.9555 54.3333 19.1063 53.9994 19.1063C53.6655 19.1063 53.3495 18.9555 53.1396 18.696L53.1395 18.6959C52.6784 18.1263 51.9943 17.7984 51.2637 17.7984C50.6528 17.7984 50.1574 17.303 50.1574 16.6921C50.1574 16.0813 50.6528 15.5859 51.2637 15.5859C52.1931 15.5859 53.0817 15.861 53.8323 16.3642Z" fill="#D0A567" stroke="#FAF8F5" stroke-width="0.6"/>
<path d="M3.97505 15.7595L4.14212 15.8715L4.30917 15.7595C5.05965 15.2563 5.94807 14.9812 6.87767 14.9812C7.48852 14.9812 7.98392 15.4766 7.98392 16.0874C7.98392 16.6982 7.48852 17.1936 6.87767 17.1936C6.14708 17.1936 5.46289 17.5214 5.00207 18.0911L5.00205 18.0911C4.79209 18.3507 4.47605 18.5016 4.14224 18.5016C3.80833 18.5016 3.49219 18.3508 3.28229 18.0912L3.28221 18.0911C2.82116 17.5216 2.13704 17.1936 1.40625 17.1936C0.795282 17.1936 0.3 16.6983 0.3 16.0874C0.3 15.4766 0.795403 14.9812 1.40625 14.9812C2.33585 14.9812 3.22443 15.2563 3.97505 15.7595Z" fill="#D0A567" stroke="#FAF8F5" stroke-width="0.6"/>
</svg>
