<svg width="46" height="46" viewBox="0 0 46 46" fill="none" xmlns="http://www.w3.org/2000/svg">
<g clip-path="url(#clip0)">
<path d="M39.7651 38.3624C39.5619 38.3624 39.3672 38.2819 39.223 38.1377L35.9632 34.8779C35.6818 34.5965 35.6626 34.1472 35.9179 33.8421C38.4648 30.8107 39.8678 26.9605 39.8678 22.9999C39.8678 19.0393 38.4648 15.1891 35.9179 12.1577C35.6619 11.8533 35.6818 11.4033 35.9632 11.1219L39.223 7.86206C39.3733 7.71179 39.5757 7.62822 39.7911 7.63819C40.0035 7.64586 40.2036 7.74092 40.3431 7.90116C43.9917 12.0879 46.0011 17.4508 46.0011 22.9999C46.0011 28.549 43.9917 33.9119 40.3431 38.0986C40.2036 38.2589 40.0035 38.3539 39.7911 38.3616C39.7827 38.3624 39.7735 38.3624 39.7651 38.3624ZM37.5348 34.2806L39.7152 36.4618C42.7857 32.653 44.4678 27.9043 44.4678 22.9999C44.4678 18.0955 42.7857 13.3468 39.7152 9.53799L37.5348 11.7192C40.0326 14.9361 41.4011 18.9143 41.4011 22.9999C41.4011 27.0855 40.0326 31.0637 37.5348 34.2806Z" fill="#D0A567"/>
<path d="M6.23607 38.3623C6.22763 38.3623 6.21843 38.3623 6.21 38.3623C5.99763 38.3546 5.79753 38.2595 5.658 38.0993C2.00943 33.9118 0 28.5489 0 22.9998C0 17.4499 2.00943 12.0878 5.658 7.9003C5.79753 7.74083 5.99763 7.645 6.21 7.6381C6.42543 7.62967 6.62783 7.71247 6.7781 7.86197L10.038 11.1218C10.3193 11.4032 10.3385 11.8525 10.0832 12.1576C7.53633 15.189 6.13333 19.0392 6.13333 22.9998C6.13333 26.9604 7.53633 30.8106 10.0832 33.842C10.3393 34.1464 10.3193 34.5964 10.038 34.8778L6.7781 38.1376C6.63473 38.2818 6.43923 38.3623 6.23607 38.3623ZM6.2859 9.5379C3.2154 13.3467 1.53333 18.0947 1.53333 22.9998C1.53333 27.9042 3.2154 32.6529 6.2859 36.4617L8.4663 34.2805C5.9685 31.0636 4.6 27.0854 4.6 22.9998C4.6 18.9142 5.9685 14.936 8.4663 11.7191L6.2859 9.5379Z" fill="#D0A567"/>
<path d="M34.336 10.2634C34.1612 10.2634 33.9864 10.2036 33.8431 10.084C30.8117 7.53633 26.9615 6.13333 23.0009 6.13333C19.0403 6.13333 15.1901 7.53633 12.1587 10.0832C11.8543 10.3393 11.4043 10.3193 11.1237 10.038L7.8638 6.7781C7.71277 6.6286 7.6315 6.42237 7.63917 6.21C7.64684 5.99763 7.7419 5.79753 7.90214 5.658C12.0889 2.00943 17.451 0 23.0009 0C28.5508 0 33.9128 2.00943 38.1004 5.658C38.2606 5.79753 38.3557 5.99763 38.3633 6.21C38.371 6.42237 38.2897 6.62783 38.1395 6.7781L34.8796 10.038C34.7293 10.1875 34.5331 10.2634 34.336 10.2634ZM23.0009 4.6C27.0864 4.6 31.0647 5.9685 34.2816 8.46707L36.462 6.2859C32.654 3.2154 27.906 1.53333 23.0009 1.53333C18.0957 1.53333 13.3478 3.2154 9.53897 6.2859L11.7194 8.46707C14.9371 5.9685 18.9153 4.6 23.0009 4.6Z" fill="#D0A567"/>
<path d="M22.9997 46.0001C17.4498 46.0001 12.0877 43.9907 7.90018 40.3421C7.73995 40.2026 7.64488 40.0025 7.63722 39.7901C7.62955 39.5777 7.71082 39.3723 7.86108 39.222L11.1209 35.9621C11.4023 35.6815 11.8516 35.6616 12.156 35.9169C15.1889 38.4638 19.0391 39.8668 22.9997 39.8668C26.9603 39.8668 30.8105 38.4638 33.8419 35.9169C34.1463 35.6616 34.5963 35.6808 34.8769 35.9621L38.1368 39.222C38.287 39.3723 38.3683 39.5777 38.3606 39.7901C38.353 40.0025 38.2579 40.2026 38.0977 40.3421C33.9117 43.9907 28.5496 46.0001 22.9997 46.0001ZM9.53778 39.7142C13.3466 42.7847 18.0946 44.4668 22.9997 44.4668C27.9048 44.4668 32.6528 42.7847 36.4616 39.7142L34.2812 37.533C31.0635 40.0316 27.0853 41.4001 22.9997 41.4001C18.9141 41.4001 14.9359 40.0316 11.719 37.533L9.53778 39.7142Z" fill="#D0A567"/>
<path d="M23.0009 36.8002C20.3299 36.8002 17.9233 35.5452 15.8487 33.0696C13.5579 30.3364 12.296 26.7109 12.296 22.8614L12.2676 15.3366C12.2668 15.1327 12.3473 14.9372 12.4915 14.793C12.6348 14.6481 12.8303 14.5669 13.0343 14.5669C19.5877 14.5669 22.2419 10.4989 22.3515 10.3257C22.4926 10.1033 22.7372 9.96838 23.0001 9.96838H23.0032C23.2662 9.96915 23.5107 10.1041 23.651 10.3264C23.7676 10.5112 26.4241 14.5669 32.9676 14.5669C33.1715 14.5669 33.367 14.6481 33.5104 14.7923C33.6545 14.9364 33.7343 15.1319 33.7343 15.3358L33.7059 22.863C33.7059 26.7101 32.4439 30.3349 30.1531 33.0688C28.0785 35.5452 25.672 36.8002 23.0009 36.8002ZM13.804 16.0833L13.8293 22.8584C13.8293 26.3513 14.9639 29.6273 17.0232 32.0844C18.7934 34.1966 20.8044 35.2669 23.0009 35.2669C25.1974 35.2669 27.2084 34.1966 28.9786 32.0844C31.0387 29.6265 32.1726 26.3513 32.1726 22.8614L32.1978 16.0833C27.078 15.8503 24.1923 13.3348 23.0009 11.9817C21.8095 13.3348 18.9238 15.8503 13.804 16.0833Z" fill="#D0A567"/>
<path d="M22.2334 29.1332C22.0003 29.1332 21.7703 29.0274 21.6193 28.8266L19.3193 25.7599C19.0655 25.421 19.1338 24.9403 19.4726 24.6866C19.8115 24.4321 20.2922 24.5011 20.546 24.8399L22.846 27.9066C23.0997 28.2454 23.0315 28.7261 22.6926 28.9799C22.5546 29.0834 22.3929 29.1332 22.2334 29.1332Z" fill="#D0A567"/>
<path d="M22.2328 29.1333C22.0918 29.1333 21.9499 29.095 21.8219 29.0137C21.4646 28.7868 21.3596 28.3122 21.5865 27.9549L26.9532 19.5216C27.1801 19.1651 27.6539 19.0585 28.012 19.2862C28.3692 19.5132 28.4743 19.9877 28.2473 20.345L22.8807 28.7783C22.7342 29.0076 22.4866 29.1333 22.2328 29.1333Z" fill="#D0A567"/>
</g>
<defs>
<clipPath id="clip0">
<rect width="46" height="46" fill="white"/>
</clipPath>
</defs>
</svg>
