<svg id="catalog-spotlight1" width="68" height="37" viewBox="0 0 68 37" fill="none" xmlns="http://www.w3.org/2000/svg">
	<line x1="4.37114e-08" y1="0.5" x2="68" y2="0.500006" stroke="#111111"/>
	<ellipse cx="33.5" cy="28.5" rx="15.5" ry="3.5" fill="#111111"/>
	<rect x="25.8555" y="27.8027" width="11.9668" height="12.4216" transform="rotate(-55 25.8555 27.8027)" fill="#F9F3EA" stroke="#111111" stroke-width="0.99907"/>
	<path d="M36.0925 35.0289C36.3725 34.629 36.3598 34.1429 36.235 33.7057C36.1087 33.2635 35.8473 32.7889 35.5008 32.313C34.8049 31.3572 33.6969 30.3024 32.3473 29.3574C30.9977 28.4124 29.6276 27.7319 28.4913 27.4049C27.9257 27.2421 27.3903 27.1588 26.9316 27.1914C26.4781 27.2236 26.0169 27.3779 25.7369 27.7779C25.4568 28.1778 25.4695 28.6639 25.5944 29.1011C25.7207 29.5433 25.9821 30.0179 26.3285 30.4938C27.0244 31.4496 28.1325 32.5044 29.4821 33.4494C30.8316 34.3943 32.2018 35.0749 33.338 35.4019C33.9037 35.5646 34.439 35.648 34.8978 35.6154C35.3513 35.5832 35.8124 35.4289 36.0925 35.0289Z" fill="#F9F3EA" stroke="#111111" stroke-width="0.99907"/>
	<path d="M18.5 27V27.892L19.2609 27.4265C19.8868 27.0436 21.2569 26.596 23.2063 26.2108C25.1333 25.8301 27.5673 25.5212 30.2748 25.3869C35.6956 25.1179 42.1691 25.5505 47.8394 27.4735L48.5 27.6975V27V1V0.5H48H19H18.5V1V27Z" fill="white" stroke="#111111"/>
	<path d="M30.1536 27.9996C30.0837 29.5187 30.5017 30.746 31.4396 31.3585C32.3776 31.9709 33.6694 31.8599 35.0322 31.1849L30.1536 27.9996Z" fill="#111111"/>
</svg>