<svg id="catalog-desk-lamp1" width="38" height="54" viewBox="0 0 38 54" fill="none" xmlns="http://www.w3.org/2000/svg">
	<ellipse cx="19" cy="52.0029" rx="16" ry="2" fill="#111111"/>
	<path d="M20 28.0029H19V54.0029H20V28.0029Z" fill="#111111"/>
	<path d="M0.51559 27.102L0.516159 27.099L5.32148 1.6075C5.32151 1.60735 5.32153 1.6072 5.32156 1.60706C5.42459 1.06843 6.1195 0.50293 7.14562 0.50293H30.8542C31.888 0.50293 32.5822 1.0654 32.6771 1.60108L32.6771 1.60108L32.6781 1.60646L37.4836 27.099L37.4844 27.1027C37.5453 27.413 37.4258 27.7415 37.1046 28.02C36.7807 28.3009 36.2731 28.5029 35.67 28.5029H2.3401C1.7358 28.5029 1.22506 28.3021 0.898721 28.0215C0.575603 27.7437 0.454498 27.4154 0.51559 27.102Z" fill="#F9F3EA" stroke="#111111"/>
</svg>