<svg id="catalog-hit1" width="66" height="83" viewBox="0 0 66 83" fill="none" xmlns="http://www.w3.org/2000/svg">
	<path d="M24.3013 52.1811L42.6779 2.23434C42.8648 1.72643 43.613 1.83611 43.6462 2.37628L45.4665 31.9553C45.4845 32.2481 45.7496 32.4626 46.0397 32.419L64.6808 29.6229C65.0529 29.5671 65.351 29.9268 65.227 30.2821L47.7343 80.3964C47.5584 80.9002 46.8213 80.815 46.765 80.2843L43.5567 50.0343C43.5261 49.7457 43.2569 49.5436 42.9711 49.5949L24.8589 52.8458C24.4786 52.9141 24.1679 52.5437 24.3013 52.1811Z" fill="#F9F3EA" stroke="#111111"/>
	<path d="M1.30131 52.1811L19.6779 2.23434C19.8648 1.72643 20.613 1.83611 20.6462 2.37628L22.4665 31.9553C22.4845 32.2481 22.7496 32.4626 23.0397 32.419L41.6808 29.6229C42.0529 29.5671 42.351 29.9268 42.227 30.2821L24.7343 80.3964C24.5584 80.9002 23.8213 80.815 23.765 80.2843L20.5567 50.0343C20.5261 49.7457 20.2569 49.5436 19.9711 49.5949L1.85889 52.8458C1.47861 52.9141 1.1679 52.5437 1.30131 52.1811Z" fill="#F9F3EA" stroke="#111111"/>
</svg>