<svg id="catalog-pendant-chandelier1" width="77" height="153" viewBox="0 0 77 144" fill="none" xmlns="http://www.w3.org/2000/svg">
	<path d="M39 99.7323C40.0233 155.732 59.4651 161.023 61 94" stroke="black"/>
	<path d="M39 99.7323C37.9767 155.732 18.5349 161.023 17 94" stroke="black"/>
	<path d="M39 99.7323C40.6279 155.732 71.5581 161.023 74 94" stroke="black"/>
	<path d="M39 99.7323C37.3721 155.732 6.44186 161.023 4 94" stroke="black"/>
	<path d="M39 101L39 0" stroke="black"/>
	<rect x="70.5" y="102.5" width="22" height="6" rx="0.951327" transform="rotate(-90 70.5 102.5)" fill="#F9F3EA" stroke="#111111"/>
	<path d="M71.3761 101.917C71.2044 101.882 71.0752 101.731 71.0752 101.549L71.0752 81.4513C71.0752 81.2694 71.2044 81.1176 71.3761 81.0827L71.3761 101.917Z" fill="#111111" stroke="#111111" stroke-width="0.150442"/>
	<rect x="57.5" y="102.5" width="22" height="6" rx="0.951327" transform="rotate(-90 57.5 102.5)" fill="#F9F3EA" stroke="#111111"/>
	<path d="M58.3761 101.917C58.2044 101.882 58.0752 101.731 58.0752 101.549L58.0752 81.4513C58.0752 81.2694 58.2044 81.1176 58.3761 81.0827L58.3761 101.917Z" fill="#111111" stroke="#111111" stroke-width="0.150442"/>
	<rect x="0.5" y="102.5" width="22" height="6" rx="0.951327" transform="rotate(-90 0.5 102.5)" fill="#F9F3EA" stroke="#111111"/>
	<path d="M1.37611 101.917C1.20443 101.882 1.07522 101.731 1.07522 101.549L1.07522 81.4513C1.07522 81.2694 1.20443 81.1176 1.37611 81.0827L1.37611 101.917Z" fill="#111111" stroke="#111111" stroke-width="0.150442"/>
	<rect x="14.5" y="102.5" width="22" height="6" rx="0.951327" transform="rotate(-90 14.5 102.5)" fill="#F9F3EA" stroke="#111111"/>
	<path d="M15.3761 101.917C15.2044 101.882 15.0752 101.731 15.0752 101.549L15.0752 81.4513C15.0752 81.2694 15.2044 81.1176 15.3761 81.0827L15.3761 101.917Z" fill="#111111" stroke="#111111" stroke-width="0.150442"/>
</svg>