<svg id="catalog-ring-chandelier1" width="72" height="152" viewBox="0 0 72 143" fill="none" xmlns="http://www.w3.org/2000/svg">
	<path d="M11.3023 0.000438593L12.2969 0.104492L2.8514 90.3869L1.85682 90.2828L11.3023 0.000438593Z" fill="#111111"/>
	<path d="M20.3707 16.8051L21.3652 16.9092L10.6803 119.039L9.68572 118.935L20.3707 16.8051Z" fill="#111111"/>
	<path d="M29.3414 16.9609L30.3359 17.0649L17.9934 135.038L16.9988 134.934L29.3414 16.9609Z" fill="#111111"/>
	<path d="M61.3051 -4.96879e-05L60.3105 0.104004L69.9573 92.31L70.9518 92.2059L61.3051 -4.96879e-05Z" fill="#111111"/>
	<path d="M52.3051 17.4873L51.3105 17.5913L61.924 119.038L62.9186 118.934L52.3051 17.4873Z" fill="#111111"/>
	<path d="M42.3266 17.5634L41.332 17.6675L53.6115 135.038L54.606 134.934L42.3266 17.5634Z" fill="#111111"/>
	<path d="M71.5 92.4873C71.5 93.7679 70.6491 95.0844 68.8781 96.3637C67.1187 97.6347 64.5406 98.8001 61.3097 99.7873C54.8543 101.76 45.9058 102.987 36 102.987C26.0942 102.987 17.1457 101.76 10.6903 99.7873C7.45943 98.8001 4.88128 97.6347 3.12185 96.3637C1.35094 95.0844 0.5 93.7679 0.5 92.4873C0.5 91.2067 1.35094 89.8902 3.12185 88.6109C4.88128 87.3399 7.45943 86.1745 10.6903 85.1873C17.1457 83.2148 26.0942 81.9873 36 81.9873C45.9058 81.9873 54.8543 83.2148 61.3097 85.1873C64.5406 86.1745 67.1187 87.3399 68.8781 88.6109C70.6491 89.8902 71.5 91.2067 71.5 92.4873Z" fill="white" stroke="#111111"/>
	<path d="M71.5 94.4873C71.5 95.444 70.7123 96.4986 68.9165 97.5601C67.1542 98.6017 64.5708 99.5571 61.3346 100.366C54.8699 101.982 45.9126 102.987 36 102.987C26.0874 102.987 17.1301 101.982 10.6654 100.366C7.42924 99.5571 4.84581 98.6017 3.08347 97.5601C1.28766 96.4986 0.5 95.444 0.5 94.4873C0.5 93.5306 1.28766 92.476 3.08347 91.4145C4.84581 90.3729 7.42924 89.4175 10.6654 88.6084C17.1301 86.9922 26.0874 85.9873 36 85.9873C45.9126 85.9873 54.8699 86.9922 61.3346 88.6084C64.5708 89.4175 67.1542 90.3729 68.9165 91.4145C70.7123 92.476 71.5 93.5306 71.5 94.4873Z" fill="#F9F3EA" stroke="#111111"/>
	<path d="M62.9078 89.6685C55.8008 86.8452 46.4021 85.123 36.0897 85.123C25.7772 85.123 16.3785 86.8452 9.27148 89.6685H62.9078Z" fill="#111111"/>
	<path d="M62.5 118.585C62.5 119.464 61.9149 120.399 60.6247 121.331C59.346 122.255 57.4635 123.107 55.0922 123.832C50.3559 125.279 43.7824 126.182 36.5 126.182C29.2176 126.182 22.6441 125.279 17.9078 123.832C15.5365 123.107 13.654 122.255 12.3753 121.331C11.0851 120.399 10.5 119.464 10.5 118.585C10.5 117.705 11.0851 116.77 12.3753 115.838C13.654 114.914 15.5365 114.062 17.9078 113.337C22.6441 111.89 29.2176 110.987 36.5 110.987C43.7824 110.987 50.3559 111.89 55.0922 113.337C57.4635 114.062 59.346 114.914 60.6247 115.838C61.9149 116.77 62.5 117.705 62.5 118.585Z" fill="white" stroke="#111111"/>
	<path d="M62.5 120.057C62.5 120.685 61.9782 121.428 60.6631 122.205C59.3815 122.962 57.4937 123.662 55.1171 124.256C50.3716 125.443 43.7892 126.182 36.5 126.182C29.2108 126.182 22.6284 125.443 17.8829 124.256C15.5063 123.662 13.6185 122.962 12.3369 122.205C11.0218 121.428 10.5 120.685 10.5 120.057C10.5 119.428 11.0218 118.686 12.3369 117.908C13.6185 117.151 15.5063 116.451 17.8829 115.857C22.6284 114.671 29.2108 113.932 36.5 113.932C43.7892 113.932 50.3716 114.671 55.1171 115.857C57.4937 116.451 59.3815 117.151 60.6631 117.908C61.9782 118.686 62.5 119.428 62.5 120.057Z" fill="#F9F3EA" stroke="#111111"/>
	<path d="M56.3065 116.51C51.075 114.431 44.1565 113.164 36.5654 113.164C28.9743 113.164 22.0558 114.431 16.8242 116.51H56.3065Z" fill="#111111"/>
	<path d="M54.5 136.446C54.5 137.03 54.1108 137.683 53.1748 138.36C52.2503 139.027 50.8803 139.65 49.1425 140.181C45.6729 141.241 40.8495 141.904 35.5 141.904C30.1505 141.904 25.3271 141.241 21.8575 140.181C20.1197 139.65 18.7497 139.027 17.8252 138.36C16.8892 137.683 16.5 137.03 16.5 136.446C16.5 135.861 16.8892 135.208 17.8252 134.532C18.7497 133.864 20.1197 133.242 21.8575 132.711C25.3271 131.65 30.1505 130.987 35.5 130.987C40.8495 130.987 45.6729 131.65 49.1425 132.711C50.8803 133.242 52.2503 133.864 53.1748 134.532C54.1108 135.208 54.5 135.861 54.5 136.446Z" fill="white" stroke="#111111"/>
	<path d="M54.5 137.529C54.5 137.916 54.174 138.428 53.2132 138.996C52.2858 139.544 50.9105 140.055 49.1673 140.491C45.6886 141.361 40.8562 141.904 35.5 141.904C30.1438 141.904 25.3114 141.361 21.8327 140.491C20.0895 140.055 18.7142 139.544 17.7868 138.996C16.826 138.428 16.5 137.916 16.5 137.529C16.5 137.142 16.826 136.63 17.7868 136.062C18.7142 135.514 20.0895 135.003 21.8327 134.567C25.3114 133.697 30.1438 133.154 35.5 133.154C40.8562 133.154 45.6886 133.697 49.1673 134.567C50.9105 135.003 52.2858 135.514 53.2132 136.062C54.174 136.63 54.5 137.142 54.5 137.529Z" fill="#F9F3EA" stroke="#111111"/>
	<path d="M50.0745 134.919C46.2249 133.39 41.1339 132.457 35.548 132.457C29.9621 132.457 24.8711 133.39 21.0215 134.919H50.0745Z" fill="#111111"/>
</svg>