<svg id="catalog-new1" width="110" height="113" viewBox="0 0 110 113" fill="none" xmlns="http://www.w3.org/2000/svg">
	<path d="M53.314 10.9697C54.2662 9.25374 56.7338 9.25374 57.686 10.9697L71.0898 35.1239C71.5843 36.0149 72.4425 36.6462 73.4404 36.8528L100.213 42.3976C102.102 42.789 102.855 45.0829 101.564 46.5176L83.0416 67.1081C82.373 67.8513 82.0542 68.845 82.1655 69.8385L85.2678 97.5347C85.4849 99.4726 83.4983 100.902 81.7298 100.08L56.9749 88.5775C56.0396 88.1429 54.9604 88.1429 54.0251 88.5775L29.2702 100.08C27.5017 100.902 25.5151 99.4726 25.7322 97.5347L28.8345 69.8385C28.9458 68.845 28.627 67.8513 27.9584 67.1081L9.4356 46.5176C8.14497 45.0829 8.89752 42.789 10.7872 42.3976L37.5596 36.8528C38.5575 36.6462 39.4157 36.0149 39.9102 35.1239L53.314 10.9697Z" fill="#F9F3EA" stroke="black"/>
	<path d="M46.7941 53.2011C46.7424 53.1869 46.6885 53.183 46.6353 53.1896C46.1625 53.2662 45.8505 53.5725 45.7433 54.1007C45.7433 55.082 45.7401 56.039 45.7337 56.9718C45.7337 57.9021 45.7337 58.7806 45.7203 59.5998C45.7069 60.4191 45.7069 61.1751 45.6955 61.8661C45.684 62.5571 45.6744 63.1389 45.6572 63.6309C45.6572 63.8452 45.6438 64.0405 45.638 64.2051L45.6112 64.1687C45.3394 63.7859 45.037 63.3093 44.6944 62.7619L43.5651 60.955C41.919 58.3748 40.851 56.7441 40.3016 55.9497C39.7121 55.1018 39.3446 54.6003 39.1321 54.3266C38.535 53.582 38.1273 53.2643 37.7636 53.2643C37.4459 53.2643 37.2047 53.4921 37.0477 53.938C37.0018 54.072 36.8774 54.4319 36.7855 58.5605C36.7242 61.2849 36.6911 63.1268 36.686 64.0864C36.6679 64.7385 36.6889 65.3911 36.7491 66.0407C36.7629 66.2522 36.8582 66.4502 37.0149 66.5929C37.1716 66.7357 37.3775 66.8122 37.5894 66.8063C37.8019 66.8063 38.3148 66.7221 38.466 65.8856C38.4877 65.0179 38.4928 64.1247 38.4814 63.2059C38.4718 62.2891 38.4699 61.4144 38.4814 60.5875C38.4928 59.7606 38.4948 58.8648 38.512 57.9078C38.512 57.4408 38.5254 57.0082 38.5369 56.6101C39.2451 57.7241 39.7312 58.482 39.9935 58.8936C40.3303 59.4103 41.096 60.5722 42.2903 62.3791C43.4771 64.1764 44.2044 65.2502 44.4456 65.5526C44.9987 66.2436 45.4543 66.5881 45.9366 66.6417C46.7195 66.6187 47.1999 66.1593 47.2899 65.3439C47.3549 64.7027 47.4105 63.5122 47.4564 61.8048C47.5023 60.0975 47.5234 58.8859 47.5234 58.1834V54.1888C47.5271 53.9669 47.4577 53.75 47.3259 53.5715C47.1941 53.393 47.0072 53.2629 46.7941 53.2011Z" fill="#111111"/>
	<path d="M54.3144 55.2735C54.6972 55.285 55.0571 55.2984 55.3882 55.3137C55.7194 55.3291 56.018 55.3425 56.2744 55.3597L56.9386 55.398C57.1511 55.3865 57.3534 55.3035 57.5128 55.1625C57.6007 55.0793 57.6697 54.9781 57.7149 54.8658C57.7602 54.7534 57.7807 54.6327 57.7751 54.5118C57.7734 54.3736 57.7312 54.2389 57.6536 54.1246C57.576 54.0102 57.4665 53.9212 57.3387 53.8686C57.0956 53.7607 56.8374 53.6909 56.573 53.6619C56.2212 53.6118 55.8661 53.5868 55.5107 53.5873C54.6953 53.5777 53.5967 53.5873 52.8195 53.5873H52.1267L50.3466 53.6332C50.0758 53.6322 49.8088 53.6979 49.5695 53.8246C49.4682 53.8928 49.3865 53.9862 49.3324 54.0956C49.2784 54.2051 49.2539 54.3267 49.2613 54.4486C49.2506 54.6009 49.2874 54.7529 49.3665 54.8835C49.4457 55.014 49.5634 55.1169 49.7035 55.1778C49.7035 55.2525 49.7149 55.3233 49.7207 55.3941L49.7398 55.7482C49.7398 55.8707 49.7398 56.0009 49.7398 56.131V56.6325C49.7398 57.2489 49.7398 57.7261 49.7398 58.0643C49.7398 58.4011 49.7283 58.6557 49.7226 58.8299C49.7226 58.9045 49.7226 58.9658 49.7226 59.0213C49.5115 59.0144 49.3048 59.0822 49.1388 59.2127C49.0629 59.2898 49.004 59.3819 48.9658 59.4831C48.9275 59.5842 48.9109 59.6923 48.9168 59.8003C48.9168 60.0262 49.001 60.5104 49.6824 60.6501C49.6467 61.4464 49.609 62.198 49.5695 62.9049C49.5274 63.6169 49.4699 64.2696 49.3895 64.886C49.187 64.8997 48.9982 64.9933 48.8647 65.1462C48.7312 65.2992 48.6639 65.4988 48.6775 65.7014C48.6764 65.8219 48.7101 65.9403 48.7746 66.0421C48.8391 66.144 48.9317 66.2251 49.0412 66.2756C49.2219 66.3646 49.4158 66.4241 49.6154 66.4517C49.8202 66.4804 50.0556 66.5034 50.3083 66.5148C50.561 66.5263 50.8136 66.5302 51.0739 66.5302C51.1521 66.5295 51.2301 66.5238 51.3074 66.5129C51.4458 66.5207 51.5845 66.5207 51.7228 66.5129C51.84 66.5045 51.9577 66.5045 52.075 66.5129L53.5278 66.5876C53.6751 66.5991 53.8302 66.6067 53.9929 66.6125C54.1556 66.6182 54.3297 66.6125 54.5288 66.6125C55.2083 66.6234 55.8877 66.5844 56.5615 66.4957C57.2353 66.3943 57.6105 66.1225 57.6736 65.686C57.6774 65.653 57.6774 65.6196 57.6736 65.5865C57.6353 65.3166 57.4612 64.8745 56.5405 64.9051L54.9059 64.9491H54.6111C54.3249 64.9646 54.038 64.9646 53.7517 64.9491C53.6005 64.9491 53.4244 64.9357 53.1775 64.9243C52.9555 64.9089 52.6645 64.8821 52.3085 64.8458L51.1601 64.7328C51.1601 64.5089 51.1754 64.2658 51.1964 64.0017C51.2194 63.6048 51.2494 63.1914 51.2864 62.7614L51.3859 61.4904C51.4089 61.1918 51.4223 60.9162 51.4357 60.6444C51.7742 60.624 52.1136 60.624 52.452 60.6444C52.6722 60.6559 52.9038 60.6616 53.1526 60.6674C53.4014 60.6731 53.6388 60.6808 53.8914 60.6923C54.2934 60.7057 54.6571 60.7152 55.0935 60.6923C55.2179 60.6923 55.3442 60.6923 55.4763 60.6769C55.5033 60.6831 55.5309 60.6863 55.5586 60.6865C55.9414 60.6865 56.3529 60.4568 56.351 59.7678C56.331 59.5928 56.2546 59.4291 56.1335 59.3014C56.0123 59.1736 55.8528 59.0887 55.6792 59.0596C55.3137 58.9931 54.9423 58.9642 54.5709 58.9734H53.5967C53.2942 58.9734 53.0416 58.9734 52.831 58.9734C52.6205 58.9734 52.4291 58.9734 52.274 58.9734H51.4433V57.1072C51.4433 56.8756 51.4433 56.6574 51.4433 56.4469C51.4433 56.2363 51.4433 56.02 51.4433 55.8133C51.4433 55.6583 51.4433 55.5052 51.4433 55.3501C51.4433 55.3195 51.4433 55.2869 51.4433 55.2563C51.6596 55.2429 51.8683 55.2334 52.0731 55.2295C52.7181 55.2582 53.5641 55.2621 54.3144 55.2735Z" fill="#111111"/>
	<path d="M73.2357 53.5971C72.9939 53.5094 72.7274 53.5197 72.493 53.6258C72.381 53.664 72.2788 53.7263 72.1934 53.8083C72.1081 53.8903 72.0418 53.9901 71.9992 54.1005C71.7159 55.157 71.4613 56.1849 71.2336 57.1764L70.1617 61.8696C70.0603 62.3194 69.9703 62.7559 69.8746 63.1884C69.8593 63.2765 69.8421 63.3645 69.8229 63.4545L69.5722 62.9205C69.1989 62.1376 68.8506 61.4218 68.5175 60.7671C68.2879 60.2923 68.027 59.8332 67.7366 59.3929C67.6518 59.2512 67.5359 59.1306 67.3976 59.0404C67.2593 58.9502 67.1023 58.8927 66.9384 58.8722C66.7145 58.855 66.4159 58.9277 66.1135 59.3488C65.2521 61.1844 64.6109 62.5587 64.1994 63.4583C64.1515 63.2459 64.1056 63.0334 64.0558 62.8209C63.9621 62.3903 63.8644 61.9443 63.7458 61.4811C63.6182 60.9605 63.4803 60.4048 63.3323 59.8139C63.1811 59.2225 63.0127 58.6062 62.8289 57.9726C62.6452 57.3391 62.4691 56.6825 62.2547 56.0394C62.0403 55.3963 61.8451 54.7666 61.6116 54.1043C61.3953 53.6545 61.2479 53.4727 61.068 53.421C60.9235 53.3698 60.7674 53.3611 60.6182 53.3961C60.3647 53.4336 60.1313 53.5557 59.9559 53.7425C59.8469 53.8551 59.775 53.9984 59.75 54.1531C59.725 54.3079 59.7481 54.4665 59.8162 54.6077C59.8188 54.6168 59.822 54.6258 59.8258 54.6345C59.9885 55.1379 60.1492 55.6604 60.3043 56.1964L60.8038 57.9592C60.8065 57.9744 60.811 57.9892 60.8172 58.0032L61.7532 61.5883C62.115 62.9894 62.4767 64.4804 62.8404 66.071C62.9115 66.2862 63.0488 66.4734 63.2328 66.6057C63.4167 66.7381 63.6378 66.8089 63.8644 66.8079H63.9372C64.4999 66.8079 64.8942 66.1303 65.1507 65.6193C65.4876 64.9443 65.7657 64.3771 65.9852 63.9177C66.2034 63.4583 66.4293 62.9721 66.6551 62.4573C66.7604 62.218 66.8619 61.996 66.9595 61.7893L69.0649 65.9657C69.1316 66.1688 69.2435 66.354 69.3922 66.5074C69.5898 66.6892 69.8473 66.7921 70.1158 66.7964C70.3703 66.797 70.6196 66.7239 70.8335 66.5859C71.0422 66.4252 71.1835 66.1925 71.2297 65.9332C71.3542 65.2671 71.4805 64.5934 71.624 63.9196C71.7676 63.2459 71.9073 62.5798 72.0547 61.9175C72.2021 61.2552 72.3495 60.6198 72.493 60.0034L73.3907 56.3763C73.5477 55.7619 73.6893 55.203 73.8176 54.6536C73.8551 54.427 73.8217 54.1944 73.7219 53.9875C73.6119 53.8032 73.4394 53.6646 73.2357 53.5971Z" fill="#111111"/>
	<path d="M56 1V7" stroke="#111111" stroke-linecap="round"/>
	<path d="M56 97V105" stroke="#111111" stroke-linecap="round"/>
	<path d="M76.7168 6.3457L70.0362 18.3843" stroke="#111111" stroke-linecap="round"/>
	<path d="M88.5156 23L81.0003 29.9008" stroke="#111111" stroke-linecap="round"/>
	<path d="M109 34L105 36.3396" stroke="#111111" stroke-linecap="round"/>
	<path d="M107 57L100.687 56.03" stroke="#111111" stroke-linecap="round"/>
	<path d="M96.2383 94.7773L91.9995 90" stroke="#111111" stroke-linecap="round"/>
	<path d="M15 96.7773L19.2388 92" stroke="#111111" stroke-linecap="round"/>
	<path d="M2.92578 56.3936L9.31248 56.3839" stroke="#111111" stroke-linecap="round"/>
	<path d="M22 22L27.3867 28.0001" stroke="#111111" stroke-linecap="round"/>
	<path d="M34 4L38.3867 14.0001" stroke="#111111" stroke-linecap="round"/>
	<path d="M1.16016 34.0078L7.22766 36.0017" stroke="#111111" stroke-linecap="round"/>
	<path d="M5 77L18.2388 71" stroke="#111111" stroke-linecap="round"/>
	<path d="M78 110L73.9995 102" stroke="#111111" stroke-linecap="round"/>
	<path d="M33 110L37.0005 102" stroke="#111111" stroke-linecap="round"/>
	<path d="M106 78L90.9999 70.9997" stroke="#111111" stroke-linecap="round"/>
</svg>