<svg id="catalog-ceiling-lamp1" width="92" height="39" viewBox="0 0 92 39" fill="none" xmlns="http://www.w3.org/2000/svg">
	<path d="M91.5 19.2152C91.5 21.6945 90.2992 24.1015 88.0338 26.3389C85.7665 28.578 82.4601 30.6175 78.3342 32.341C70.0845 35.7871 58.6529 37.9304 46 37.9304C33.3471 37.9304 21.9155 35.7871 13.6658 32.341C9.53987 30.6175 6.23351 28.578 3.96625 26.3389C1.70078 24.1015 0.5 21.6945 0.5 19.2152C0.5 16.7358 1.70078 14.3289 3.96625 12.0915C6.23351 9.85236 9.53987 7.81286 13.6658 6.08936C21.9155 2.64328 33.3471 0.5 46 0.5C58.6529 0.5 70.0845 2.64328 78.3342 6.08936C82.4601 7.81286 85.7665 9.85236 88.0338 12.0915C90.2992 14.3289 91.5 16.7358 91.5 19.2152Z" stroke="#111111"/>
	<path d="M91.5 21.5443C91.5 23.6771 90.3241 25.7722 88.0574 27.7395C85.7919 29.7057 82.4847 31.4991 78.3546 33.0152C70.0985 36.0459 58.6595 37.9304 46 37.9304C33.3405 37.9304 21.9015 36.0459 13.6454 33.0152C9.51533 31.4991 6.20811 29.7057 3.94264 27.7395C1.67588 25.7722 0.5 23.6771 0.5 21.5443C0.5 19.4114 1.67588 17.3164 3.94264 15.3491C6.20811 13.3829 9.51533 11.5895 13.6454 10.0734C21.9015 7.04266 33.3405 5.1582 46 5.1582C58.6595 5.1582 70.0985 7.04266 78.3546 10.0734C82.4847 11.5895 85.7919 13.3829 88.0574 15.3491C90.3241 17.3164 91.5 19.4114 91.5 21.5443Z" fill="#F9F3EA" stroke="#111111"/>
	<path d="M80.3553 10.481C71.2511 6.8643 59.2113 4.6582 46.0009 4.6582C32.7905 4.6582 20.7507 6.8643 11.6465 10.481H80.3553Z" fill="#111111"/>
</svg>