<svg id="catalog-sconce1" width="68" height="62" viewBox="0 0 68 62" fill="none" xmlns="http://www.w3.org/2000/svg">
	<ellipse cx="29.1536" cy="46.6219" rx="7.49435" ry="2" transform="rotate(89.4686 29.1536 46.6219)" fill="#111111"/>
	<ellipse cx="65.0696" cy="46.6219" rx="7.49435" ry="2" transform="rotate(89.4686 65.0696 46.6219)" fill="#111111"/>
	<path d="M13 46L13 47L28 47L28 46L13 46Z" fill="#111111"/>
	<path d="M50 46L50 47L65 47L65 46L50 46Z" fill="#111111"/>
	<path d="M0.513215 28.0009L0.513491 27.9988L3.92784 1.62794C3.92786 1.62782 3.92787 1.62769 3.92789 1.62757C4.01715 0.947388 4.53694 0.5 5.07715 0.5H21.9227C22.4679 0.5 22.9888 0.944149 23.0714 1.62341L23.0719 1.62721L26.4864 27.9988L26.4867 28.0014C26.5992 28.8357 26.0027 29.5 25.3445 29.5H1.6627C1.00066 29.5 0.400981 28.8394 0.513215 28.0009Z" fill="#F9F3EA" stroke="#111111"/>
	<path d="M37.5132 28.0009L37.5135 27.9988L40.9278 1.62794C40.9279 1.62782 40.9279 1.62769 40.9279 1.62757C41.0171 0.947388 41.5369 0.5 42.0771 0.5H58.9227C59.4679 0.5 59.9888 0.944149 60.0714 1.62341L60.0719 1.62721L63.4864 27.9988L63.4867 28.0014C63.5992 28.8357 63.0027 29.5 62.3445 29.5H38.6627C38.0007 29.5 37.401 28.8394 37.5132 28.0009Z" fill="#F9F3EA" stroke="#111111"/>
	<path d="M13 30L13 61" stroke="#111111" stroke-linecap="round"/>
	<path d="M50 30L50 61" stroke="#111111" stroke-linecap="round"/>
	<path d="M4.55001 2.5C4.78164 1.35888 5.79052 0.5 7 0.5H20C21.2095 0.5 22.2184 1.35888 22.45 2.5H4.55001Z" fill="#111111" stroke="#111111"/>
	<path d="M41.55 2.5C41.7816 1.35888 42.7905 0.5 44 0.5H57C58.2095 0.5 59.2184 1.35888 59.45 2.5H41.55Z" fill="#111111" stroke="#111111"/>
</svg>