<svg id="catalog-ceiling-chandelier1" width="107" height="49" viewBox="0 0 107 49" fill="none" xmlns="http://www.w3.org/2000/svg">
	<path d="M7.93879 33.1519C5.96292 34.2926 3.43611 33.6156 2.29534 31.6397C1.15457 29.6638 1.83162 27.137 3.8075 25.9963C4.84377 25.398 6.03117 25.3005 7.09121 25.6274L9.90006 30.4925C9.65316 31.574 8.97506 32.5536 7.93879 33.1519Z" fill="#F9F3EA" stroke="#111111" stroke-width="0.329186"/>
	<path d="M27.8237 44.5636C26.4783 46.4063 23.8936 46.8094 22.051 45.464C20.2083 44.1186 19.8052 41.5339 21.1506 39.6913C21.8562 38.7249 22.9026 38.1554 24.0043 38.0254L28.5414 41.3381C28.7531 42.427 28.5293 43.5972 27.8237 44.5636Z" fill="#F9F3EA" stroke="#111111" stroke-width="0.329186"/>
	<path d="M4.19192 10.4069C1.98812 9.81643 0.680148 7.55096 1.27066 5.34716C1.86116 3.14335 4.12663 1.83538 6.33044 2.42589C7.48625 2.73559 8.39477 3.5063 8.91317 4.48703L7.45921 9.91331C6.51989 10.5034 5.34773 10.7166 4.19192 10.4069Z" fill="#F9F3EA" stroke="#111111" stroke-width="0.329186"/>
	<path d="M7.60175 10.0171C8.46061 9.45909 9.12487 8.59479 9.41078 7.52777C9.69669 6.46076 9.55356 5.38012 9.08878 4.46743L7.60175 10.0171Z" fill="#111111"/>
	<path d="M95.0085 32.7051C96.9844 33.8459 99.5112 33.1688 100.652 31.1929C101.793 29.2171 101.116 26.6903 99.1398 25.5495C98.1035 24.9512 96.9161 24.8537 95.8561 25.1807L93.0472 30.0457C93.2941 31.1272 93.9722 32.1068 95.0085 32.7051Z" fill="#F9F3EA" stroke="#111111" stroke-width="0.329186"/>
	<path d="M92.8756 30.018C92.6628 29.0161 92.8043 27.9352 93.3566 26.9786C93.9089 26.0219 94.7743 25.359 95.7483 25.0423L92.8756 30.018Z" fill="#111111"/>
	<path d="M101.857 9.72735C103.963 8.84889 104.958 6.42953 104.079 4.32389C103.201 2.21824 100.782 1.22331 98.676 2.10178C97.5717 2.5625 96.7738 3.44724 96.3905 4.48822L98.5535 9.67281C99.5629 10.1327 100.753 10.1881 101.857 9.72735Z" fill="#F9F3EA" stroke="#111111" stroke-width="0.329186"/>
	<path d="M98.4256 9.79526C97.5001 9.35646 96.7267 8.58822 96.3014 7.56873C95.8761 6.54924 95.8742 5.45917 96.2134 4.49275L98.4256 9.79526Z" fill="#111111"/>
	<path d="M79.5291 45.0631C81.3299 46.464 83.9257 46.1398 85.3266 44.339C86.7275 42.5382 86.4033 39.9425 84.6025 38.5415C83.6581 37.8068 82.4953 37.5475 81.4004 37.7259L77.951 42.1599C78.0473 43.265 78.5847 44.3283 79.5291 45.0631Z" fill="#F9F3EA" stroke="#111111" stroke-width="0.329186"/>
	<path d="M77.7823 42.1091C77.7089 41.0875 77.9972 40.0363 78.6755 39.1644C79.3538 38.2925 80.3019 37.7545 81.3101 37.5743L77.7823 42.1091Z" fill="#111111"/>
	<path d="M10.0737 30.4648C10.2864 29.4629 10.1449 28.382 9.59262 27.4254C9.04029 26.4687 8.17496 25.8058 7.20093 25.4891L10.0737 30.4648Z" fill="#111111"/>
	<path d="M28.689 41.2428C28.4781 40.2405 27.9115 39.3093 27.0193 38.6579C26.1272 38.0065 25.0676 37.7503 24.0487 37.8548L28.689 41.2428Z" fill="#111111"/>
	<line x1="71.4971" y1="13.7358" x2="96.7192" y2="7.6004" stroke="black"/>
	<line x1="69.467" y1="19.1636" x2="94.0542" y2="27.4862" stroke="black"/>
	<line x1="59.2323" y1="22.7201" x2="79.0861" y2="39.4421" stroke="black"/>
	<line y1="-0.5" x2="25.9576" y2="-0.5" transform="matrix(-0.971665 -0.236364 -0.236364 0.971665 33.3086 13.4644)" stroke="black"/>
	<line y1="-0.5" x2="25.9576" y2="-0.5" transform="matrix(-0.947207 0.320622 0.320622 0.947207 33.9844 19.6372)" stroke="black"/>
	<line y1="-0.5" x2="25.9576" y2="-0.5" transform="matrix(-0.764856 0.644202 0.644202 0.764856 46.6875 23.1025)" stroke="black"/>
	<path d="M72.275 14.4394C72.275 16.8442 70.1924 19.1729 66.4717 20.9299C62.7896 22.6687 57.6677 23.7578 51.9832 23.7578C46.2987 23.7578 41.1768 22.6687 37.4947 20.9299C33.774 19.1729 31.6914 16.8442 31.6914 14.4394C31.6914 12.0347 33.774 9.70595 37.4947 7.94894C41.1768 6.21018 46.2987 5.12109 51.9832 5.12109C57.6677 5.12109 62.7896 6.21018 66.4717 7.94894C70.1924 9.70595 72.275 12.0347 72.275 14.4394Z" stroke="#111111"/>
	<path d="M72.275 16.1716C72.275 17.1008 71.7927 18.0406 70.8026 18.9509C69.8122 19.8616 68.3513 20.7047 66.504 21.4231C62.8125 22.8587 57.6788 23.7573 51.9832 23.7573C46.2876 23.7573 41.1539 22.8587 37.4624 21.4231C35.6151 20.7047 34.1542 19.8616 33.1637 18.9509C32.1737 18.0406 31.6914 17.1008 31.6914 16.1716C31.6914 15.2424 32.1737 14.3027 33.1637 13.3924C34.1542 12.4817 35.6151 11.6386 37.4624 10.9202C41.1539 9.48461 46.2876 8.58594 51.9832 8.58594C57.6788 8.58594 62.8125 9.48461 66.504 10.9202C68.3513 11.6386 69.8122 12.4817 70.8026 13.3924C71.7927 14.3027 72.275 15.2424 72.275 16.1716Z" fill="#F9F3EA" stroke="#111111"/>
	<path d="M67.0002 11.5512C62.8677 9.39885 57.4027 8.08594 51.4063 8.08594C45.41 8.08594 39.945 9.39885 35.8125 11.5512H67.0002Z" fill="#111111"/>
</svg>