<svg id="catalog-pendant-lamp1" width="68" height="152" viewBox="0 0 68 152" fill="none" xmlns="http://www.w3.org/2000/svg">
	<path d="M16 0H15V85H16V0Z" fill="#111111"/>
	<path d="M53 0H52V98H53V0Z" fill="#111111"/>
	<path d="M16.7332 82.3237H14.2734V84.7835H16.7332V82.3237Z" fill="#111111"/>
	<path d="M17.6474 81H13.353C5.99007 81 0 86.9901 0 94.353V126.641C0 134.004 5.99007 139.994 13.353 139.994H17.6474C25.0104 139.994 31.0004 134.004 31.0004 126.641V94.353C31.0045 86.9901 25.0104 81 17.6474 81ZM29.4886 126.641C29.4886 133.17 24.1768 138.482 17.6474 138.482H13.353C6.82361 138.482 1.51182 133.17 1.51182 126.641V94.353C1.51182 87.8236 6.82361 82.5118 13.353 82.5118H17.6474C24.1768 82.5118 29.4886 87.8236 29.4886 94.353V126.641Z" fill="#111111"/>
	<path d="M53.7332 94.3306H51.2734V96.7903H53.7332V94.3306Z" fill="#111111"/>
	<path d="M54.6474 93.0068H50.353C42.9901 93.0068 37 98.9969 37 106.36V138.647C37 146.01 42.9901 152 50.353 152H54.6474C62.0104 152 68.0004 146.01 68.0004 138.647V106.36C68.0045 98.9969 62.0104 93.0068 54.6474 93.0068ZM66.4886 138.647C66.4886 145.177 61.1768 150.489 54.6474 150.489H50.353C43.8236 150.489 38.5118 145.177 38.5118 138.647V106.36C38.5118 99.8304 43.8236 94.5187 50.353 94.5187H54.6474C61.1768 94.5187 66.4886 99.8304 66.4886 106.36V138.647Z" fill="#111111"/>
	<path d="M25.5 95.6452C25.5 101.255 21.0164 105.79 15.5 105.79C9.9836 105.79 5.5 101.255 5.5 95.6452C5.5 90.0356 9.9836 85.5 15.5 85.5C21.0164 85.5 25.5 90.0356 25.5 95.6452Z" stroke="#111111"/>
	<path d="M25.5 96.9349C25.5 101.773 21.0787 105.79 15.5 105.79C9.9213 105.79 5.5 101.773 5.5 96.9349C5.5 92.0972 9.9213 88.0801 15.5 88.0801C21.0787 88.0801 25.5 92.0972 25.5 96.9349Z" fill="#F9F3EA" stroke="#111111"/>
	<path d="M23.3417 90.8059C21.2636 88.8022 18.5154 87.5801 15.5 87.5801C12.4846 87.5801 9.73634 88.8022 7.6582 90.8059H23.3417Z" fill="#111111"/>
	<path d="M62.5 107.645C62.5 113.255 58.0164 117.79 52.5 117.79C46.9836 117.79 42.5 113.255 42.5 107.645C42.5 102.036 46.9836 97.5 52.5 97.5C58.0164 97.5 62.5 102.036 62.5 107.645Z" stroke="#111111"/>
	<path d="M62.5 108.935C62.5 113.773 58.0787 117.79 52.5 117.79C46.9213 117.79 42.5 113.773 42.5 108.935C42.5 104.097 46.9213 100.08 52.5 100.08C58.0787 100.08 62.5 104.097 62.5 108.935Z" fill="#F9F3EA" stroke="#111111"/>
	<path d="M60.3417 102.806C58.2636 100.802 55.5154 99.5801 52.5 99.5801C49.4846 99.5801 46.7363 100.802 44.6582 102.806H60.3417Z" fill="#111111"/>
</svg>