<svg width="62" height="62" viewBox="0 0 62 62" fill="none" xmlns="http://www.w3.org/2000/svg">
<path d="M56.1627 41.3039L49.7689 26.178C49.6285 25.845 49.3657 25.5859 49.029 25.4491C48.6924 25.3122 48.3231 25.3146 47.9901 25.4563L44.9482 26.7423C44.6152 26.8828 44.356 27.1456 44.2192 27.4822C44.0824 27.8189 44.0848 28.187 44.2265 28.5212L44.3899 28.9063C41.6932 29.8823 39.2108 29.295 36.8046 28.7246C34.5947 28.2003 32.5058 27.7063 30.6385 28.6544C30.6155 28.6665 30.5925 28.6798 30.5695 28.6944C29.5814 29.3398 28.7652 29.9852 28.0689 30.5713C27.2758 30.1112 26.1932 30.2105 25.0597 30.3158C23.402 30.4708 21.3724 30.6585 19.418 29.3568L19.5645 29.1134C19.751 28.8034 19.8067 28.4389 19.7195 28.0865C19.6323 27.7341 19.4144 27.4374 19.1044 27.2497L16.278 25.5423C15.6374 25.156 14.8007 25.3619 14.4144 26.0025L5.92572 40.0602C5.73923 40.3702 5.68353 40.7347 5.77072 41.0871C5.85791 41.4395 6.07588 41.7362 6.38588 41.9239L9.2122 43.6313C9.43138 43.7633 9.67236 43.8263 9.91091 43.8263C10.3711 43.8263 10.8203 43.5925 11.0746 43.1711L11.6595 42.2012C13.3984 42.579 14.6009 43.446 15.0283 43.9873L13.7411 45.4513C12.6028 46.747 12.73 48.7281 14.0257 49.8676C14.5997 50.3726 15.3238 50.6438 16.0855 50.6438C16.1545 50.6438 16.2235 50.6414 16.2926 50.6366C16.41 50.6293 16.5263 50.6148 16.6401 50.5942C16.6353 51.4697 16.9937 52.3416 17.7009 52.964C18.2749 53.4689 18.999 53.7402 19.7607 53.7402C19.8297 53.7402 19.8987 53.7378 19.9677 53.7329C20.0634 53.7269 20.1579 53.716 20.2511 53.7014C20.2487 53.7959 20.2499 53.8904 20.256 53.986C20.3104 54.8216 20.6846 55.5857 21.3107 56.1354C21.904 56.6561 22.6403 56.9128 23.3741 56.9128C23.5436 56.9128 23.7132 56.8983 23.8815 56.8717C23.8803 56.9589 23.8815 57.0473 23.8863 57.1357C23.9408 57.9712 24.315 58.7353 24.9411 59.2851C25.5344 59.8058 26.2707 60.0625 27.0045 60.0625C27.7178 60.0625 28.4274 59.8203 29.0001 59.3456L29.1176 59.4413C29.7303 59.9402 30.4629 60.1848 31.1847 60.1836C32.0529 60.1836 32.9042 59.83 33.5121 59.1373C33.9674 58.6191 34.2205 57.9906 34.2762 57.35C34.6492 57.5026 35.0488 57.5849 35.4605 57.5849C35.5295 57.5849 35.5985 57.5825 35.6676 57.5777C36.5031 57.5232 37.2672 57.149 37.817 56.5229C38.2771 55.9998 38.529 55.3604 38.5799 54.7102C38.9371 54.8494 39.3185 54.9221 39.7097 54.9221C39.7787 54.9221 39.8477 54.9196 39.9167 54.9148C40.7523 54.8603 41.5164 54.4861 42.0662 53.8601C42.559 53.2994 42.8157 52.6152 42.846 51.9262C43.1354 52.011 43.4333 52.0558 43.7312 52.0558C44.6006 52.0558 45.4665 51.6961 46.084 50.9938C47.0782 49.8616 47.1073 48.2074 46.2354 47.0473C47.7757 46.2191 48.2783 45.4126 48.696 44.7429C49.0702 44.1435 49.356 43.6858 50.441 43.228L50.6166 43.6422C50.8358 44.1593 51.3395 44.4705 51.8687 44.4705C52.0443 44.4705 52.2235 44.4366 52.3954 44.3639L55.4361 43.0779C55.7691 42.9374 56.0283 42.6746 56.1651 42.338C56.3056 42.005 56.3031 41.6369 56.1627 41.3039ZM9.88064 42.3392L7.21779 40.7311L15.6072 26.838L18.27 28.4461L9.88064 42.3392ZM16.2005 49.1883C15.7513 49.2161 15.3214 49.072 14.986 48.7778C14.2921 48.1675 14.2231 47.1067 14.8334 46.4128L17.386 43.509C17.7166 43.1324 18.1804 42.9398 18.6466 42.9398C19.0402 42.9398 19.4337 43.0767 19.7522 43.3564C20.0864 43.6507 20.2862 44.0588 20.3153 44.508C20.3444 44.9561 20.199 45.3871 19.9048 45.7226L17.3521 48.6276C17.0591 48.9582 16.6498 49.1592 16.2005 49.1883ZM19.8769 52.2834C19.4289 52.3125 18.9966 52.166 18.6624 51.8729C17.9685 51.2626 17.8995 50.2018 18.5098 49.508L20.9958 46.6792C21.0176 46.6538 21.0394 46.6284 21.06 46.6017L21.0624 46.6029C21.3567 46.2687 21.7648 46.0689 22.214 46.0398C22.6621 46.0096 23.0932 46.1561 23.4286 46.4504C24.1225 47.0607 24.1915 48.1214 23.5812 48.8153L21.0285 51.7203C20.7343 52.0546 20.3262 52.2556 19.8769 52.2834ZM22.2722 55.0456C21.5783 54.4353 21.5093 53.3745 22.1196 52.6806L23.8803 50.6777C24.1745 50.3435 24.5826 50.1437 25.0319 50.1147C25.4799 50.0868 25.9122 50.2309 26.2465 50.5252C26.9403 51.1355 27.0094 52.1962 26.399 52.8901L24.6383 54.893C24.3441 55.2272 23.936 55.427 23.4867 55.4561C23.0387 55.4852 22.6064 55.3386 22.2722 55.0456ZM25.9026 58.194C25.2087 57.5837 25.1397 56.5229 25.75 55.8291L26.0212 55.5203C26.6315 54.8264 27.6923 54.7574 28.3862 55.3677C29.0801 55.978 29.1491 57.0388 28.5388 57.7327L28.2675 58.0414C27.6584 58.7353 26.5976 58.8043 25.9026 58.194ZM44.9978 50.0384C44.3875 50.7322 43.3267 50.8013 42.6329 50.1909L35.8964 44.2707C35.5949 44.0055 35.136 44.0357 34.8708 44.3373C34.6056 44.6388 34.6358 45.0977 34.9374 45.3629L40.8697 50.576C40.8722 50.5784 40.8734 50.5809 40.8758 50.5821C41.5212 51.1936 41.5685 52.2362 40.9811 52.9047C40.6869 53.2389 40.2788 53.4387 39.8295 53.4677C39.3803 53.4956 38.9492 53.3503 38.615 53.0572L33.902 48.9158C33.6005 48.6506 33.1415 48.6809 32.8763 48.9824C32.6111 49.2839 32.6414 49.7429 32.9429 50.0081L36.5939 53.2171C36.5939 53.2171 36.5939 53.2183 36.5951 53.2183C37.2708 53.8298 37.3314 54.8833 36.7295 55.5675C36.4353 55.9017 36.0272 56.1015 35.5779 56.1306C35.1311 56.1584 34.6976 56.0131 34.3634 55.7201L31.9088 53.5622C31.6073 53.297 31.1483 53.3273 30.8831 53.6288C30.6179 53.9303 30.6482 54.3893 30.9497 54.6545L32.2709 55.8145C32.9647 56.4248 33.0338 57.4856 32.4235 58.1795C31.8277 58.8576 30.779 58.917 30.0367 58.3139L29.9556 58.2473C30.7269 56.9758 30.5017 55.2902 29.3453 54.2754C28.8742 53.8613 28.3123 53.6155 27.7323 53.5319C28.5993 52.2471 28.3983 50.4828 27.2043 49.4329C26.6703 48.963 26.0055 48.6954 25.3007 48.6615C25.6652 47.5136 25.3479 46.2045 24.3865 45.3593C23.7604 44.8095 22.9551 44.5359 22.1196 44.5904C22.0009 44.5976 21.8847 44.6121 21.7708 44.6327C21.7708 44.5601 21.7696 44.4862 21.7648 44.4123C21.7103 43.5768 21.3361 42.8127 20.7101 42.2629C19.4144 41.1234 17.4333 41.2518 16.2938 42.5475L15.9922 42.8902C15.279 42.1007 14.022 41.3245 12.4466 40.897L18.6636 30.6016C21.0188 32.1492 23.4068 31.9276 25.1929 31.7617C25.796 31.706 26.3542 31.6539 26.7793 31.6878C26.4669 31.9591 26.1799 32.2025 25.905 32.4107C23.3342 34.3628 23.6538 36.4807 23.936 38.3492C24.1431 39.7175 24.338 41.0096 23.4867 42.3332C23.3656 42.5209 23.3378 42.7546 23.4117 42.9665C23.4855 43.1784 23.6526 43.3431 23.8645 43.4145C25.1615 43.8529 26.6352 43.5429 27.9067 42.5632C29.3501 41.4516 30.2171 39.7466 30.1142 38.2196C30.0718 37.5911 30.429 36.6502 30.9691 36.3305C31.0854 36.2627 31.4305 36.0581 32.0868 36.4601L44.8452 47.671C45.5391 48.2825 45.6081 49.3433 44.9978 50.0384ZM47.4681 43.9788C47.0576 44.6376 46.6665 45.2624 45.1274 45.9866L33.0035 35.3327C32.9756 35.3085 32.9466 35.2867 32.9163 35.2673C31.6654 34.4645 30.6967 34.806 30.2304 35.0821C29.1164 35.7408 28.592 37.2412 28.6647 38.3189C28.7349 39.3591 28.0738 40.6027 27.0215 41.4141C26.4366 41.8645 25.8069 42.1164 25.2063 42.1527C25.7633 40.7226 25.5586 39.3615 25.3734 38.1348C25.1094 36.3838 24.8999 35.0009 26.7841 33.5708C27.2043 33.2523 27.6415 32.8685 28.104 32.4628C28.9808 31.6951 29.9725 30.8256 31.3288 29.9356C32.7165 29.2514 34.4566 29.6643 36.468 30.1414C38.9892 30.7384 41.8252 31.4105 44.9554 30.2492L49.8791 41.8972C48.3654 42.539 47.9101 43.2692 47.4681 43.9788ZM51.922 42.9919L45.6021 28.0429L48.4672 26.832L54.787 41.781L51.922 42.9919ZM34.1696 17.2764C34.1987 17.2764 34.2278 17.2764 34.2556 17.2752V21.1393C34.2556 21.5402 34.5813 21.8659 34.9822 21.8659H49.8973C50.2981 21.8659 50.6238 21.5402 50.6238 21.1393V6.22422C50.6238 5.8234 50.2981 5.49766 49.8973 5.49766H44.5135C44.2592 5.49766 44.023 5.63086 43.891 5.84883C43.7603 6.0668 43.7518 6.33805 43.8717 6.56328C44.0351 6.87328 44.1187 7.20871 44.1187 7.5623C44.1187 8.74297 43.1584 9.70445 41.9765 9.70445C40.7947 9.70445 39.8344 8.74418 39.8344 7.5623C39.8344 7.20871 39.9179 6.87328 40.0814 6.56328C40.2001 6.33805 40.1928 6.0668 40.062 5.84883C39.9301 5.63086 39.6939 5.49766 39.4396 5.49766H34.981C34.5801 5.49766 34.2544 5.8234 34.2544 6.22422V10.0883C34.2253 10.0871 34.1963 10.0871 34.1684 10.0871C32.1861 10.0871 30.5731 11.7001 30.5731 13.6824C30.5744 15.6647 32.1873 17.2764 34.1696 17.2764ZM34.1696 11.5402C34.3767 11.5402 34.5801 11.5693 34.7763 11.6274C34.9967 11.6928 35.234 11.6492 35.4169 11.5124C35.601 11.3755 35.7087 11.16 35.7087 10.9299V6.95078H38.4358C38.4006 7.15301 38.3837 7.35766 38.3837 7.5623C38.3837 9.54461 39.9967 11.1576 41.979 11.1576C43.9613 11.1576 45.5742 9.54461 45.5742 7.5623C45.5742 7.35645 45.5561 7.1518 45.5222 6.95078H49.1744V20.4128H35.7087V16.4324C35.7087 16.2036 35.601 15.988 35.4169 15.85C35.2328 15.7131 34.9955 15.6707 34.7763 15.7349C34.5801 15.793 34.3755 15.8221 34.1684 15.8221C32.9878 15.8221 32.0263 14.8618 32.0263 13.68C32.0263 12.4981 32.989 11.5402 34.1696 11.5402ZM12.7748 21.8659H27.6899C28.0907 21.8659 28.4165 21.5402 28.4165 21.1393V15.7555C28.4165 15.5012 28.2833 15.2651 28.0653 15.1331C27.8473 15.0023 27.5761 14.9938 27.3508 15.1125C27.0408 15.276 26.7054 15.3595 26.3518 15.3595C25.1711 15.3595 24.2097 14.3993 24.2097 13.2174C24.2097 12.0355 25.1699 11.0752 26.3518 11.0752C26.7042 11.0752 27.0408 11.1588 27.3508 11.3223C27.5761 11.4409 27.8473 11.4337 28.0653 11.3017C28.2833 11.1709 28.4165 10.9336 28.4165 10.6793V6.22422C28.4165 5.8234 28.0907 5.49766 27.6899 5.49766H23.8258C23.827 5.46859 23.827 5.43953 23.827 5.41168C23.827 3.42937 22.214 1.81641 20.2317 1.81641C18.2494 1.81641 16.6377 3.42937 16.6377 5.41168C16.6377 5.44074 16.6377 5.4698 16.6389 5.49766H12.7748C12.374 5.49766 12.0482 5.8234 12.0482 6.22422V21.1393C12.0482 21.5414 12.374 21.8659 12.7748 21.8659ZM13.5013 6.95078H17.4817C17.7106 6.95078 17.9261 6.84301 18.0642 6.65895C18.201 6.47488 18.2434 6.23754 18.1792 6.01836C18.1211 5.82219 18.092 5.61754 18.092 5.41168C18.092 4.23102 19.0523 3.26953 20.2329 3.26953C21.4136 3.26953 22.3751 4.2298 22.3751 5.41168C22.3751 5.61875 22.346 5.82219 22.2879 6.01836C22.2225 6.23875 22.2661 6.47609 22.4029 6.65895C22.5398 6.84301 22.7553 6.95078 22.9854 6.95078H26.9658V9.67781C26.7635 9.64269 26.5589 9.62574 26.3542 9.62574C24.3719 9.62574 22.759 11.2387 22.759 13.221C22.759 15.2033 24.3719 16.8163 26.3542 16.8163C26.5601 16.8163 26.7647 16.7981 26.9658 16.7642V20.4152H13.5013V6.95078Z" fill="#D0A567"/>
</svg>
