<svg width="74" height="74" viewBox="0 0 74 74" fill="none" xmlns="http://www.w3.org/2000/svg">
<path d="M11.9368 59.5062C11.6271 59.5062 11.3243 59.3835 11.1004 59.1553C10.7895 58.8393 10.6835 58.3743 10.827 57.9548L12.8305 52.084C7.09523 48.1101 3.69922 41.9537 3.69922 35.4459C3.69922 27.701 8.43315 20.604 16.0537 16.9235C16.6368 16.6428 17.3385 16.8865 17.6192 17.4696C17.901 18.0528 17.6564 18.7535 17.0734 19.0353C10.2703 22.3209 6.04443 28.609 6.04443 35.4459C6.04443 41.4344 9.34053 47.1065 14.8614 50.6182C15.3181 50.9088 15.5164 51.4738 15.3418 51.9861L13.801 56.5009L22.2694 53.7729C22.455 53.7134 22.6511 53.6996 22.843 53.7362C24.277 54.0024 25.7471 54.1371 27.2124 54.1371C38.8843 54.1371 48.3803 45.7524 48.3803 35.4459C48.3803 28.3579 43.9256 21.9637 36.7553 18.7581C36.1645 18.4938 35.8994 17.8004 36.1636 17.209C36.4284 16.6176 37.1222 16.3525 37.7127 16.6173C45.7391 20.2051 50.7255 27.42 50.7255 35.4459C50.7255 47.0455 40.1775 56.4823 27.2124 56.4823C25.7045 56.4823 24.1912 56.3522 22.7101 56.0953L12.2964 59.45C12.178 59.4879 12.0572 59.5062 11.9368 59.5062Z" fill="#D0A567"/>
<path d="M62.0623 65.7941C61.9419 65.7941 61.8209 65.7758 61.7028 65.7376L51.2891 62.3829C45.9638 63.3059 40.2985 62.5295 35.5554 60.2173C34.9733 59.9336 34.7315 59.2315 35.0155 58.6493C35.2989 58.0676 36.0003 57.8253 36.5834 58.1094C40.9679 60.2466 46.2399 60.9359 51.1564 60.024C51.3479 59.9882 51.5449 60.0012 51.7297 60.0607L60.1983 62.7888L58.6574 58.2732C58.4828 57.7611 58.6811 57.196 59.1378 56.9055C64.6587 53.3941 67.9548 47.7221 67.9548 41.7332C67.9548 32.9239 60.8757 25.2276 51.1225 23.4344C50.4852 23.3172 50.0643 22.7061 50.181 22.069C50.2984 21.4318 50.9071 21.0111 51.5466 21.1279C62.4128 23.1262 70.2999 31.792 70.2999 41.7332C70.2999 48.2415 66.9039 54.3978 61.1687 58.3712L63.1722 64.2426C63.3156 64.6622 63.2098 65.1272 62.8988 65.4432C62.6748 65.6713 62.3719 65.7941 62.0623 65.7941Z" fill="#D0A567"/>
<path d="M36.622 44.9055H16.6546C15.4975 44.9055 14.3932 44.41 13.6241 43.5462C12.855 42.6817 12.4908 41.5276 12.625 40.3782L14.0106 28.5174C14.2049 26.4091 15.9714 24.798 18.1176 24.798H19.5548C20.2936 24.798 20.9932 24.4073 21.3805 23.778C21.7214 23.2259 22.4442 23.0551 22.9939 23.3939C23.5453 23.7333 23.7172 24.4558 23.3776 25.0072C22.5665 26.3246 21.1016 27.1432 19.5547 27.1432H18.1174C17.1908 27.1432 16.4282 27.8385 16.3429 28.761L14.9545 40.6501C14.8968 41.1421 15.0466 41.6165 15.3759 41.9867C15.7046 42.3562 16.1591 42.56 16.6543 42.56H36.6216C37.1168 42.56 37.571 42.3562 37.9 41.9867C38.2293 41.6165 38.3789 41.1421 38.3215 40.6501L36.9353 28.7894C36.8474 27.8385 36.0848 27.143 35.1586 27.143H33.7208C32.1506 27.143 30.7214 26.3446 29.8984 25.0071C29.5589 24.4556 29.7305 23.7331 30.2821 23.3937C30.8327 23.0548 31.5554 23.2258 31.8953 23.7778C32.2883 24.4163 32.9709 24.7978 33.7208 24.7978H35.1586C37.304 24.7978 39.0708 26.4088 39.2677 28.5456L40.651 40.3781C40.7853 41.5274 40.4212 42.6815 39.652 43.546C38.8833 44.41 37.7789 44.9055 36.622 44.9055Z" fill="#D0A567"/>
<path d="M26.6387 22.5733C22.6775 22.5733 19.4551 19.3509 19.4551 15.3897C19.4551 11.4285 22.6775 8.20605 26.6387 8.20605C30.5999 8.20605 33.8223 11.4285 33.8223 15.3897C33.8223 19.3509 30.5999 22.5733 26.6387 22.5733ZM26.6387 10.5511C23.971 10.5511 21.8004 12.7218 21.8004 15.3895C21.8004 18.0572 23.971 20.2279 26.6387 20.2279C29.3064 20.2279 31.4771 18.0572 31.4771 15.3895C31.4771 12.7218 29.3064 10.5511 26.6387 10.5511Z" fill="#D0A567"/>
<path d="M19.6687 44.9054C19.021 44.9054 18.4961 44.3806 18.4961 43.7329V35.871C18.4961 35.2233 19.0209 34.6982 19.6687 34.6982C20.3163 34.6982 20.8414 35.2232 20.8414 35.871V43.7329C20.8414 44.3806 20.3163 44.9054 19.6687 44.9054Z" fill="#D0A567"/>
<path d="M33.608 44.9054C32.9604 44.9054 32.4355 44.3806 32.4355 43.7329V35.871C32.4355 35.2233 32.9604 34.6982 33.608 34.6982C34.2557 34.6982 34.7808 35.2232 34.7808 35.871V43.7329C34.7808 44.3806 34.2558 44.9054 33.608 44.9054Z" fill="#D0A567"/>
<path d="M28.4411 30.0552H24.8372C24.5046 30.0552 24.1881 29.914 23.9655 29.6667L22.8575 28.4355C22.4242 27.9545 22.4637 27.213 22.945 26.7795C23.4256 26.3459 24.1666 26.3857 24.6008 26.8671L25.3595 27.71H27.9191L28.6776 26.8671C29.1114 26.3857 29.8516 26.3462 30.3335 26.7795C30.8149 27.213 30.8543 27.9545 30.4211 28.4355L29.313 29.6667C29.0903 29.914 28.7737 30.0552 28.4411 30.0552Z" fill="#D0A567"/>
<path d="M26.6383 40.2489C26.314 40.2489 26.004 40.1142 25.7821 39.8773L23.1328 37.046C22.8973 36.7946 22.7847 36.4528 22.8242 36.1107L23.6715 28.7484C23.7452 28.1049 24.3262 27.6387 24.9706 27.7177C25.6137 27.7914 26.0753 28.3731 26.0013 29.0169L25.2161 35.84L26.6383 37.3598L28.0607 35.84L27.2756 29.0169C27.2013 28.3731 27.663 27.7914 28.3062 27.7177C28.9552 27.6386 29.5311 28.1056 29.6052 28.7484L30.4525 36.1107C30.4919 36.4528 30.3793 36.7946 30.144 37.046L27.4946 39.8773C27.2726 40.1142 26.9625 40.2489 26.6383 40.2489Z" fill="#D0A567"/>
</svg>
