<svg width="42" height="41" viewBox="0 0 42 41" fill="none" xmlns="http://www.w3.org/2000/svg">
<g clip-path="url(#clip0)">
<path d="M41.2536 7.75378C40.7094 7.12581 39.9473 6.74223 39.1076 6.67377L9.53076 4.26294C8.69093 4.19448 7.8744 4.44936 7.23103 4.98052C6.59028 5.50959 6.19793 6.24975 6.12558 7.06551L5.53053 12.5153H3.1545C1.41512 12.5153 0 13.8967 0 15.5947V33.6684C0 35.3664 1.41512 36.7478 3.1545 36.7478H32.8344C34.5738 36.7478 35.9889 35.3664 35.9889 33.6684V30.7365L37.0421 30.8224C37.131 30.8296 37.2193 30.8332 37.3069 30.8332C38.9285 30.8332 40.3109 29.6153 40.4482 28.0099L41.9888 9.99884C42.0589 9.17908 41.7978 8.38183 41.2536 7.75378ZM3.1545 14.1168H32.8344C33.6691 14.1168 34.3483 14.7798 34.3483 15.5947V17.2416H1.64062V15.5947C1.64062 14.7798 2.31975 14.1168 3.1545 14.1168ZM1.64062 18.8431H34.3483V22.1655H1.64062V18.8431ZM32.8344 35.1462H3.1545C2.31975 35.1462 1.64062 34.4833 1.64062 33.6684V23.767H34.3483V33.6684C34.3483 34.4833 33.6691 35.1462 32.8344 35.1462ZM40.3539 9.86551L38.8133 27.8765C38.7438 28.6886 38.0103 29.2944 37.1786 29.2263L35.9889 29.1293V15.5947C35.9889 13.8967 34.5738 12.5153 32.8344 12.5153H7.1805L7.75791 7.22694C7.75857 7.22086 7.75914 7.21485 7.75963 7.20869C7.82911 6.39662 8.56214 5.79091 9.39426 5.85897L38.9712 8.2698C39.3742 8.30263 39.74 8.48673 40.0011 8.78814C40.2622 9.08955 40.3875 9.47209 40.3539 9.86551Z" fill="#D0A567"/>
<path d="M30.9154 26.1479H23.0205C22.5674 26.1479 22.2002 26.5064 22.2002 26.9487V31.9767C22.2002 32.419 22.5674 32.7775 23.0205 32.7775H30.9154C31.3684 32.7775 31.7357 32.419 31.7357 31.9767V26.9487C31.7357 26.5064 31.3684 26.1479 30.9154 26.1479ZM30.095 31.176H23.8408V27.7495H30.095V31.176Z" fill="#D0A567"/>
</g>
<defs>
<clipPath id="clip0">
<rect width="42" height="41" fill="white"/>
</clipPath>
</defs>
</svg>
