<svg width="53" height="52" viewBox="0 0 53 52" fill="none" xmlns="http://www.w3.org/2000/svg">
<g clip-path="url(#clip0)">
<path d="M47.9045 23.7059L47.9486 23.9007H48.1483H48.76C50.583 23.9007 52.0664 25.384 52.0664 27.207V35.6409C52.0664 37.1555 51.0427 38.4362 49.6498 38.8255L49.5013 38.867L49.4718 39.0183C48.8439 42.2311 46.0063 44.662 42.6124 44.662C39.2638 44.662 36.4564 42.2939 35.7785 39.1447L35.736 38.9473H35.5341H20.9091H20.7072L20.6647 39.1447C19.9868 42.2939 17.1794 44.662 13.8308 44.662C10.4822 44.662 7.6748 42.2939 6.99693 39.1447L6.95444 38.9473H6.75252H3.87282C2.04987 38.9473 0.566406 37.4629 0.566406 35.6409V10.6443C0.566406 8.82131 2.04982 7.33789 3.87292 7.33789H3.88027H3.88819H3.89667H3.90572H3.91533H3.9255H3.93623H3.94751H3.95935H3.97173H3.98467H3.99815H4.01217H4.02674H4.04184H4.05749H4.07366H4.09037H4.10762H4.12539H4.14368H4.1625H4.18184H4.2017H4.22208H4.24298H4.26438H4.2863H4.30872H4.33166H4.35509H4.37903H4.40346H4.4284H4.45383H4.47975H4.50616H4.53306H4.56044H4.58831H4.61666H4.64549H4.6748H4.70458H4.73484H4.76556H4.79676H4.82842H4.86054H4.89313H4.92617H4.95967H4.99363H5.02804H5.06289H5.0982H5.13395H5.17015H5.20679H5.24387H5.28138H5.31933H5.35771H5.39652H5.43576H5.47543H5.51552H5.55603H5.59696H5.6383H5.68007H5.72224H5.76482H5.80782H5.85121H5.89501H5.93922H5.98382H6.02882H6.07421H6.12H6.16617H6.21274H6.25969H6.30702H6.35473H6.40283H6.4513H6.50014H6.54936H6.59894H6.6489H6.69922H6.7499H6.80095H6.85235H6.90411H6.95623H7.00869H7.06151H7.11468H7.16819H7.22204H7.27624H7.33077H7.38564H7.44085H7.49638H7.55225H7.60845H7.66497H7.72181H7.77897H7.83646H7.89426H7.95237H8.0108H8.06954H8.12858H8.18793H8.24758H8.30754H8.36779H8.42834H8.48918H8.55032H8.61174H8.67346H8.73545H8.79774H8.8603H8.92314H8.98626H9.04965H9.11331H9.17725H9.24145H9.30591H9.37064H9.43563H9.50088H9.56639H9.63215H9.69816H9.76442H9.83093H9.89768H9.96468H10.0319H10.0994H10.1671H10.2351H10.3032H10.3716H10.4403H10.5091H10.5782H10.6475H10.717H10.7868H10.8567H10.9269H10.9973H11.0679H11.1386H11.2096H11.2808H11.3522H11.4238H11.4956H11.5675H11.6397H11.7121H11.7846H11.8573H11.9302H12.0033H12.0765H12.1499H12.2235H12.2973H12.3712H12.4453H12.5196H12.594H12.6686H12.7433H12.8182H12.8933H12.9685H13.0438H13.1193H13.1949H13.2707H13.3466H13.4226H13.4988H13.5751H13.6515H13.7281H13.8048H13.8816H13.9585H14.0355H14.1127H14.19H14.2674H14.3449H14.4225H14.5002H14.578H14.6559H14.7339H14.812H14.8902H14.9685H15.0469H15.1254H15.2039H15.2826H15.3613H15.4401H15.5189H15.5979H15.6769H15.756H15.8351H15.9143H15.9936H16.0729H16.1523H16.2318H16.3113H16.3909H16.4705H16.5501H16.6298H16.7095H16.7893H16.8691H16.949H17.0289H17.1088H17.1887H17.2687H17.3487H17.4287H17.5088H17.5888H17.6689H17.749H17.8291H17.9092H17.9893H18.0694H18.1495H18.2296H18.3098H18.3899H18.47H18.5501H18.6302H18.7102H18.7903H18.8703H18.9503H19.0303H19.1103H19.1903H19.2702H19.3501H19.4299H19.5097H19.5895H19.6692H19.7489H19.8286H19.9082H19.9878H20.0673H20.1467H20.2261H20.3054H20.3847H20.4639H20.5431H20.6222H20.7012H20.7801H20.859H20.9378H21.0165H21.0951H21.1737H21.2521H21.3305H21.4088H21.487H21.5651H21.6431H21.721H21.7989H21.8766H21.9542H22.0317H22.1091H22.1863H22.2635H22.3405H22.4175H22.4943H22.571H22.6475H22.724H22.8003H22.8764H22.9525H23.0284H23.1041H23.1798H23.2552H23.3306H23.4058H23.4808H23.5557H23.6304H23.705H23.7794H23.8537H23.9278H24.0017H24.0755H24.1491H24.2225H24.2958H24.3688H24.4417H24.5144H24.587H24.6593H24.7315H24.8034H24.8752H24.9468H25.0182H25.0894H25.1604H25.2312H25.3017H25.3721H25.4423H25.5122H25.582H25.6515H25.7208H25.7899H25.8587H25.9274H25.9958H26.064H26.1319H26.1996H26.2671H26.3343H26.4013H26.4681H26.5346H26.6008H26.6669H26.7326H26.7981H26.8634H26.9284H26.9931H27.0576H27.1218H27.1857H27.2493H27.3127H27.3759H27.4387H27.5013H27.5635H27.6255H27.6872H27.7487H27.8098H27.8706H27.9312H27.9914H28.0514H28.1111H28.1704H28.2294H28.2882H28.3466H28.4047H28.4625H28.52H28.5772H28.634H28.6905H28.7467H28.8026H28.8581H28.9133H28.9682H29.0227H29.0769H29.1308H29.1843H29.2375H29.2903H29.3427H29.3948H29.4466H29.498H29.5491H29.5997H29.6501H29.7H29.7496H29.7988H29.8477H29.8961H29.9442H29.9919H30.0393H30.0862H30.1328H30.1789H30.2247H30.2701H30.3151H30.3597H30.4039H30.4477H30.4911H30.5341H30.5767H30.6189H30.6606H30.702H30.7429H30.7834H30.8235H30.8632H30.9024H30.9412H30.9796H31.0175H31.055H31.0921H31.1288H31.165H31.2007H31.236H31.2709H31.3053H31.3392H31.3727H31.4058H31.4384H31.4705H31.5021H31.5333H31.5641H31.5943H31.6241H31.6534H31.6822H31.7106H31.7384H31.7658H31.7927H31.8191H31.8451H31.8705H31.8954H31.9198H31.9438H31.9672H31.9901H32.0126H32.0345H32.0559H32.0768H32.0972H32.117H32.1364H32.1552H32.1735H32.1912H32.2085H32.2252H32.2414H32.257H32.2721H32.2867H32.3007H32.3142H32.3271H32.3395H32.3513H32.3626H32.3733H32.3835H32.3931H32.4022H32.4106H32.4186H32.4259C34.2489 7.33789 35.7323 8.82131 35.7323 10.6443V13.1846V13.4346H35.9823H43.7485C44.8266 13.4346 45.7436 14.1675 45.982 15.2193C45.982 15.2193 45.982 15.2193 45.982 15.2193L47.9045 23.7059ZM49.0383 34.9236L49.518 34.825V27.2071C49.518 26.7886 49.1785 26.449 48.7599 26.4491C48.7599 26.4491 48.7598 26.4491 48.7598 26.4491H35.9822H35.7322V26.6991V34.7661L36.211 34.8668C37.2945 32.4045 39.7565 30.6823 42.6124 30.6823C45.49 30.6823 47.9686 32.4311 49.0383 34.9236ZM43.5859 16.1777L43.5417 15.983H43.342H35.9823H35.7323V16.233V23.6507V23.9007H35.9823H45.0227H45.3357L45.2665 23.5955L43.5859 16.1777ZM23.4129 10.1363V9.88629H23.1629H13.1358H12.8858V10.1363V15.6436V16.0134L13.229 15.8756L17.6745 14.0902L17.6746 14.0902C17.9792 13.9677 18.3208 13.9682 18.6241 14.0902L18.6242 14.0902L23.0697 15.8756L23.4129 16.0134V15.6436V10.1363ZM10.3374 10.1363V9.88629H10.0874H3.87282C3.45433 9.88629 3.1148 10.2258 3.1148 10.6443V35.6409C3.1148 36.0581 3.45398 36.399 3.87282 36.399H6.75252H6.95446L6.99693 36.2016C7.67482 33.0503 10.4822 30.6822 13.8308 30.6822C17.1794 30.6822 19.9868 33.0503 20.6647 36.2016L20.7072 36.399H20.9091H32.9339H33.1839V36.149V10.6443C33.1839 10.2258 32.8444 9.88629 32.4259 9.88629H26.2113H25.9613V10.1363V17.8984C25.9613 18.7971 25.0523 19.4169 24.212 19.0807L18.2425 16.6839L18.1494 16.6465L18.0562 16.6839L12.0867 19.0808C12.0866 19.0808 12.0866 19.0808 12.0866 19.0808C11.2477 19.4167 10.3374 18.7985 10.3374 17.8984V10.1363ZM9.69209 36.0577L9.69186 36.0583C8.55248 38.9854 10.7285 42.1136 13.8308 42.1136C16.2745 42.1136 18.2723 40.1284 18.2723 37.6731C18.2723 32.7469 11.4657 31.5353 9.69209 36.0577ZM38.4746 36.0578L38.4746 36.0579C37.3364 38.9659 39.4959 42.1136 42.6124 42.1136C44.4929 42.1136 46.103 40.9398 46.749 39.2889C47.8896 36.3906 45.7355 33.2306 42.6124 33.2306C40.7316 33.2306 39.1215 34.4059 38.4746 36.0578Z" fill="#D0A567" stroke="#FAF8F5" stroke-width="0.5"/>
<path d="M28.3021 25.2759H22.1316C21.428 25.2759 20.8575 24.7054 20.8575 24.0017C20.8575 23.2981 21.428 22.7276 22.1316 22.7276H28.3021C29.0057 22.7276 29.5762 23.2981 29.5762 24.0017C29.5762 24.7054 29.0057 25.2759 28.3021 25.2759Z" fill="#D0A567" stroke="#FAF8F5" stroke-width="0.5"/>
<path d="M24.1571 29.6633H28.3022C29.0058 29.6633 29.5763 30.2337 29.5763 30.9374C29.5763 31.6411 29.0058 32.2116 28.3022 32.2116H24.1571C23.4534 32.2116 22.8829 31.6411 22.8829 30.9374C22.8829 30.2337 23.4534 29.6633 24.1571 29.6633Z" fill="#D0A567" stroke="#FAF8F5" stroke-width="0.5"/>
</g>
<defs>
<clipPath id="clip0">
<rect width="52" height="52" fill="white" transform="translate(0.316406)"/>
</clipPath>
</defs>
</svg>
