<svg width="52" height="51" viewBox="0 0 52 51" fill="none" xmlns="http://www.w3.org/2000/svg">
<g clip-path="url(#clip0)">
<path d="M26.0042 51H26.0014C25.4405 51 24.9858 50.554 24.9858 50.0039C24.9858 49.4538 25.4405 49.0078 26.0014 49.0078C26.5623 49.0078 27.0185 49.4538 27.0185 50.0039C27.0185 50.554 26.5652 51 26.0042 51Z" fill="#D0A567"/>
<path d="M42.053 36.7803V32.8086C42.053 32.8032 42.053 32.7977 42.0529 32.7922C42.0066 30.0295 40.9467 27.9855 38.8128 26.5432C37.0362 25.3424 34.8002 24.7515 32.6378 24.1802C32.0216 24.0173 31.4296 23.8609 30.8603 23.6941V21.5862C33.1772 20.0507 34.7036 17.4503 34.7036 14.5066V13.4396C34.8215 13.3527 34.9349 13.2575 35.0423 13.1525C36.181 12.0357 36.2797 10.2798 35.3398 9.0513V5.05627C35.3397 2.26821 33.027 0 30.1843 0H21.8156C18.973 0 16.6603 2.26821 16.6603 5.05627V9.0514C15.7203 10.2799 15.8191 12.0358 16.959 13.1538C17.0659 13.2584 17.1791 13.3532 17.2965 13.4399V14.5066C17.2965 17.4498 18.8227 20.0498 21.1397 21.5855V23.6941C20.5704 23.8609 19.9783 24.0174 19.3622 24.1802C17.1999 24.7515 14.9639 25.3424 13.1872 26.5432C11.0532 27.9855 9.99341 30.0295 9.9471 32.7922C9.94699 32.7977 9.94699 32.8032 9.94699 32.8086V36.7803C9.47402 37.2487 9.18121 37.8926 9.18121 38.6025V41.4373C9.18121 42.8662 10.3664 44.0287 11.8234 44.0287H14.3538C14.487 44.0287 14.6188 44.022 14.7488 44.0097V48.6515C14.7488 49.9465 15.8217 51.0001 17.1405 51.0001H21.4385C21.9994 51.0001 22.4541 50.5541 22.4541 50.004C22.4541 49.4539 21.9994 49.0079 21.4385 49.0079H17.1405C16.9451 49.0079 16.78 48.8448 16.78 48.6515V43.2437C17.7869 42.5129 18.4411 41.3401 18.4411 40.02C18.4411 38.6998 17.7868 37.5271 16.78 36.7962V33.7997C16.78 33.608 16.9451 33.4461 17.1405 33.4461H21.8796V39.5089C21.8796 39.8771 22.0868 40.2153 22.4182 40.3882C22.5678 40.4663 22.7316 40.505 22.8951 40.505C23.0938 40.505 23.2918 40.4478 23.4626 40.3349L26.0011 38.6575L28.5368 40.3347C28.8482 40.5407 29.2501 40.5613 29.5815 40.3884C29.9131 40.2155 30.1203 39.8773 30.1203 39.509V33.4462H34.8594C35.0563 33.4462 35.2227 33.6081 35.2227 33.7998V36.7943C34.2142 37.525 33.5588 38.6987 33.5588 40.0201C33.5588 41.3414 34.2142 42.5151 35.2227 43.2458V48.6516C35.2227 48.8448 35.0563 49.008 34.8594 49.008H30.5613C30.0004 49.008 29.5457 49.454 29.5457 50.0041C29.5457 50.5542 30.0004 51.0002 30.5613 51.0002H34.8594C36.1797 51.0002 37.2539 49.9466 37.2539 48.6516V44.0101C37.383 44.0223 37.5137 44.0289 37.646 44.0289H40.1765C41.6334 44.0289 42.8186 42.8665 42.8186 41.4375V38.6027C42.8188 37.8927 42.526 37.2487 42.053 36.7803ZM18.6915 5.05627C18.6915 3.3667 20.093 1.99219 21.8156 1.99219H30.1843C31.9069 1.99219 33.3084 3.3667 33.3084 5.05627V7.28752C31.1799 5.82745 28.6517 5.04063 26 5.04063C23.3483 5.04063 20.8201 5.82735 18.6915 7.28752V5.05627ZM18.394 11.7439C17.9384 11.297 17.9384 10.5699 18.3939 10.123L18.3942 10.1229C20.4258 8.13032 23.127 7.03292 26 7.03292C28.873 7.03292 31.5741 8.13032 33.6058 10.1229L33.606 10.123C34.0616 10.5699 34.0615 11.2971 33.6072 11.7428C33.1517 12.1879 32.4106 12.188 31.9563 11.7439C30.3651 10.1834 28.2504 9.32394 26.0016 9.32394C23.7528 9.32394 21.6381 10.1834 20.0481 11.7428C19.5917 12.1888 18.8493 12.1888 18.394 11.7439ZM19.3277 14.5066V14.0653C20.1108 14.0397 20.8862 13.736 21.4831 13.1526C22.6905 11.9684 24.2951 11.3161 26.0014 11.3161C27.7076 11.3161 29.3123 11.9683 30.521 13.1538C31.1165 13.7358 31.8903 14.0389 32.6722 14.0647V14.5067C32.6722 18.116 29.6797 21.0522 26.0014 21.0522C22.3216 21.0521 19.3277 18.1159 19.3277 14.5066ZM28.829 22.5792V24.4257C28.829 25.9549 27.5606 27.199 26.0014 27.199C24.4407 27.199 23.1709 25.9549 23.1709 24.4257V22.5785C24.059 22.8789 25.0106 23.0443 26.0014 23.0443C26.9911 23.0443 27.9417 22.8791 28.829 22.5792ZM11.8234 42.0366C11.4865 42.0366 11.2125 41.7677 11.2125 41.4373V38.6025C11.2125 38.2721 11.4865 38.0034 11.8234 38.0034H14.3538C15.4875 38.0034 16.4099 38.908 16.4099 40.02C16.4099 41.1319 15.4875 42.0366 14.3538 42.0366H11.8234ZM28.0891 37.6357L26.5692 36.6305C26.2261 36.4034 25.7769 36.4033 25.4339 36.6303L23.9107 37.6367V33.4462H28.0891V37.6357ZM34.8595 31.454H17.1405C15.8217 31.454 14.7488 32.5062 14.7488 33.7997V36.0302C14.6188 36.018 14.487 36.0112 14.3538 36.0112H11.9781V32.8173C12.0151 30.72 12.7657 29.2475 14.3398 28.1836C15.8292 27.177 17.8939 26.6314 19.8906 26.1037C20.364 25.9786 20.8455 25.8505 21.3223 25.7162C21.8981 27.7185 23.777 29.191 26.0013 29.191C28.2244 29.191 30.1022 27.7186 30.6775 25.7163C31.1543 25.8505 31.6359 25.9786 32.1092 26.1037C34.1059 26.6314 36.1706 27.1769 37.6599 28.1836C39.2342 29.2475 39.9847 30.7199 40.0216 32.8173V36.0111H37.6461C37.5138 36.0111 37.3831 36.0179 37.254 36.0299V33.7997C37.2541 32.5062 36.1799 31.454 34.8595 31.454ZM40.7876 41.4374C40.7876 41.7678 40.5135 42.0367 40.1767 42.0367H37.6461C37.3176 42.0367 37.0079 41.9588 36.7323 41.8238C36.7081 41.8105 36.683 41.7987 36.6576 41.7873C36.0219 41.4439 35.5901 40.7807 35.5901 40.0201C35.5901 38.9081 36.5125 38.0035 37.6461 38.0035H40.1766C40.5134 38.0035 40.7875 38.2722 40.7875 38.6026V41.4374H40.7876Z" fill="#D0A567"/>
</g>
<defs>
<clipPath id="clip0">
<rect width="52" height="51" fill="white"/>
</clipPath>
</defs>
</svg>
