<svg width="261" height="54" viewBox="0 0 261 54" fill="none" xmlns="http://www.w3.org/2000/svg">
<path d="M58.2 24.87L60.96 24.42V2.58L58.2 2.16V1.5H67.62C70.58 1.5 72.78 2.13 74.22 3.39C75.66 4.65 76.38 6.47 76.38 8.85C76.38 11.23 75.66 13.05 74.22 14.31C72.78 15.57 70.58 16.2 67.62 16.2H64.26V24.42L67.02 24.87V25.5H58.2V24.87ZM67.2 15.48C70.9 15.48 72.75 13.47 72.75 9.45V8.25C72.75 4.25 70.9 2.25 67.2 2.25H64.26V15.48H67.2ZM98.7178 26.1C95.7778 26.1 93.6278 25.45 92.2678 24.15C90.9078 22.83 90.2278 21.09 90.2278 18.93V2.58L87.4678 2.16V1.5H96.2878V2.16L93.5278 2.58V18.93C93.5278 20.89 94.0778 22.4 95.1778 23.46C96.2778 24.5 97.9478 25.02 100.188 25.02C104.428 25.02 106.548 22.99 106.548 18.93V3.33L103.758 2.16V1.5H110.148V2.16L107.268 3.33V18.93C107.268 21.33 106.598 23.13 105.258 24.33C103.918 25.51 101.738 26.1 98.7178 26.1ZM121.266 25.5V24.87L124.026 24.42V2.58L121.266 2.16V1.5H130.086V2.16L127.326 2.58V24.78H136.296L138.756 18.18H139.566V25.5H121.266ZM160.17 26.1C158.31 26.1 156.48 25.57 154.68 24.51L152.13 25.8H151.47V18.09H152.13L154.71 23.67C156.37 24.85 158.27 25.44 160.41 25.44C162.17 25.44 163.62 24.98 164.76 24.06C165.92 23.12 166.5 21.81 166.5 20.13C166.5 18.91 166.13 17.95 165.39 17.25C164.65 16.53 163.45 15.96 161.79 15.54L156.81 14.25C155.07 13.79 153.76 13.01 152.88 11.91C152 10.79 151.56 9.47 151.56 7.95C151.56 6.57 151.83 5.35 152.37 4.29C152.93 3.21 153.74 2.38 154.8 1.8C155.86 1.2 157.12 0.899998 158.58 0.899998C160.4 0.899998 162.03 1.21 163.47 1.83L165.66 0.899998H166.32V7.02H165.66L163.5 2.64C162 1.92 160.37 1.56 158.61 1.56C156.87 1.56 155.5 2.01 154.5 2.91C153.5 3.79 153 4.96 153 6.42C153 7.5 153.35 8.35 154.05 8.97C154.77 9.59 155.82 10.08 157.2 10.44L162.57 11.85C164.31 12.29 165.6 13.05 166.44 14.13C167.3 15.19 167.73 16.81 167.73 18.99C167.73 21.21 167.04 22.95 165.66 24.21C164.3 25.47 162.47 26.1 160.17 26.1ZM189.3 26.1C187.44 26.1 185.61 25.57 183.81 24.51L181.26 25.8H180.6V18.09H181.26L183.84 23.67C185.5 24.85 187.4 25.44 189.54 25.44C191.3 25.44 192.75 24.98 193.89 24.06C195.05 23.12 195.63 21.81 195.63 20.13C195.63 18.91 195.26 17.95 194.52 17.25C193.78 16.53 192.58 15.96 190.92 15.54L185.94 14.25C184.2 13.79 182.89 13.01 182.01 11.91C181.13 10.79 180.69 9.47 180.69 7.95C180.69 6.57 180.96 5.35 181.5 4.29C182.06 3.21 182.87 2.38 183.93 1.8C184.99 1.2 186.25 0.899998 187.71 0.899998C189.53 0.899998 191.16 1.21 192.6 1.83L194.79 0.899998H195.45V7.02H194.79L192.63 2.64C191.13 1.92 189.5 1.56 187.74 1.56C186 1.56 184.63 2.01 183.63 2.91C182.63 3.79 182.13 4.96 182.13 6.42C182.13 7.5 182.48 8.35 183.18 8.97C183.9 9.59 184.95 10.08 186.33 10.44L191.7 11.85C193.44 12.29 194.73 13.05 195.57 14.13C196.43 15.19 196.86 16.81 196.86 18.99C196.86 21.21 196.17 22.95 194.79 24.21C193.43 25.47 191.6 26.1 189.3 26.1ZM206.881 25.5V24.87L209.821 23.67L218.491 0.899998H218.971L227.161 24.42L229.921 24.87V25.5H221.101V24.87L223.561 24.48L221.011 17.37H213.031L210.601 23.67L213.301 24.87V25.5H206.881ZM213.271 16.74H220.801L217.201 6.18L213.271 16.74ZM257.063 25.8C255.943 25.8 255.103 25.53 254.543 24.99C253.983 24.45 253.603 23.53 253.403 22.23L252.833 18.21C252.633 16.85 252.163 15.79 251.423 15.03C250.703 14.25 249.573 13.86 248.033 13.86H245.693V24.42L248.453 24.87V25.5H239.633V24.87L242.393 24.42V2.58L239.633 2.16V1.5H248.033C251.293 1.5 253.653 2.01 255.113 3.03C256.573 4.05 257.303 5.6 257.303 7.68C257.303 11.12 255.223 13.11 251.063 13.65V13.83C252.603 14.05 253.833 14.6 254.753 15.48C255.693 16.36 256.283 17.53 256.523 18.99L256.913 21.57C257.073 22.69 257.253 23.45 257.453 23.85C257.673 24.25 258.003 24.45 258.443 24.45C258.743 24.45 259.063 24.36 259.403 24.18C259.743 23.98 260.063 23.73 260.363 23.43L260.873 23.97C260.293 24.63 259.693 25.1 259.073 25.38C258.453 25.66 257.783 25.8 257.063 25.8ZM249.053 13.14C250.513 13.14 251.643 12.7 252.443 11.82C253.263 10.92 253.673 9.6 253.673 7.86V7.23C253.673 3.91 251.793 2.25 248.033 2.25H245.693V13.14H249.053Z" fill="white"/>
<path d="M64.2725 53.0464H63.4023V51H57.9453V53.0464H57.0752V50.1729H57.6821C58.2336 49.2454 58.7044 48.1175 59.0947 46.7891C59.4886 45.4606 59.707 44.2467 59.75 43.1475H63.2788V50.1729H64.2725V53.0464ZM62.3657 50.1729V43.9692H60.5771C60.5127 44.8358 60.2961 45.8778 59.9272 47.0952C59.5584 48.3091 59.1287 49.335 58.6382 50.1729H62.3657ZM67.7549 43.1475H68.6089V47.5142C68.6089 48.3198 68.5838 49.0485 68.5337 49.7002H68.5766L72.9809 43.1475H73.98V51H73.1206V46.6763C73.1206 45.9565 73.151 45.201 73.2119 44.4097H73.1636L68.7539 51H67.7549V43.1475ZM82.8335 44.9844C82.8335 45.5 82.6687 45.9189 82.3393 46.2412C82.0135 46.5635 81.5623 46.7676 80.9858 46.8535V46.8965C81.6411 46.986 82.137 47.1919 82.4736 47.5142C82.8138 47.8364 82.9838 48.2572 82.9838 48.7764C82.9838 49.5104 82.7099 50.0833 82.1621 50.4951C81.6142 50.9033 80.8408 51.1074 79.8418 51.1074C78.9287 51.1074 78.1803 50.966 77.5966 50.6831V49.8345C77.9404 49.9992 78.311 50.1263 78.7085 50.2158C79.1095 50.3053 79.4944 50.3501 79.8632 50.3501C80.5722 50.3501 81.1075 50.2158 81.4692 49.9473C81.8344 49.6787 82.0171 49.292 82.0171 48.7871C82.0171 48.3073 81.8147 47.9438 81.4101 47.6968C81.0091 47.4497 80.4093 47.3262 79.6108 47.3262H78.4399V46.5581H79.5625C80.2965 46.5581 80.8641 46.4274 81.2651 46.166C81.6697 45.901 81.872 45.5322 81.872 45.0596C81.872 44.6764 81.727 44.3703 81.437 44.1411C81.1469 43.9119 80.7566 43.7974 80.2661 43.7974C79.8722 43.7974 79.5159 43.8421 79.1972 43.9316C78.8785 44.0212 78.5097 44.1984 78.0908 44.4634L77.6396 43.8511C78.0013 43.5825 78.4059 43.3802 78.8535 43.2441C79.3046 43.1045 79.7719 43.0347 80.2553 43.0347C81.061 43.0347 81.6912 43.2119 82.146 43.5664C82.6043 43.9173 82.8335 44.39 82.8335 44.9844ZM91.7514 51L90.7739 48.5024H87.6264L86.6596 51H85.7358L88.8403 43.1152H89.6083L92.6967 51H91.7514ZM90.4892 47.6807L89.5761 45.2476C89.4579 44.9396 89.3362 44.5618 89.2109 44.1143C89.1321 44.458 89.0193 44.8358 88.8725 45.2476L87.9487 47.6807H90.4892ZM95.9321 43.1475H96.7861V47.5142C96.7861 48.3198 96.761 49.0485 96.7109 49.7002H96.7538L101.158 43.1475H102.157V51H101.298V46.6763C101.298 45.9565 101.328 45.201 101.389 44.4097H101.341L96.9311 51H95.9321V43.1475ZM99.1869 42.519C98.5245 42.519 98.0411 42.3919 97.7367 42.1377C97.4324 41.8799 97.2623 41.4574 97.2265 40.8701H98.0644C98.0966 41.2425 98.1933 41.5021 98.3544 41.6489C98.5191 41.7957 98.8038 41.8691 99.2084 41.8691C99.5772 41.8691 99.8494 41.7904 100.025 41.6328C100.204 41.4753 100.313 41.221 100.352 40.8701H101.196C101.153 41.4359 100.972 41.853 100.653 42.1216C100.335 42.3866 99.8458 42.519 99.1869 42.519ZM112.418 51H111.505V47.3047H107.369V51H106.456V43.1475H107.369V46.4883H111.505V43.1475H112.418V51ZM121.099 51H116.722V43.1475H121.099V43.9585H117.635V46.4883H120.89V47.2939H117.635V50.1836H121.099V51ZM129.969 45.4355C129.969 46.2305 129.697 46.8428 129.153 47.2725C128.612 47.6986 127.837 47.9116 126.827 47.9116H125.903V51H124.99V43.1475H127.026C128.988 43.1475 129.969 43.9102 129.969 45.4355ZM125.903 47.1274H126.725C127.534 47.1274 128.12 46.9967 128.481 46.7354C128.843 46.474 129.024 46.055 129.024 45.4785C129.024 44.9593 128.854 44.5726 128.514 44.3184C128.173 44.0641 127.643 43.937 126.924 43.937H125.903V47.1274ZM137.125 43.8511C136.262 43.8511 135.58 44.1393 135.079 44.7158C134.581 45.2887 134.332 46.0747 134.332 47.0737C134.332 48.1014 134.572 48.8963 135.052 49.4585C135.535 50.0171 136.223 50.2964 137.115 50.2964C137.662 50.2964 138.287 50.1979 138.989 50.001V50.8013C138.445 51.0054 137.773 51.1074 136.975 51.1074C135.818 51.1074 134.925 50.7565 134.295 50.0547C133.668 49.3529 133.355 48.3556 133.355 47.063C133.355 46.2537 133.505 45.5448 133.806 44.936C134.11 44.3273 134.547 43.8582 135.117 43.5288C135.689 43.1994 136.363 43.0347 137.136 43.0347C137.96 43.0347 138.679 43.1851 139.295 43.4858L138.909 44.27C138.314 43.9907 137.72 43.8511 137.125 43.8511ZM148.498 51H147.391L143.761 47.02V51H142.847V43.1475H143.761V46.9502L147.3 43.1475H148.347L144.872 46.9609L148.498 51ZM158.544 47.063C158.544 48.3198 158.225 49.3081 157.588 50.0278C156.954 50.7476 156.071 51.1074 154.94 51.1074C153.783 51.1074 152.89 50.7547 152.26 50.0493C151.633 49.3403 151.32 48.3413 151.32 47.0522C151.32 45.7739 151.635 44.7839 152.265 44.082C152.895 43.3766 153.79 43.0239 154.95 43.0239C156.078 43.0239 156.959 43.382 157.593 44.0981C158.227 44.8143 158.544 45.8026 158.544 47.063ZM152.286 47.063C152.286 48.1265 152.512 48.9339 152.963 49.4854C153.418 50.0332 154.077 50.3071 154.94 50.3071C155.81 50.3071 156.467 50.0332 156.911 49.4854C157.355 48.9375 157.577 48.13 157.577 47.063C157.577 46.0067 157.355 45.2064 156.911 44.6621C156.471 44.1143 155.817 43.8403 154.95 43.8403C154.08 43.8403 153.418 44.116 152.963 44.6675C152.512 45.2153 152.286 46.0138 152.286 47.063ZM166.823 51H162.445V43.1475H166.823V43.9585H163.358V46.4883H166.613V47.2939H163.358V50.1836H166.823V51ZM182.531 47.063C182.531 48.3198 182.213 49.3081 181.575 50.0278C180.942 50.7476 180.059 51.1074 178.927 51.1074C177.771 51.1074 176.878 50.7547 176.247 50.0493C175.621 49.3403 175.307 48.3413 175.307 47.0522C175.307 45.7739 175.622 44.7839 176.253 44.082C176.883 43.3766 177.778 43.0239 178.938 43.0239C180.066 43.0239 180.947 43.382 181.581 44.0981C182.215 44.8143 182.531 45.8026 182.531 47.063ZM176.274 47.063C176.274 48.1265 176.5 48.9339 176.951 49.4854C177.406 50.0332 178.065 50.3071 178.927 50.3071C179.798 50.3071 180.455 50.0332 180.899 49.4854C181.343 48.9375 181.565 48.13 181.565 47.063C181.565 46.0067 181.343 45.2064 180.899 44.6621C180.458 44.1143 179.805 43.8403 178.938 43.8403C178.068 43.8403 177.406 44.116 176.951 44.6675C176.5 45.2153 176.274 46.0138 176.274 47.063ZM189.795 43.8511C188.932 43.8511 188.25 44.1393 187.749 44.7158C187.251 45.2887 187.002 46.0747 187.002 47.0737C187.002 48.1014 187.242 48.8963 187.722 49.4585C188.205 50.0171 188.893 50.2964 189.784 50.2964C190.332 50.2964 190.957 50.1979 191.659 50.001V50.8013C191.115 51.0054 190.443 51.1074 189.645 51.1074C188.488 51.1074 187.595 50.7565 186.965 50.0547C186.338 49.3529 186.025 48.3556 186.025 47.063C186.025 46.2537 186.175 45.5448 186.476 44.936C186.78 44.3273 187.217 43.8582 187.786 43.5288C188.359 43.1994 189.032 43.0347 189.806 43.0347C190.629 43.0347 191.349 43.1851 191.965 43.4858L191.578 44.27C190.984 43.9907 190.39 43.8511 189.795 43.8511ZM195.517 43.1475H197.736C198.778 43.1475 199.531 43.3032 199.997 43.6147C200.462 43.9263 200.695 44.4186 200.695 45.0918C200.695 45.5573 200.564 45.9422 200.303 46.2466C200.045 46.5474 199.667 46.7425 199.17 46.832V46.8857C200.362 47.0898 200.958 47.7165 200.958 48.7656C200.958 49.4674 200.72 50.0153 200.244 50.4092C199.771 50.8031 199.109 51 198.257 51H195.517V43.1475ZM196.43 46.5098H197.934C198.579 46.5098 199.043 46.4095 199.325 46.209C199.608 46.0049 199.75 45.6629 199.75 45.1831C199.75 44.7427 199.592 44.4258 199.277 44.2324C198.962 44.0355 198.461 43.937 197.773 43.937H196.43V46.5098ZM196.43 47.2832V50.2212H198.069C198.702 50.2212 199.179 50.0994 199.497 49.856C199.82 49.6089 199.981 49.224 199.981 48.7012C199.981 48.2142 199.816 47.8561 199.487 47.627C199.161 47.3978 198.663 47.2832 197.993 47.2832H196.43ZM209.173 51H204.795V43.1475H209.173V43.9585H205.708V46.4883H208.963V47.2939H205.708V50.1836H209.173V51ZM213.063 51V43.1475H213.976V50.1729H217.108V43.1475H218.031V50.1729H221.168V43.1475H222.081V50.1729H223.005V53.0464H222.135V51H213.063ZM230.951 51H226.573V43.1475H230.951V43.9585H227.486V46.4883H230.741V47.2939H227.486V50.1836H230.951V51ZM240.803 51H239.89V47.3047H235.755V51H234.841V43.1475H235.755V46.4883H239.89V43.1475H240.803V51ZM245.118 43.1475H245.972V47.5142C245.972 48.3198 245.947 49.0485 245.897 49.7002H245.94L250.344 43.1475H251.343V51H250.484V46.6763C250.484 45.9565 250.514 45.201 250.575 44.4097H250.527L246.117 51H245.118V43.1475ZM260.02 51H255.642V43.1475H260.02V43.9585H256.555V46.4883H259.81V47.2939H256.555V50.1836H260.02V51Z" fill="white"/>
<g clip-path="url(#clip0)">
<path d="M21.3252 2.58131L22.1128 2.98507L20.2857 7.15735L19.4982 6.75358C18.8997 6.45075 18.6162 5.67686 18.8997 5.00392L19.6872 3.18696C19.9707 2.54766 20.6952 2.27848 21.3252 2.58131Z" fill="white"/>
<path d="M18.9646 38.7539H16.5391V43.8347H18.9646V38.7539Z" fill="white"/>
<path d="M13.1381 31.5508H10.9961L17.6428 40.3327H19.7533L13.1381 31.5508Z" fill="white"/>
<path d="M12.6652 31.5508H10.5547L17.1698 40.3327H19.2804L12.6652 31.5508Z" fill="white"/>
<path d="M25.1692 37.3398L17.294 28.3223L17.168 29.1971L24.0036 37.6426L25.1692 37.3398Z" fill="white"/>
<path d="M17.1697 29.1953H15.9727L22.6193 38.0109L24.0054 37.6408L17.1697 29.1953Z" fill="white"/>
<path d="M17.0111 30.0047L11.5615 33.7395C10.9944 34.1433 10.2384 33.9751 9.82891 33.4031C9.54541 32.9656 9.4824 32.4273 9.70291 31.9562L13.5145 24.0154L14.4595 23.8809L16.0031 24.4192L14.4595 26.1352V28.1877L17.0111 28.255V30.0047Z" fill="white"/>
<path d="M25.7706 20.5508H23.9751L15.8164 29.1982H17.6119L25.7706 20.5508Z" fill="white"/>
<path d="M24.1013 14.2238L24.7313 11.3301L13.832 22.9048L14.7456 24.1497L24.1013 14.2238Z" fill="white"/>
<path d="M14.1241 23.1153L13.8203 24.3867L20.1382 26.1092L20.442 24.8377L14.1241 23.1153Z" fill="white"/>
<path d="M25.3614 39.0893V36.0273H20.8568L18.2422 39.1902V41.9829L25.3614 39.0893Z" fill="white"/>
<path d="M10.8698 33.404C11.3221 33.404 11.6888 33.0123 11.6888 32.5291C11.6888 32.046 11.3221 31.6543 10.8698 31.6543C10.4175 31.6543 10.0508 32.046 10.0508 32.5291C10.0508 33.0123 10.4175 33.404 10.8698 33.404Z" fill="white"/>
<path d="M14.2057 24.3825C14.6581 24.3825 15.0248 23.9908 15.0248 23.5076C15.0248 23.0245 14.6581 22.6328 14.2057 22.6328C13.7534 22.6328 13.3867 23.0245 13.3867 23.5076C13.3867 23.9908 13.7534 24.3825 14.2057 24.3825Z" fill="white"/>
<path d="M17.9227 41.4446C18.2533 41.4446 18.5212 41.1584 18.5212 40.8053C18.5212 40.4522 18.2533 40.166 17.9227 40.166C17.5922 40.166 17.3242 40.4522 17.3242 40.8053C17.3242 41.1584 17.5922 41.4446 17.9227 41.4446Z" fill="white"/>
<path d="M23.5931 38.4491C23.8193 38.4491 24.0026 38.2532 24.0026 38.0116C24.0026 37.7701 23.8193 37.5742 23.5931 37.5742C23.3669 37.5742 23.1836 37.7701 23.1836 38.0116C23.1836 38.2532 23.3669 38.4491 23.5931 38.4491Z" fill="white"/>
<path d="M25.6089 12.8105H24.1914V20.213H25.6089V12.8105Z" fill="white"/>
<path d="M24.8268 21.4235C25.2792 21.4235 25.6459 21.0318 25.6459 20.5487C25.6459 20.0655 25.2792 19.6738 24.8268 19.6738C24.3745 19.6738 24.0078 20.0655 24.0078 20.5487C24.0078 21.0318 24.3745 21.4235 24.8268 21.4235Z" fill="white"/>
<path d="M21.2 51.0018C32.9084 51.0018 42.4 50.8059 42.4 50.5644C42.4 50.3228 32.9084 50.127 21.2 50.127C9.49156 50.127 0 50.3228 0 50.5644C0 50.8059 9.49156 51.0018 21.2 51.0018Z" fill="white"/>
<path d="M29.2961 49.8223C29.6111 49.5531 27.7211 49.2839 25.6105 49.082H3.875V50.226C7.81259 50.2933 28.5716 50.4952 29.2961 49.8223Z" fill="white"/>
<path d="M25.6105 49.082C27.7211 49.2839 29.5796 49.5195 29.2961 49.8223C28.5716 50.4952 7.81259 50.2597 3.875 50.226V50.5625H31.7532V49.082H25.6105V49.082Z" fill="white"/>
<path d="M26.0517 48.5106C26.0517 47.3666 22.4921 46.6263 18.4285 46.1553V45.8188L17.7985 45.7852L7.02526 46.4917C6.08024 46.559 5.32422 47.4002 5.32422 48.4096V49.0826H20.1611C22.9646 48.9144 26.0517 48.6788 26.0517 48.5106Z" fill="white"/>
<path d="M30.274 48.4424C30.274 47.433 29.5179 46.5918 28.5729 46.5245L18.4297 45.8516V46.188C22.5248 46.6591 26.0529 47.3657 26.0529 48.5434C26.0529 48.7116 22.9343 48.9471 20.1307 49.149H30.2425L30.274 48.4424Z" fill="white"/>
<path d="M18.6497 43.4961H16.6652C16.3187 43.4961 16.0352 43.7989 16.0352 44.169V46.0196H18.2717C18.7127 45.1112 18.9017 44.169 18.6497 43.4961Z" fill="white"/>
<path d="M19.9399 44.1354H19.6248C19.6248 43.7653 19.3413 43.4961 18.9948 43.4961H18.6483C18.7113 43.698 18.7743 43.9335 18.7743 44.1354H15.7188V44.741H18.7113C18.6168 45.1785 18.4908 45.6159 18.3018 45.986H19.6563V44.741H19.9714L19.9399 44.1354Z" fill="white"/>
<path d="M40.6999 3.48968C40.6684 3.45604 40.6054 3.42239 40.5739 3.38874C39.5344 2.91768 37.1088 6.5516 35.1873 11.4978C33.3602 16.1411 32.6042 20.2797 33.3917 21.1546C33.4547 21.2219 33.4862 21.2555 33.5807 21.2891C34.6202 21.7602 37.0458 18.1263 38.9674 13.1801C40.7944 8.4695 41.5504 4.26357 40.6999 3.48968Z" stroke="white" stroke-miterlimit="10"/>
<path d="M26.4259 11.6662C26.4259 6.08075 30.647 1.57201 35.8761 1.57201C36.1911 1.57201 36.5061 1.60565 36.7896 1.60565C34.5531 1.03365 32.1905 1.10094 29.9854 1.80754C28.9774 2.11036 27.9379 2.21131 26.8984 2.14401C26.4259 2.11036 25.9219 2.11036 25.4493 2.04307C24.6933 1.97577 23.9373 1.77389 23.2443 1.43742C22.9293 1.26918 22.6143 1.13459 22.2678 1L22.0473 1.10094C21.8898 1.43742 21.3542 2.51413 20.9132 3.42261C20.4722 4.36474 20.0942 5.34051 19.7792 6.31629C19.4957 7.29206 19.1492 8.40242 19.0547 8.77254L19.1807 9.00807C19.4957 9.14266 19.8107 9.3109 20.1572 9.44549C20.8817 9.74832 21.5432 10.1521 22.1103 10.6904C22.4883 11.0269 22.8348 11.3634 23.2128 11.6999C24.0003 12.4401 24.6303 13.3149 25.1658 14.2907C26.3629 16.6797 28.1899 18.6312 30.4265 19.9098C27.9064 17.9919 26.4259 14.93 26.4259 11.6662Z" fill="white"/>
<path d="M33.3913 21.1546C32.6353 20.2798 33.3913 16.1411 35.1868 11.4978C37.1084 6.55163 39.5339 2.91772 40.5734 3.38878C40.6365 3.42243 40.6679 3.45607 40.6994 3.48972V3.45607C39.7544 2.61489 38.6519 2.21112 37.5494 1.87465C37.4234 1.841 37.1714 1.74006 36.7934 1.63912C36.4784 1.60547 36.1948 1.60547 35.8798 1.60547C30.6507 1.60547 26.4296 6.14786 26.4611 11.7333C26.4611 14.9635 27.9416 17.9917 30.3987 19.876L30.5247 19.9433C31.4067 20.5153 32.3518 20.9191 33.3913 21.1546Z" fill="white"/>
<path d="M39.3428 13.2825C40.5398 9.91775 38.0873 7.84189 37.4258 7.53906C36.5789 9.18723 36.5445 9.26604 35.5914 11.5447C34.6464 13.8663 34.4758 14.68 34.0977 16.0604C34.7592 16.3632 38.0828 16.7818 39.3428 13.2825Z" fill="white"/>
</g>
<defs>
<clipPath id="clip0">
<rect width="48" height="50" fill="white" transform="translate(0 1)"/>
</clipPath>
</defs>
</svg>
