<svg width="237" height="27" fill="none" xmlns="http://www.w3.org/2000/svg"><path d="m33.329 24.87 2.76-.45V2.58l-2.76-.42V1.5h9.42c2.96 0 5.16.63 6.6 1.89 1.44 1.26 2.16 3.08 2.16 5.46s-.72 4.2-2.16 5.46c-1.44 1.26-3.64 1.89-6.6 1.89h-3.36v8.22l2.76.45v.63h-8.82v-.63Zm9-9.39c3.7 0 5.55-2.01 5.55-6.03v-1.2c0-4-1.85-6-5.55-6h-2.94v13.23h2.94ZM73.847 26.1c-2.94 0-5.09-.65-6.45-1.95-1.36-1.32-2.04-3.06-2.04-5.22V2.58l-2.76-.42V1.5h8.82v.66l-2.76.42v16.35c0 1.96.55 3.47 1.65 4.53 1.1 1.04 2.77 1.56 5.01 1.56 4.24 0 6.36-2.03 6.36-6.09V3.33l-2.79-1.17V1.5h6.39v.66l-2.88 1.17v15.6c0 2.4-.67 4.2-2.01 5.4-1.34 1.18-3.52 1.77-6.54 1.77Zm22.547-.6v-.63l2.76-.45V2.58l-2.76-.42V1.5h8.821v.66l-2.76.42v22.2h8.97l2.46-6.6h.81v7.32h-18.3Zm38.905.6c-1.86 0-3.69-.53-5.49-1.59l-2.55 1.29h-.66v-7.71h.66l2.58 5.58c1.66 1.18 3.56 1.77 5.7 1.77 1.76 0 3.21-.46 4.35-1.38 1.16-.94 1.74-2.25 1.74-3.93 0-1.22-.37-2.18-1.11-2.88-.74-.72-1.94-1.29-3.6-1.71l-4.98-1.29c-1.74-.46-3.05-1.24-3.93-2.34-.88-1.12-1.32-2.44-1.32-3.96 0-1.38.27-2.6.81-3.66a5.84 5.84 0 0 1 2.43-2.49c1.06-.6 2.32-.9 3.78-.9 1.82 0 3.45.31 4.89.93l2.19-.93h.66v6.12h-.66l-2.16-4.38c-1.5-.72-3.13-1.08-4.89-1.08-1.74 0-3.11.45-4.11 1.35-1 .88-1.5 2.05-1.5 3.51 0 1.08.35 1.93 1.05 2.55.72.62 1.77 1.11 3.15 1.47l5.37 1.41c1.74.44 3.03 1.2 3.87 2.28.86 1.06 1.29 2.68 1.29 4.86 0 2.22-.69 3.96-2.07 5.22-1.36 1.26-3.19 1.89-5.49 1.89Zm29.13 0c-1.86 0-3.69-.53-5.49-1.59l-2.55 1.29h-.66v-7.71h.66l2.58 5.58c1.66 1.18 3.56 1.77 5.7 1.77 1.76 0 3.21-.46 4.35-1.38 1.16-.94 1.74-2.25 1.74-3.93 0-1.22-.37-2.18-1.11-2.88-.74-.72-1.94-1.29-3.6-1.71l-4.98-1.29c-1.74-.46-3.05-1.24-3.93-2.34-.88-1.12-1.32-2.44-1.32-3.96 0-1.38.27-2.6.81-3.66a5.84 5.84 0 0 1 2.43-2.49c1.06-.6 2.32-.9 3.78-.9 1.82 0 3.45.31 4.89.93l2.19-.93h.66v6.12h-.66l-2.16-4.38c-1.5-.72-3.13-1.08-4.89-1.08-1.74 0-3.11.45-4.11 1.35-1 .88-1.5 2.05-1.5 3.51 0 1.08.35 1.93 1.05 2.55.72.62 1.77 1.11 3.15 1.47l5.37 1.41c1.74.44 3.03 1.2 3.87 2.28.86 1.06 1.29 2.68 1.29 4.86 0 2.22-.69 3.96-2.07 5.22-1.36 1.26-3.19 1.89-5.49 1.89Zm17.581-.6v-.63l2.94-1.2L193.62.9h.48l8.19 23.52 2.76.45v.63h-8.82v-.63l2.46-.39-2.55-7.11h-7.98l-2.43 6.3 2.7 1.2v.63h-6.42Zm6.39-8.76h7.53l-3.6-10.56-3.93 10.56Zm43.792 9.06c-1.12 0-1.96-.27-2.52-.81s-.94-1.46-1.14-2.76l-.57-4.02c-.2-1.36-.67-2.42-1.41-3.18-.72-.78-1.85-1.17-3.39-1.17h-2.34v10.56l2.76.45v.63h-8.82v-.63l2.76-.45V2.58l-2.76-.42V1.5h8.4c3.26 0 5.62.51 7.08 1.53s2.19 2.57 2.19 4.65c0 3.44-2.08 5.43-6.24 5.97v.18c1.54.22 2.77.77 3.69 1.65.94.88 1.53 2.05 1.77 3.51l.39 2.58c.16 1.12.34 1.88.54 2.28.22.4.55.6.99.6.3 0 .62-.09.96-.27.34-.2.66-.45.96-.75l.51.54c-.58.66-1.18 1.13-1.8 1.41-.62.28-1.29.42-2.01.42Zm-8.01-12.66c1.46 0 2.59-.44 3.39-1.32.82-.9 1.23-2.22 1.23-3.96v-.63c0-3.32-1.88-4.98-5.64-4.98h-2.34v10.89h3.36Z" fill="#fff"/><g clip-path="url(#a)"><path d="m10.663 1.791.394.202-.913 2.086-.394-.202c-.3-.151-.441-.538-.3-.875l.394-.908a.6.6 0 0 1 .82-.303ZM9.482 19.877H8.269v2.54h1.213v-2.54Z" fill="#fff"/><path d="M6.57 16.275H5.497l3.324 4.391h1.055l-3.308-4.39Z" fill="#fff"/><path d="M6.332 16.275H5.277l3.307 4.391H9.64l-3.307-4.39ZM12.585 19.17l-3.938-4.51-.063.438 3.418 4.223.583-.152Z" fill="#fff"/><path d="M8.584 15.098h-.598l3.323 4.408.693-.186-3.418-4.222Z" fill="#fff"/><path d="M8.505 15.502 5.78 17.37c-.284.202-.662.117-.866-.169a.743.743 0 0 1-.063-.723l1.905-3.97.473-.068.772.27-.772.858v1.026l1.276.034v.874Z" fill="#fff"/><path d="M12.885 10.775h-.898L7.907 15.1h.899l4.079-4.324ZM12.05 7.612l.315-1.446-5.45 5.787.457.622 4.678-4.963Z" fill="#fff"/><path d="m7.063 12.057-.152.636 3.159.861.152-.635-3.16-.862ZM12.68 20.045v-1.531h-2.252L9.12 20.095v1.397l3.56-1.447ZM5.435 17.202c.226 0 .409-.196.409-.438 0-.241-.183-.437-.41-.437-.226 0-.409.196-.409.437 0 .242.183.438.41.438Z" fill="#fff"/><path d="M7.103 12.691c.226 0 .41-.195.41-.437s-.184-.437-.41-.437c-.226 0-.41.195-.41.437s.184.438.41.438ZM8.962 21.222c.165 0 .299-.143.299-.32 0-.176-.134-.32-.3-.32-.165 0-.299.144-.299.32 0 .177.134.32.3.32ZM11.797 19.725c.113 0 .205-.098.205-.219 0-.12-.092-.219-.205-.219-.113 0-.205.098-.205.22 0 .12.092.218.205.218ZM12.804 6.906h-.709v3.7h.71v-3.7Z" fill="#fff"/><path d="M12.413 11.212c.226 0 .41-.196.41-.437 0-.242-.184-.438-.41-.438-.226 0-.41.196-.41.438 0 .241.184.437.41.437ZM10.6 26c5.854 0 10.6-.097 10.6-.218 0-.12-4.746-.219-10.6-.219-5.854 0-10.6.098-10.6.219 0 .12 4.746.219 10.6.219Z" fill="#fff"/><path d="M14.648 25.41c.158-.134-.787-.268-1.843-.37H1.938v.573c1.968.033 12.348.134 12.71-.202Z" fill="#fff"/><path d="M12.805 25.04c1.056.102 1.985.22 1.843.37-.362.337-10.742.22-12.71.203v.168h13.939v-.74h-3.072ZM13.026 24.755c0-.572-1.78-.942-3.811-1.178v-.168l-.315-.017-5.387.354c-.473.033-.85.454-.85.959v.336h7.418c1.402-.084 2.945-.202 2.945-.286Z" fill="#fff"/><path d="M15.136 24.721c0-.505-.378-.925-.85-.959l-5.072-.336v.168c2.048.235 3.812.589 3.812 1.178 0 .084-1.56.202-2.961.303h5.055l.016-.354ZM9.324 22.248h-.992c-.173 0-.315.151-.315.336v.926h1.118c.221-.454.316-.926.19-1.262Z" fill="#fff"/><path d="M9.97 22.568h-.158a.313.313 0 0 0-.315-.32h-.173c.032.101.063.219.063.32H7.86v.302h1.497c-.048.22-.11.438-.205.623h.677v-.622h.158l-.016-.303Z" fill="#fff"/><path d="M20.35 2.245c-.016-.017-.048-.034-.063-.05-.52-.236-1.733 1.58-2.694 4.054-.913 2.321-1.291 4.39-.898 4.828.032.034.048.05.095.067.52.236 1.733-1.581 2.693-4.054.914-2.356 1.292-4.458.867-4.845Z" stroke="#fff" stroke-miterlimit="10"/><path d="M13.214 6.333c0-2.793 2.11-5.047 4.725-5.047.157 0 .315.017.457.017a6.158 6.158 0 0 0-3.403.1 4.363 4.363 0 0 1-1.543.169c-.236-.017-.488-.017-.724-.05a3.181 3.181 0 0 1-1.103-.303A4.384 4.384 0 0 0 11.135 1l-.11.05c-.08.169-.347.707-.568 1.161-.22.471-.41.96-.567 1.447-.141.488-.315 1.043-.362 1.228l.063.118c.158.067.315.151.488.219.363.151.693.353.977.622.189.168.362.337.551.505.394.37.709.807.977 1.295a6.648 6.648 0 0 0 2.63 2.81c-1.26-.959-2-2.49-2-4.122Z" fill="#fff"/><path d="M16.695 11.077c-.378-.437 0-2.507.898-4.828.96-2.473 2.173-4.29 2.693-4.055a.219.219 0 0 1 .063.05v-.016c-.473-.42-1.024-.623-1.575-.79-.063-.018-.19-.068-.378-.119-.158-.017-.3-.017-.457-.017-2.614 0-4.725 2.272-4.71 5.064 0 1.615.741 3.13 1.97 4.072l.063.033c.44.286.913.488 1.433.606Z" fill="#fff"/><path d="M19.672 7.141c.598-1.682-.628-2.72-.959-2.871-.423.824-.44.863-.917 2.002-.472 1.161-.558 1.568-.747 2.258.331.152 1.993.36 2.623-1.389Z" fill="#fff"/></g><defs><clipPath id="a"><path fill="#fff" transform="translate(0 1)" d="M0 0h24v25H0z"/></clipPath></defs></svg>