<svg width="101" height="26" viewBox="0 0 101 26" fill="none" xmlns="http://www.w3.org/2000/svg">
<path d="M0.593108 11.9601L1.95726 11.7377V0.943127L0.593108 0.735539V0.409331H5.249C6.712 0.409331 7.79937 0.720712 8.5111 1.34347C9.22282 1.96624 9.57869 2.86578 9.57869 4.04212C9.57869 5.21845 9.22282 6.11799 8.5111 6.74075C7.79937 7.36352 6.712 7.6749 5.249 7.6749H3.5883V11.7377L4.95245 11.9601V12.2715H0.593108V11.9601ZM5.04142 7.31903C6.87016 7.31903 7.78454 6.32558 7.78454 4.33867V3.74556C7.78454 1.76854 6.87016 0.780023 5.04142 0.780023H3.5883V7.31903H5.04142ZM20.6193 12.568C19.1662 12.568 18.1035 12.2468 17.4313 11.6042C16.7592 10.9518 16.4231 10.0918 16.4231 9.02422V0.943127L15.0589 0.735539V0.409331H19.4183V0.735539L18.0541 0.943127V9.02422C18.0541 9.99296 18.3259 10.7393 18.8696 11.2632C19.4133 11.7772 20.2387 12.0342 21.3459 12.0342C23.4415 12.0342 24.4893 11.0309 24.4893 9.02422V1.31382L23.1103 0.735539V0.409331H26.2686V0.735539L24.8452 1.31382V9.02422C24.8452 10.2104 24.514 11.1001 23.8517 11.6932C23.1894 12.2764 22.112 12.568 20.6193 12.568ZM31.7637 12.2715V11.9601L33.1278 11.7377V0.943127L31.7637 0.735539V0.409331H36.123V0.735539L34.7589 0.943127V11.9156H39.1924L40.4082 8.65353H40.8086V12.2715H31.7637ZM50.9923 12.568C50.073 12.568 49.1685 12.3061 48.2789 11.7822L47.0185 12.4198H46.6923V8.60904H47.0185L48.2937 11.367C49.1141 11.9502 50.0532 12.2418 51.1109 12.2418C51.9808 12.2418 52.6975 12.0145 53.261 11.5598C53.8343 11.0952 54.121 10.4477 54.121 9.61733C54.121 9.01433 53.9381 8.53985 53.5723 8.19387C53.2066 7.838 52.6135 7.55628 51.793 7.34869L49.3316 6.7111C48.4716 6.48374 47.8241 6.09822 47.3892 5.55454C46.9542 5.00097 46.7368 4.34855 46.7368 3.59728C46.7368 2.91521 46.8702 2.31222 47.1371 1.78831C47.4139 1.25451 47.8143 0.844276 48.3382 0.557607C48.8621 0.261053 49.4848 0.112776 50.2065 0.112776C51.106 0.112776 51.9116 0.265996 52.6234 0.572435L53.7058 0.112776H54.032V3.13763H53.7058L52.6382 0.972783C51.8968 0.616918 51.0912 0.438986 50.2213 0.438986C49.3613 0.438986 48.6841 0.661401 48.1899 1.10623C47.6956 1.54118 47.4485 2.11946 47.4485 2.84107C47.4485 3.37487 47.6215 3.79499 47.9675 4.10143C48.3233 4.40786 48.8423 4.65005 49.5244 4.82798L52.1785 5.52488C53.0385 5.74236 53.6761 6.11799 54.0913 6.65179C54.5164 7.1757 54.7289 7.9764 54.7289 9.05388C54.7289 10.1511 54.3879 11.0111 53.7058 11.6339C53.0336 12.2567 52.1291 12.568 50.9923 12.568ZM65.3902 12.568C64.4709 12.568 63.5664 12.3061 62.6768 11.7822L61.4164 12.4198H61.0902V8.60904H61.4164L62.6916 11.367C63.5121 11.9502 64.4512 12.2418 65.5089 12.2418C66.3788 12.2418 67.0954 12.0145 67.6589 11.5598C68.2322 11.0952 68.5189 10.4477 68.5189 9.61733C68.5189 9.01433 68.336 8.53985 67.9703 8.19387C67.6045 7.838 67.0114 7.55628 66.1909 7.34869L63.7295 6.7111C62.8695 6.48374 62.2221 6.09822 61.7871 5.55454C61.3522 5.00097 61.1347 4.34855 61.1347 3.59728C61.1347 2.91521 61.2681 2.31222 61.535 1.78831C61.8118 1.25451 62.2122 0.844276 62.7361 0.557607C63.26 0.261053 63.8828 0.112776 64.6044 0.112776C65.5039 0.112776 66.3096 0.265996 67.0213 0.572435L68.1037 0.112776H68.4299V3.13763H68.1037L67.0361 0.972783C66.2947 0.616918 65.4891 0.438986 64.6192 0.438986C63.7592 0.438986 63.0821 0.661401 62.5878 1.10623C62.0935 1.54118 61.8464 2.11946 61.8464 2.84107C61.8464 3.37487 62.0194 3.79499 62.3654 4.10143C62.7213 4.40786 63.2402 4.65005 63.9223 4.82798L66.5765 5.52488C67.4365 5.74236 68.0741 6.11799 68.4892 6.65179C68.9143 7.1757 69.1268 7.9764 69.1268 9.05388C69.1268 10.1511 68.7858 11.0111 68.1037 11.6339C67.4315 12.2567 66.527 12.568 65.3902 12.568ZM74.0795 12.2715V11.9601L75.5326 11.367L79.8178 0.112776H80.0551L84.103 11.7377L85.4672 11.9601V12.2715H81.1078V11.9601L82.3237 11.7673L81.0633 8.25318H77.1192L75.9181 11.367L77.2526 11.9601V12.2715H74.0795ZM77.2378 7.9418H80.9595L79.1802 2.72245L77.2378 7.9418ZM98.8825 12.4198C98.329 12.4198 97.9138 12.2863 97.637 12.0194C97.3602 11.7525 97.1724 11.2978 97.0735 10.6553L96.7918 8.66835C96.693 7.99617 96.4607 7.47225 96.0949 7.09662C95.739 6.7111 95.1805 6.51834 94.4194 6.51834H93.2628V11.7377L94.627 11.9601V12.2715H90.2676V11.9601L91.6318 11.7377V0.943127L90.2676 0.735539V0.409331H94.4194C96.0307 0.409331 97.1971 0.661401 97.9187 1.16554C98.6403 1.66968 99.0011 2.43578 99.0011 3.46383C99.0011 5.16408 97.9731 6.14765 95.917 6.41455V6.50351C96.6781 6.61225 97.2861 6.88409 97.7408 7.31903C98.2054 7.75398 98.497 8.33226 98.6156 9.05388L98.8084 10.3291C98.8875 10.8826 98.9764 11.2583 99.0753 11.456C99.184 11.6537 99.3471 11.7525 99.5646 11.7525C99.7129 11.7525 99.871 11.708 100.039 11.6191C100.207 11.5202 100.365 11.3967 100.514 11.2484L100.766 11.5153C100.479 11.8415 100.182 12.0738 99.876 12.2122C99.5695 12.3506 99.2384 12.4198 98.8825 12.4198ZM94.9235 6.16247C95.6451 6.16247 96.2036 5.945 96.5991 5.51006C97.0043 5.06523 97.207 4.41281 97.207 3.5528V3.24142C97.207 1.60049 96.2778 0.780023 94.4194 0.780023H93.2628V6.16247H94.9235Z" fill="black"/>
<path d="M3.59446 25.8064H3.1644V24.7949H0.467227V25.8064H0.0371658V24.3861H0.337147C0.609696 23.9277 0.842424 23.3702 1.03533 22.7136C1.23001 22.057 1.33797 21.4571 1.35921 20.9138H3.10334V24.3861H3.59446V25.8064ZM2.65204 24.3861V21.3199H1.76803C1.73617 21.7482 1.6291 22.2632 1.44681 22.865C1.26452 23.4649 1.05215 23.972 0.809683 24.3861H2.65204ZM5.31566 20.9138H5.73776V23.072C5.73776 23.4702 5.72537 23.8304 5.70059 24.1525H5.72183L7.89868 20.9138H8.39245V24.7949H7.9677V22.6579C7.9677 22.3022 7.98275 21.9287 8.01283 21.5376H7.98894L5.80943 24.7949H5.31566V20.9138ZM12.7684 21.8217C12.7684 22.0765 12.6869 22.2836 12.5241 22.4429C12.3631 22.6021 12.1401 22.703 11.8551 22.7455V22.7667C12.179 22.811 12.4241 22.9127 12.5905 23.072C12.7586 23.2313 12.8427 23.4393 12.8427 23.6959C12.8427 24.0587 12.7073 24.3419 12.4365 24.5454C12.1657 24.7471 11.7835 24.848 11.2897 24.848C10.8384 24.848 10.4685 24.7781 10.18 24.6383V24.2189C10.3499 24.3003 10.5331 24.3631 10.7295 24.4073C10.9278 24.4516 11.118 24.4737 11.3003 24.4737C11.6507 24.4737 11.9153 24.4073 12.0941 24.2746C12.2746 24.1419 12.3648 23.9507 12.3648 23.7012C12.3648 23.464 12.2648 23.2844 12.0649 23.1623C11.8666 23.0402 11.5702 22.9791 11.1755 22.9791H10.5968V22.5995H11.1516C11.5144 22.5995 11.795 22.5349 11.9932 22.4057C12.1932 22.2747 12.2932 22.0924 12.2932 21.8588C12.2932 21.6695 12.2215 21.5181 12.0781 21.4049C11.9348 21.2916 11.7419 21.235 11.4994 21.235C11.3047 21.235 11.1286 21.2571 10.9711 21.3013C10.8136 21.3456 10.6313 21.4332 10.4243 21.5642L10.2013 21.2615C10.38 21.1288 10.58 21.0288 10.8012 20.9615C11.0242 20.8925 11.2552 20.858 11.4941 20.858C11.8923 20.858 12.2038 20.9456 12.4286 21.1208C12.6551 21.2943 12.7684 21.5279 12.7684 21.8217ZM17.1761 24.7949L16.6929 23.5605H15.1373L14.6595 24.7949H14.2028L15.7373 20.8978H16.1169L17.6433 24.7949H17.1761ZM16.5523 23.1543L16.101 21.9517C16.0425 21.7995 15.9824 21.6128 15.9204 21.3916C15.8815 21.5615 15.8257 21.7482 15.7532 21.9517L15.2966 23.1543H16.5523ZM19.2424 20.9138H19.6645V23.072C19.6645 23.4702 19.6521 23.8304 19.6273 24.1525H19.6486L21.8254 20.9138H22.3192V24.7949H21.8945V22.6579C21.8945 22.3022 21.9095 21.9287 21.9396 21.5376H21.9157L19.7362 24.7949H19.2424V20.9138ZM20.8512 20.6032C20.5237 20.6032 20.2848 20.5403 20.1344 20.4147C19.984 20.2872 19.8999 20.0784 19.8822 19.7882H20.2963C20.3123 19.9722 20.36 20.1005 20.4397 20.1731C20.5211 20.2457 20.6618 20.2819 20.8618 20.2819C21.0441 20.2819 21.1786 20.243 21.2653 20.1651C21.3538 20.0873 21.4078 19.9616 21.4272 19.7882H21.844C21.8228 20.0678 21.7334 20.274 21.5759 20.4067C21.4184 20.5377 21.1768 20.6032 20.8512 20.6032ZM27.3906 24.7949H26.9393V22.9685H24.8952V24.7949H24.4439V20.9138H24.8952V22.565H26.9393V20.9138H27.3906V24.7949ZM31.6816 24.7949H29.518V20.9138H31.6816V21.3146H29.9693V22.565H31.5781V22.9632H29.9693V24.3914H31.6816V24.7949ZM36.0654 22.0447C36.0654 22.4376 35.9309 22.7402 35.6619 22.9526C35.3947 23.1632 35.0115 23.2685 34.5124 23.2685H34.0558V24.7949H33.6045V20.9138H34.6107C35.5805 20.9138 36.0654 21.2907 36.0654 22.0447ZM34.0558 22.8809H34.462C34.862 22.8809 35.1513 22.8163 35.3301 22.6871C35.5088 22.5579 35.5982 22.3508 35.5982 22.0659C35.5982 21.8093 35.5142 21.6181 35.346 21.4925C35.1779 21.3668 34.916 21.304 34.5602 21.304H34.0558V22.8809ZM39.6025 21.2615C39.1759 21.2615 38.8388 21.404 38.591 21.6889C38.345 21.9721 38.222 22.3606 38.222 22.8543C38.222 23.3623 38.3406 23.7552 38.5777 24.033C38.8167 24.3091 39.1565 24.4472 39.5971 24.4472C39.8679 24.4472 40.1768 24.3985 40.5236 24.3011V24.6967C40.2546 24.7976 39.9228 24.848 39.5281 24.848C38.9565 24.848 38.5149 24.6746 38.2034 24.3277C37.8937 23.9808 37.7389 23.4879 37.7389 22.849C37.7389 22.4491 37.8132 22.0986 37.9619 21.7978C38.1123 21.4969 38.3282 21.2651 38.6096 21.1022C38.8928 20.9394 39.2255 20.858 39.6078 20.858C40.0148 20.858 40.3706 20.9323 40.675 21.081L40.4838 21.4686C40.19 21.3305 39.8962 21.2615 39.6025 21.2615ZM45.2234 24.7949H44.6765L42.882 22.8278V24.7949H42.4307V20.9138H42.882V22.7933L44.6314 20.9138H45.1491L43.4315 22.7986L45.2234 24.7949ZM50.1886 22.849C50.1886 23.4702 50.0311 23.9587 49.7161 24.3144C49.4029 24.6702 48.9666 24.848 48.4073 24.848C47.8357 24.848 47.3941 24.6737 47.0827 24.325C46.7729 23.9746 46.6181 23.4808 46.6181 22.8437C46.6181 22.2119 46.7738 21.7226 47.0853 21.3757C47.3968 21.027 47.8392 20.8527 48.4127 20.8527C48.9701 20.8527 49.4055 21.0297 49.7188 21.3836C50.032 21.7376 50.1886 22.2261 50.1886 22.849ZM47.0959 22.849C47.0959 23.3747 47.2074 23.7737 47.4304 24.0463C47.6552 24.3171 47.9808 24.4525 48.4073 24.4525C48.8374 24.4525 49.1622 24.3171 49.3816 24.0463C49.6011 23.7755 49.7108 23.3764 49.7108 22.849C49.7108 22.3269 49.6011 21.9314 49.3816 21.6624C49.1639 21.3916 48.8409 21.2562 48.4127 21.2562C47.9826 21.2562 47.6552 21.3925 47.4304 21.665C47.2074 21.9358 47.0959 22.3305 47.0959 22.849ZM54.2805 24.7949H52.1169V20.9138H54.2805V21.3146H52.5682V22.565H54.177V22.9632H52.5682V24.3914H54.2805V24.7949ZM62.0447 22.849C62.0447 23.4702 61.8872 23.9587 61.5722 24.3144C61.2589 24.6702 60.8227 24.848 60.2634 24.848C59.6918 24.848 59.2502 24.6737 58.9387 24.325C58.629 23.9746 58.4742 23.4808 58.4742 22.8437C58.4742 22.2119 58.6299 21.7226 58.9414 21.3757C59.2529 21.027 59.6953 20.8527 60.2687 20.8527C60.8262 20.8527 61.2616 21.0297 61.5749 21.3836C61.8881 21.7376 62.0447 22.2261 62.0447 22.849ZM58.952 22.849C58.952 23.3747 59.0635 23.7737 59.2865 24.0463C59.5113 24.3171 59.8369 24.4525 60.2634 24.4525C60.6935 24.4525 61.0183 24.3171 61.2377 24.0463C61.4572 23.7755 61.5669 23.3764 61.5669 22.849C61.5669 22.3269 61.4572 21.9314 61.2377 21.6624C61.02 21.3916 60.697 21.2562 60.2687 21.2562C59.8387 21.2562 59.5113 21.3925 59.2865 21.665C59.0635 21.9358 58.952 22.3305 58.952 22.849ZM65.6348 21.2615C65.2083 21.2615 64.8712 21.404 64.6234 21.6889C64.3774 21.9721 64.2544 22.3606 64.2544 22.8543C64.2544 23.3623 64.373 23.7552 64.6101 24.033C64.8491 24.3091 65.1889 24.4472 65.6295 24.4472C65.9003 24.4472 66.2091 24.3985 66.556 24.3011V24.6967C66.287 24.7976 65.9552 24.848 65.5605 24.848C64.9889 24.848 64.5473 24.6746 64.2358 24.3277C63.9261 23.9808 63.7712 23.4879 63.7712 22.849C63.7712 22.4491 63.8456 22.0986 63.9942 21.7978C64.1447 21.4969 64.3606 21.2651 64.642 21.1022C64.9252 20.9394 65.2579 20.858 65.6402 20.858C66.0472 20.858 66.4029 20.9323 66.7073 21.081L66.5162 21.4686C66.2224 21.3305 65.9286 21.2615 65.6348 21.2615ZM68.4631 20.9138H69.5594C70.0745 20.9138 70.447 20.9907 70.6771 21.1447C70.9071 21.2987 71.0222 21.542 71.0222 21.8748C71.0222 22.1048 70.9576 22.2951 70.8284 22.4455C70.701 22.5942 70.5142 22.6906 70.2682 22.7349V22.7614C70.8576 22.8623 71.1523 23.172 71.1523 23.6906C71.1523 24.0374 71.0346 24.3082 70.7992 24.5029C70.5656 24.6976 70.2382 24.7949 69.8169 24.7949H68.4631V20.9138ZM68.9144 22.5756H69.6577C69.9762 22.5756 70.2054 22.526 70.3452 22.4269C70.485 22.3261 70.555 22.157 70.555 21.9199C70.555 21.7022 70.4771 21.5456 70.3213 21.45C70.1656 21.3527 69.9178 21.304 69.578 21.304H68.9144V22.5756ZM68.9144 22.9579V24.41H69.724C70.0373 24.41 70.2727 24.3498 70.4302 24.2295C70.5895 24.1074 70.6691 23.9171 70.6691 23.6587C70.6691 23.418 70.5877 23.241 70.4249 23.1278C70.2638 23.0145 70.0178 22.9579 69.6869 22.9579H68.9144ZM75.2123 24.7949H73.0487V20.9138H75.2123V21.3146H73.5V22.565H75.1087V22.9632H73.5V24.3914H75.2123V24.7949ZM77.1352 24.7949V20.9138H77.5865V24.3861H79.1342V20.9138H79.5908V24.3861H81.1411V20.9138H81.5924V24.3861H82.0491V25.8064H81.619V24.7949H77.1352ZM85.9763 24.7949H83.8127V20.9138H85.9763V21.3146H84.264V22.565H85.8728V22.9632H84.264V24.3914H85.9763V24.7949ZM90.846 24.7949H90.3947V22.9685H88.3506V24.7949H87.8993V20.9138H88.3506V22.565H90.3947V20.9138H90.846V24.7949ZM92.9787 20.9138H93.4008V23.072C93.4008 23.4702 93.3884 23.8304 93.3636 24.1525H93.3848L95.5617 20.9138H96.0554V24.7949H95.6307V22.6579C95.6307 22.3022 95.6457 21.9287 95.6758 21.5376H95.6519L93.4724 24.7949H92.9787V20.9138ZM100.344 24.7949H98.1802V20.9138H100.344V21.3146H98.6315V22.565H100.24V22.9632H98.6315V24.3914H100.344V24.7949Z" fill="black"/>
</svg>
