<svg width="43" height="54" viewBox="0 0 43 54" fill="none" xmlns="http://www.w3.org/2000/svg">
<path fill-rule="evenodd" clip-rule="evenodd" d="M21.4492 0C9.83922 0 0.449219 9.39 0.449219 21C0.449219 36.75 21.4492 54 21.4492 54C21.4492 54 42.4492 36.75 42.4492 21C42.4492 9.39 33.0592 0 21.4492 0ZM21.4492 30C26.4198 30 30.4492 25.9706 30.4492 21C30.4492 16.0294 26.4198 12 21.4492 12C16.4787 12 12.4492 16.0294 12.4492 21C12.4492 25.9706 16.4787 30 21.4492 30Z" fill="#D0A567"/>
<circle cx="21.4492" cy="21" r="11" fill="#D0A567"/>
<g clip-path="url(#clip0)">
<path d="M20.7747 6.01264L21.2833 6.27105L20.1033 8.94131L19.5947 8.6829C19.2082 8.48909 19.0251 7.9938 19.2082 7.56311L19.7168 6.40026C19.8999 5.99111 20.3678 5.81883 20.7747 6.01264Z" fill="white"/>
<path d="M19.2462 29.1622H17.6797V32.4139H19.2462V29.1622Z" fill="white"/>
<path d="M15.485 24.5526H14.1016L18.3942 30.1731H19.7573L15.485 24.5526Z" fill="white"/>
<path d="M15.1795 24.5526H13.8164L18.0887 30.1731H19.4518L15.1795 24.5526Z" fill="white"/>
<path d="M23.2573 28.2569L18.1712 22.4857L18.0898 23.0456L22.5045 28.4507L23.2573 28.2569Z" fill="white"/>
<path d="M18.0895 23.0449H17.3164L21.609 28.6869L22.5042 28.45L18.0895 23.0449Z" fill="white"/>
<path d="M17.9852 23.5629L14.4656 25.9532C14.0994 26.2116 13.6112 26.104 13.3467 25.7379C13.1636 25.4579 13.1229 25.1134 13.2653 24.8119L15.727 19.7298L16.3373 19.6437L17.3342 19.9882L16.3373 21.0865V22.4001L17.9852 22.4431V23.5629Z" fill="white"/>
<path d="M23.6436 17.5121H22.484L17.2148 23.0464H18.3745L23.6436 17.5121Z" fill="white"/>
<path d="M22.5658 13.4638L22.9727 11.6118L15.9336 19.0196L16.5236 19.8164L22.5658 13.4638Z" fill="white"/>
<path d="M16.122 19.1534L15.9258 19.9672L20.0061 21.0695L20.2023 20.2558L16.122 19.1534Z" fill="white"/>
<path d="M23.3791 29.3773V27.4177H20.4698L18.7812 29.4419V31.2293L23.3791 29.3773Z" fill="white"/>
<path d="M14.0211 25.7382C14.3133 25.7382 14.5501 25.4875 14.5501 25.1783C14.5501 24.8691 14.3133 24.6184 14.0211 24.6184C13.729 24.6184 13.4922 24.8691 13.4922 25.1783C13.4922 25.4875 13.729 25.7382 14.0211 25.7382Z" fill="white"/>
<path d="M16.1735 19.9651C16.4656 19.9651 16.7024 19.7144 16.7024 19.4052C16.7024 19.096 16.4656 18.8453 16.1735 18.8453C15.8813 18.8453 15.6445 19.096 15.6445 19.4052C15.6445 19.7144 15.8813 19.9651 16.1735 19.9651Z" fill="white"/>
<path d="M18.574 30.8841C18.7875 30.8841 18.9606 30.7009 18.9606 30.4749C18.9606 30.249 18.7875 30.0658 18.574 30.0658C18.3606 30.0658 18.1875 30.249 18.1875 30.4749C18.1875 30.7009 18.3606 30.8841 18.574 30.8841Z" fill="white"/>
<path d="M22.2371 28.9677C22.3832 28.9677 22.5016 28.8424 22.5016 28.6878C22.5016 28.5332 22.3832 28.4078 22.2371 28.4078C22.0911 28.4078 21.9727 28.5332 21.9727 28.6878C21.9727 28.8424 22.0911 28.9677 22.2371 28.9677Z" fill="white"/>
<path d="M23.5405 12.5592H22.625V17.2968H23.5405V12.5592Z" fill="white"/>
<path d="M23.0329 18.0716C23.325 18.0716 23.5618 17.8209 23.5618 17.5117C23.5618 17.2025 23.325 16.9518 23.0329 16.9518C22.7407 16.9518 22.5039 17.2025 22.5039 17.5117C22.5039 17.8209 22.7407 18.0716 23.0329 18.0716Z" fill="white"/>
<path d="M20.6917 37.0007C28.2534 37.0007 34.3833 36.8754 34.3833 36.7207C34.3833 36.5661 28.2534 36.4408 20.6917 36.4408C13.13 36.4408 7 36.5661 7 36.7207C7 36.8754 13.13 37.0007 20.6917 37.0007Z" fill="white"/>
<path d="M25.9217 36.2457C26.1251 36.0735 24.9045 35.9012 23.5414 35.772H9.50391V36.5041C12.0469 36.5472 25.4538 36.6764 25.9217 36.2457Z" fill="white"/>
<path d="M23.5414 35.772C24.9045 35.9012 26.1048 36.0519 25.9217 36.2457C25.4538 36.6764 12.0469 36.5257 9.50391 36.5041V36.7195H27.5086V35.772H23.5414Z" fill="white"/>
<path d="M23.824 35.4065C23.824 34.6743 21.5251 34.2006 18.9007 33.8991V33.6838L18.4938 33.6622L11.5361 34.1144C10.9258 34.1575 10.4375 34.6959 10.4375 35.3419V35.7726H20.0196C21.8303 35.6649 23.824 35.5142 23.824 35.4065Z" fill="white"/>
<path d="M26.5518 35.3632C26.5518 34.7172 26.0635 34.1788 25.4532 34.1358L18.9023 33.7051V33.9204C21.5471 34.2219 23.8256 34.6741 23.8256 35.4278C23.8256 35.5355 21.8116 35.6862 20.0009 35.8154H26.5314L26.5518 35.3632Z" fill="white"/>
<path d="M19.044 32.1974H17.7624C17.5386 32.1974 17.3555 32.3912 17.3555 32.6281V33.8125H18.7999C19.0847 33.231 19.2068 32.6281 19.044 32.1974Z" fill="white"/>
<path d="M19.8785 32.6065H19.675C19.675 32.3697 19.4919 32.1974 19.2681 32.1974H19.0444C19.085 32.3266 19.1257 32.4773 19.1257 32.6065H17.1523V32.9942H19.085C19.024 33.2741 18.9426 33.5541 18.8206 33.7909H19.6954V32.9942H19.8988L19.8785 32.6065Z" fill="white"/>
<path d="M33.2831 6.5931C33.2628 6.57156 33.2221 6.55003 33.2018 6.52849C32.5304 6.22701 30.9639 8.55272 29.7229 11.7183C28.5429 14.69 28.0547 17.3387 28.5633 17.8986C28.604 17.9417 28.6243 17.9632 28.6854 17.9847C29.3567 18.2862 30.9232 15.9605 32.1642 12.795C33.3442 9.78017 33.8324 7.08838 33.2831 6.5931Z" stroke="white" stroke-miterlimit="10"/>
<path d="M24.0691 11.8264C24.0691 8.25168 26.7953 5.36608 30.1724 5.36608C30.3759 5.36608 30.5793 5.38762 30.7624 5.38762C29.318 5.02153 27.7921 5.0646 26.368 5.51682C25.717 5.71063 25.0457 5.77524 24.3743 5.73217C24.0691 5.71063 23.7436 5.71063 23.4385 5.66756C22.9502 5.6245 22.462 5.49529 22.0144 5.27995C21.8109 5.17227 21.6075 5.08614 21.3837 5L21.2413 5.0646C21.1396 5.27995 20.7937 5.96904 20.5089 6.55047C20.2241 7.15343 19.98 7.77793 19.7765 8.40242C19.5934 9.02692 19.3696 9.73755 19.3086 9.97443L19.39 10.1252C19.5934 10.2113 19.7969 10.319 20.0206 10.4051C20.4886 10.5989 20.9158 10.8573 21.282 11.2019C21.5261 11.4172 21.7499 11.6326 21.994 11.8479C22.5026 12.3217 22.9095 12.8816 23.2554 13.5061C24.0285 15.035 25.2084 16.284 26.6529 17.1023C25.0253 15.8748 24.0691 13.9152 24.0691 11.8264Z" fill="white"/>
<path d="M28.5657 17.8985C28.0774 17.3386 28.5657 14.6899 29.7253 11.7182C30.9663 8.55263 32.5328 6.22692 33.2042 6.5284C33.2449 6.54994 33.2652 6.57147 33.2856 6.59301V6.57147C32.6752 6.03311 31.9632 5.7747 31.2511 5.55936C31.1698 5.53783 31.007 5.47322 30.7629 5.40862C30.5594 5.38708 30.3763 5.38708 30.1729 5.38708C26.7957 5.38708 24.0696 8.29422 24.09 11.8689C24.09 13.9362 25.0461 15.8743 26.633 17.0802L26.7144 17.1233C27.284 17.4894 27.8943 17.7478 28.5657 17.8985Z" fill="white"/>
<path d="M32.4109 12.8606C33.184 10.7072 31.6001 9.37862 31.1729 9.18481C30.6259 10.2396 30.6037 10.2901 29.9882 11.7484C29.3778 13.2343 29.2676 13.755 29.0234 14.6384C29.4507 14.8322 31.5972 15.1002 32.4109 12.8606Z" fill="white"/>
</g>
<defs>
<clipPath id="clip0">
<rect width="31" height="32" fill="white" transform="translate(7 5)"/>
</clipPath>
</defs>
</svg>
