<svg width="95" height="95" viewBox="0 0 95 95" fill="none" xmlns="http://www.w3.org/2000/svg">
<g clip-path="url(#clip0_1029_6225)">
<mask id="mask0_1029_6225" style="mask-type:luminance" maskUnits="userSpaceOnUse" x="0" y="0" width="95" height="95">
<path d="M95 0H0V95H95V0Z" fill="white"/>
</mask>
<g mask="url(#mask0_1029_6225)">
<path d="M47.2501 93.8802C73.0274 93.8802 93.924 72.9836 93.924 47.2063C93.924 21.429 73.0274 0.53241 47.2501 0.53241C21.4728 0.53241 0.576172 21.429 0.576172 47.2063C0.576172 72.9836 21.4728 93.8802 47.2501 93.8802Z" stroke="#CFA567"/>
<path d="M38.4137 53.1507C37.733 53.0601 36.6391 53.002 36.1032 52.5424C35.0581 51.646 35.9847 49.9373 35.5199 49.1325C35.2586 48.6799 34.393 48.1471 33.9708 47.804C32.2344 46.3931 34.2697 44.8761 34.1606 43.706C34.0862 42.9087 33.2993 41.8971 33.2156 41.0363C33.0564 39.4027 35.1723 39.246 35.5515 38.152C35.8746 37.2197 35.2536 35.9135 36.0391 34.9688C36.7717 34.0878 38.3272 34.5218 39.0812 33.8199C39.6984 33.2451 39.7787 32.1864 40.3213 31.5318C41.4502 30.1698 43.0637 31.9231 44.188 31.4853C45.1158 31.124 45.5718 29.9725 46.7408 29.8611C47.9302 29.7865 48.6621 31.3113 49.592 31.5275C50.5375 31.7473 51.8562 30.5531 52.9652 31.1838C54.0015 31.7732 53.9641 33.4988 54.7653 34.0157C55.3598 34.3993 56.5328 34.3676 57.2399 34.7165C58.8895 35.5302 57.6594 37.5004 58.2332 38.3205C58.8179 39.1562 60.2457 39.5525 60.4451 40.7035C60.6491 41.8809 59.4126 42.8946 59.5532 43.9202C59.6252 44.4449 60.1546 45.3589 60.3457 45.9334C61.0126 47.9377 58.5733 48.1435 58.1554 49.205C57.8439 49.9959 58.2673 51.2005 57.8422 52.0461C57.3513 53.0221 56.2001 52.8633 55.3146 53.1507L58.0625 60.6233C58.2282 61.0723 58.9281 62.3598 58.3396 62.6847C58.019 62.8615 54.5089 61.646 53.9213 61.4557C53.6484 61.9325 51.6821 65.0552 51.3464 65.1913C50.7539 65.4317 50.509 64.2772 50.3817 63.9162L47.9226 57.0036C47.699 57.1432 47.4804 57.2542 47.231 57.3405C46.6312 57.4194 46.2479 57.2538 45.7143 57.0036C45.4161 57.6514 45.232 58.3822 45.0004 59.0577L43.5574 63.2177C43.3882 63.702 43.084 65.3272 42.4177 65.1907C42.0469 65.1149 41.5493 64.0827 41.3554 63.7818L39.8818 61.5335C38.6653 61.8962 37.1027 62.3729 35.8671 62.6354C34.7171 62.8796 35.2268 61.7468 35.4415 61.1583L35.9536 59.7666C36.742 57.6143 37.7353 55.3088 38.4137 53.1507ZM46.7408 30.885C45.9281 31.2925 45.423 32.1547 44.5374 32.4847C43.4238 32.8997 41.7927 31.8768 41.2848 32.076C40.951 32.2069 40.5457 33.4146 40.3643 33.7684C39.3655 35.7145 37.913 34.9552 36.8407 35.6171C36.3572 36.4342 36.9734 37.9595 36.3048 38.9551C35.8147 39.6851 34.5376 40.2529 34.2827 40.6897C34.0194 41.1409 35.1068 42.7453 35.1802 43.5978C35.2669 44.6033 34.2032 46.1547 34.2924 46.5996C34.3805 47.039 36.1543 47.8915 36.533 48.8823C36.7326 49.4044 36.6475 50.3739 36.6386 50.9542C36.6264 51.7614 36.6637 51.8319 37.5063 51.966C38.2201 52.0795 39.1305 52.1343 39.7203 52.6C40.4062 53.1415 40.9199 54.9696 41.3284 55.1774C41.8951 55.4657 43.5542 54.3134 44.7069 54.8137C45.4493 55.136 46.2595 56.3457 47.0077 56.3016C47.7886 55.9131 48.2926 55.0546 49.1352 54.7588C50.2353 54.3727 51.7977 55.3951 52.3473 55.1553C52.9465 54.8938 53.2611 53.0612 54.1527 52.4628C55.5646 51.5151 57.0355 52.6968 57.0274 50.7611C57.019 48.7371 57.0739 48.4783 58.7364 47.3018C60.4323 46.1015 58.4008 45.595 58.5227 43.652C58.5821 42.7045 59.3408 41.9497 59.4521 41.0358C59.5266 40.4226 57.5475 39.5843 57.1623 38.4481C56.9155 37.7192 57.2402 36.2508 56.9901 35.8446C56.5277 35.0932 54.4047 35.7604 53.4426 33.9926C53.2001 33.5467 52.8747 32.1775 52.3486 32.0392C51.7711 31.8873 50.4174 32.8074 49.3537 32.559C48.4161 32.3399 47.2936 30.8827 46.7408 30.885ZM39.3166 53.7276C38.3129 56.2545 37.3743 58.826 36.4676 61.3898C37.0407 61.2472 39.8862 60.3267 40.2611 60.5508C40.6803 60.8016 41.8512 62.7206 42.1418 63.2051L42.3782 63.5871C43.2023 61.3132 44.3008 58.5563 44.8791 56.224C43.4661 54.7723 41.9516 57.2522 40.4926 55.8354C39.8746 55.2351 39.7906 54.3715 39.3166 53.7276ZM54.3902 53.7276C54.0515 54.4534 53.5434 55.8316 52.7539 56.1357C51.1949 56.7364 50.3198 54.721 48.7486 56.3016C48.9918 57.1132 49.29 57.9057 49.5785 58.7018L50.9025 62.3819C51.0444 62.7842 51.2015 63.1822 51.3355 63.5871C51.4447 63.4077 51.551 63.2254 51.6672 63.0505L52.7299 61.4375C53.0535 60.9498 53.2778 60.2752 53.9679 60.4222C55.0391 60.6506 56.1311 61.14 57.243 61.3898C57.0033 60.6582 54.4933 53.8341 54.3902 53.7276Z" fill="#CFA567"/>
<path d="M43.2178 37.3407C43.6156 37.1216 44.9938 36.399 45.3527 36.9781C45.7902 37.684 44.6956 37.8566 44.2828 38.0103C40.5304 39.4068 39.0626 43.8112 41.0929 47.073C42.9742 50.0957 47.1656 51.1074 50.3203 49.2845C55.0011 46.5798 54.4031 40.01 49.3 37.9875C48.5141 37.6759 48.121 37.7087 47.3489 37.5211C46.7375 37.3726 46.6654 36.7734 47.2057 36.508L47.2372 36.4928C47.871 36.4592 48.6449 36.6836 49.2484 36.8736C55.8487 38.9509 56.4703 47.5726 50.235 50.4944C46.4177 52.2832 41.6974 50.6567 39.8459 47.0399C38.082 43.5939 39.5509 39.0422 43.2178 37.3407Z" fill="#CFA567"/>
<path d="M45.7104 45.5167C46.1401 45.1703 46.5194 44.7109 46.9048 44.3102L49.1445 41.9836C49.4311 41.686 49.9157 41.0902 50.2702 40.915C50.4304 40.9029 50.5644 40.9075 50.6993 41.0085C51.3299 41.4807 50.2185 42.3451 49.91 42.6658L46.778 45.9471C45.7821 46.9811 45.8852 47.1583 44.7913 46.0446L43.3295 44.5401C42.1974 43.4152 43.1234 42.995 43.4972 43.2628C44.0693 43.6726 45.1922 44.9733 45.7104 45.5167Z" fill="#CFA567"/>
<path d="M17.8732 36.2034C17.6133 36.9558 17.2292 37.5656 16.7206 38.033C16.2122 38.5003 15.5849 38.7844 14.8389 38.8852C14.0928 38.9859 13.2368 38.8696 12.271 38.5361C11.2594 38.1866 10.4912 37.7336 9.96653 37.1769C9.43857 36.6133 9.12227 35.9806 9.01752 35.2787C8.91285 34.5769 8.99133 33.8472 9.25295 33.0897C9.39686 32.6729 9.57876 32.2862 9.79867 31.9297C10.0152 31.5664 10.23 31.2821 10.4431 31.0769L11.3714 31.8242C11.1819 32.0433 10.9886 32.3065 10.7914 32.6139C10.5959 32.9163 10.4481 33.2123 10.3481 33.5021C10.1479 34.0816 10.1056 34.6076 10.2214 35.08C10.3388 35.5473 10.6056 35.9609 11.0218 36.3208C11.4398 36.6757 12.0021 36.9752 12.7086 37.2192C13.3848 37.4527 13.9934 37.5604 14.5345 37.5425C15.0773 37.5195 15.539 37.3688 15.9196 37.0906C16.2967 36.8055 16.5811 36.3859 16.7725 35.8318C16.9252 35.3895 17.0173 34.9746 17.0487 34.5872C17.075 34.198 17.0746 33.8366 17.0476 33.503L18.1762 33.8927C18.2219 34.2214 18.2233 34.5718 18.1801 34.9438C18.1388 35.3108 18.0364 35.7306 17.8732 36.2034Z" fill="#CFA567"/>
<path d="M13.1494 25.3324C13.5596 24.701 14.0509 24.2505 14.6235 23.9811C15.1961 23.7118 15.8126 23.6216 16.473 23.7107C17.1289 23.7968 17.7929 24.0581 18.4649 24.4946L19.1618 24.9473L15.8352 30.0687C16.7145 30.6206 17.5181 30.8347 18.246 30.7111C18.9741 30.5876 19.5856 30.1447 20.0807 29.3824C20.3854 28.9134 20.612 28.4706 20.7607 28.0542C20.9094 27.6377 21.0262 27.1813 21.1113 26.685L22.0991 27.3265C22.0228 27.8093 21.9029 28.2605 21.7393 28.6802C21.5787 29.0953 21.3358 29.5532 21.0106 30.0538C20.5478 30.7665 19.9992 31.2951 19.3648 31.6398C18.7289 31.9771 18.0338 32.1092 17.2796 32.0362C16.5254 31.9631 15.7401 31.6615 14.9238 31.1313C14.1254 30.6127 13.5218 30.0314 13.1128 29.3874C12.7023 28.7359 12.4973 28.0642 12.498 27.372C12.5016 26.6753 12.7188 25.9954 13.1494 25.3324ZM14.0607 25.9436C13.6711 26.5434 13.5567 27.1489 13.7177 27.7602C13.8786 28.3713 14.2889 28.9392 14.9486 29.4639L17.4974 25.5401C17.0524 25.2574 16.6191 25.0754 16.1974 24.9939C15.7742 24.905 15.3822 24.9358 15.0216 25.0863C14.6564 25.2338 14.3361 25.5196 14.0607 25.9436Z" fill="#CFA567"/>
<path d="M20.6002 16.7419C21.4285 16.0141 22.3392 15.7184 23.3327 15.855C24.3261 15.9915 25.3252 16.6313 26.3299 17.7747C26.9938 18.5301 27.4381 19.2638 27.6627 19.9757C27.8873 20.6876 27.909 21.3559 27.7277 21.9806C27.5504 22.6017 27.183 23.1573 26.6255 23.6472C26.2741 23.9561 25.9241 24.1812 25.5759 24.3226C25.2276 24.464 24.8893 24.5393 24.5609 24.5486C24.2326 24.5579 23.9242 24.5247 23.6356 24.4489L23.5629 24.5128C23.7134 24.6598 23.8944 24.8372 24.1059 25.0452C24.3214 25.2496 24.5019 25.4346 24.6474 25.6003L27.0438 28.3273L26.0318 29.2165L17.5859 19.6056L18.4162 18.876L19.4122 19.7406L19.4607 19.6979C19.4124 19.3824 19.4085 19.06 19.4487 18.7311C19.4854 18.3982 19.5945 18.066 19.7759 17.7347C19.9579 17.3959 20.2326 17.065 20.6002 16.7419ZM21.1701 17.7447C20.7095 18.1494 20.4159 18.5649 20.2894 18.9911C20.1668 19.4139 20.1971 19.8598 20.3803 20.3289C20.5599 20.794 20.8799 21.2968 21.3404 21.8371L21.5108 22.031C22.0043 22.5926 22.4821 23.014 22.9441 23.2953C23.4101 23.5731 23.8733 23.6888 24.3336 23.6423C24.7979 23.5921 25.2705 23.3559 25.7512 22.9334C26.1634 22.5713 26.4091 22.1584 26.4885 21.6948C26.568 21.2312 26.5004 20.7429 26.2858 20.2298C26.0718 19.7092 25.7374 19.1903 25.283 18.6732C24.5943 17.8894 23.894 17.4022 23.1823 17.2114C22.471 17.0131 21.8003 17.1909 21.1701 17.7447Z" fill="#CFA567"/>
<path d="M32.4321 10.8293L29.8354 12.148L33.324 19.0172L32.1444 19.6163L28.6558 12.7472L26.0951 14.0476L25.5801 13.0334L31.917 9.81516L32.4321 10.8293Z" fill="#CFA567"/>
<path d="M35.9148 8.48218L37.109 13.9107C37.1321 14.0158 37.1595 14.1529 37.1912 14.3222C37.2218 14.4862 37.2526 14.6639 37.2837 14.8553C37.3136 15.0414 37.3425 15.2223 37.3701 15.3979C37.4018 15.5672 37.4245 15.7081 37.4383 15.8207L40.5397 7.46481L42.147 7.11124L44.0466 15.7465L42.8254 16.0151L41.6607 10.7205C41.6237 10.5524 41.5789 10.3365 41.5264 10.0727C41.4739 9.80896 41.4252 9.54981 41.3802 9.29538C41.334 9.03574 41.298 8.83434 41.2721 8.69143L38.1847 17.036L36.5695 17.3913L34.6699 8.75602L35.9148 8.48218Z" fill="#CFA567"/>
<path d="M51.5546 3.49908L51.2199 7.06526C52.0856 7.22216 52.8246 7.5211 53.4368 7.9621C54.0495 8.39776 54.5049 8.95636 54.8028 9.63796C55.1007 10.3196 55.2078 11.1075 55.1238 12.0016C55.0414 12.8799 54.7955 13.6292 54.3861 14.2498C53.9821 14.8709 53.4383 15.3411 52.7546 15.6605C52.0764 15.9803 51.2813 16.1353 50.3694 16.1253L50.0105 19.9485L48.7093 19.8263L49.0681 16.0031C48.2014 15.857 47.4617 15.566 46.8489 15.1304C46.2421 14.6899 45.7899 14.1262 45.4925 13.4393C45.195 12.7523 45.0883 11.9617 45.1722 11.0675C45.2562 10.1733 45.4999 9.4183 45.9034 8.80254C46.3128 8.18196 46.859 7.71466 47.5421 7.40066C48.2257 7.0813 49.0313 6.93005 49.9588 6.94689L50.2936 3.38071L51.5546 3.49908ZM49.8547 8.0553C49.1692 8.05036 48.5936 8.16919 48.1278 8.4118C47.6621 8.65434 47.2993 9.00922 47.0394 9.47638C46.7848 9.94403 46.6256 10.5179 46.5618 11.1979C46.4979 11.878 46.55 12.4743 46.7179 12.9871C46.8864 13.4945 47.1768 13.9106 47.5893 14.2357C48.0017 14.5607 48.5423 14.787 49.2109 14.9146L49.8547 8.0553ZM51.1143 8.18974L50.4719 15.033C51.1531 15.0267 51.7242 14.8993 52.1851 14.6509C52.6512 14.4029 53.0116 14.0451 53.2662 13.5775C53.5261 13.1103 53.6875 12.5421 53.7503 11.8728C53.8458 10.8554 53.6769 10.0373 53.2434 9.41863C52.8104 8.79461 52.1007 8.38495 51.1143 8.18974Z" fill="#CFA567"/>
<path d="M60.479 9.18277L58.3063 14.2989C58.2643 14.3979 58.2071 14.5255 58.1349 14.6819C58.0648 14.8332 57.9869 14.9959 57.9014 15.1698C57.8178 15.3389 57.7365 15.503 57.6572 15.6622C57.585 15.8185 57.5219 15.9465 57.4677 16.0462L64.8377 11.0338L66.3525 11.6771L62.8964 19.8153L61.7454 19.3265L63.8645 14.3366C63.9318 14.1783 64.0204 13.9764 64.1305 13.731C64.2406 13.4855 64.351 13.2461 64.4618 13.0128C64.5747 12.7744 64.6621 12.5894 64.7238 12.4579L57.3718 17.4693L55.8496 16.8228L59.3057 8.68448L60.479 9.18277Z" fill="#CFA567"/>
<path d="M73.6264 16.8795L74.7875 17.7913L69.1507 18.7909L69.5677 24.9344L68.3306 23.9629L67.9412 17.9539L65.1709 21.4815L64.1113 20.6494L69.5723 13.6957L70.6318 14.5278L67.9811 17.9031L73.6264 16.8795Z" fill="#CFA567"/>
<path d="M79.1034 22.5869C79.7427 23.4249 80.0291 24.1906 79.9628 24.8839C79.8964 25.5771 79.4506 26.2386 78.6253 26.8681L73.8469 30.5135L73.2548 29.7374L74.1373 28.7395L74.0982 28.6882C73.6916 28.6872 73.319 28.6466 72.9806 28.5666C72.6465 28.4833 72.3269 28.3348 72.0218 28.1211C71.7242 27.9083 71.4205 27.5989 71.1106 27.1927C70.7844 26.765 70.569 26.3275 70.4641 25.8797C70.3626 25.4363 70.3903 25.0026 70.5471 24.5785C70.7072 24.1588 71.0203 23.7711 71.4863 23.4156C72.1876 22.8806 72.9384 22.7475 73.7387 23.0163C74.5391 23.2852 75.3902 23.9753 76.2921 25.0866L77.2682 26.2596L77.6979 25.9318C78.3051 25.4687 78.6311 25.0136 78.6759 24.5669C78.7205 24.1201 78.5619 23.6594 78.1999 23.1848C77.9193 22.817 77.5984 22.5072 77.2371 22.2552C76.8756 22.0032 76.5081 21.7831 76.1344 21.5946L76.6931 20.651C77.097 20.8435 77.5131 21.1009 77.9418 21.4233C78.3704 21.7457 78.7576 22.1336 79.1034 22.5869ZM76.508 26.8193L75.6459 25.7824C74.943 24.9319 74.3284 24.4233 73.8021 24.2566C73.2758 24.0899 72.7818 24.1827 72.3199 24.535C71.918 24.8417 71.7138 25.1902 71.7073 25.5808C71.7009 25.9712 71.8509 26.3675 72.1575 26.7694C72.6338 27.3937 73.1968 27.7726 73.8465 27.906C74.4963 28.0394 75.1675 27.842 75.8601 27.3136L76.508 26.8193Z" fill="#CFA567"/>
<path d="M84.3043 34.6997L83.1387 32.0306L76.0782 35.1129L75.5488 33.9004L82.61 30.8181L81.4606 28.186L82.5032 27.7309L85.3468 34.2446L84.3043 34.6997Z" fill="#CFA567"/>
<path d="M22.597 69.5819L23.6218 70.6445L17.9012 70.8606L17.4706 77.0031L16.3786 75.8709L16.818 69.8654L13.5896 72.9792L12.6543 72.0095L19.0183 65.8714L19.9536 66.8412L16.8645 69.8205L22.597 69.5819Z" fill="#CFA567"/>
<path d="M27.8706 73.352C28.7677 73.9054 29.3094 74.5177 29.4958 75.1887C29.6822 75.8597 29.5029 76.637 28.9579 77.5204L25.8025 82.6359L24.9717 82.1231L25.4382 80.8752L25.3833 80.8414C25.0033 80.9861 24.641 81.0817 24.2963 81.1283C23.9546 81.1701 23.6029 81.146 23.2416 81.0557C22.8875 80.9638 22.4931 80.7836 22.0583 80.5154C21.6006 80.233 21.2425 79.9017 20.9844 79.5212C20.7308 79.1436 20.6012 78.7287 20.5957 78.2767C20.5947 77.8275 20.7482 77.3534 21.0559 76.8544C21.519 76.1037 22.1723 75.7105 23.0158 75.6748C23.8593 75.6391 24.9012 75.9784 26.1414 76.6929L27.473 77.4385L27.7567 76.9784C28.1576 76.3284 28.299 75.7869 28.1808 75.3537C28.0625 74.9206 27.7493 74.5473 27.2412 74.2339C26.8475 73.991 26.4369 73.8167 26.0093 73.7109C25.5816 73.6052 25.1597 73.5312 24.7432 73.4892L24.9267 72.4081C25.3727 72.4431 25.8536 72.5343 26.3692 72.6818C26.8849 72.8293 27.3853 73.0527 27.8706 73.352ZM26.9637 78.2333L25.7874 77.5741C24.8264 77.0319 24.0704 76.7772 23.5193 76.81C22.9682 76.8429 22.5402 77.1065 22.2353 77.6009C21.9699 78.0312 21.9041 78.4298 22.0379 78.7967C22.1718 79.1637 22.4538 79.4798 22.8841 79.7452C23.5524 80.1574 24.2137 80.3095 24.8681 80.2013C25.5226 80.0932 26.0784 79.6683 26.5359 78.9268L26.9637 78.2333Z" fill="#CFA567"/>
<path d="M34.1266 76.6994L33.261 79.7578C33.1102 80.2908 33.1437 80.725 33.3618 81.0607C33.5849 81.3977 33.976 81.6453 34.5349 81.8035C35.0731 81.9558 35.5855 82.0114 36.0723 81.9703C36.559 81.9291 37.0678 81.83 37.5985 81.6728L38.6442 77.978L39.9328 78.3426L37.525 86.8498L36.2365 86.4855L37.3151 82.6739C36.7526 82.8449 36.2162 82.9532 35.7058 82.9986C35.1954 83.044 34.6194 82.9763 33.9778 82.7946C33.1032 82.5469 32.4898 82.1273 32.1374 81.5358C31.7902 80.9456 31.7264 80.2624 31.946 79.4862L32.838 76.3347L34.1266 76.6994Z" fill="#CFA567"/>
<path d="M46.1641 78.6138C46.917 78.6161 47.5619 78.7847 48.0987 79.1196C48.6355 79.4547 49.0456 79.9238 49.3289 80.527C49.6121 81.1248 49.7526 81.8244 49.7503 82.626L49.7478 83.4563L43.6409 83.4389C43.654 84.4765 43.9098 85.2679 44.4084 85.8131C44.907 86.3575 45.6107 86.6309 46.5196 86.6334C47.079 86.635 47.5739 86.5855 48.0044 86.4847C48.435 86.3839 48.8818 86.2344 49.3449 86.037L49.3414 87.215C48.8944 87.4124 48.4503 87.5561 48.009 87.6462C47.5732 87.737 47.0567 87.7808 46.4598 87.7792C45.61 87.7767 44.8683 87.6024 44.2347 87.2563C43.6065 86.9052 43.1186 86.3922 42.771 85.7189C42.4234 85.0457 42.2511 84.2229 42.2539 83.2489C42.2567 82.2971 42.4178 81.4747 42.7371 80.7819C43.0619 80.0837 43.5152 79.5472 44.0972 79.1724C44.6845 78.7977 45.3734 78.6115 46.1641 78.6138ZM46.1446 79.7109C45.4294 79.7088 44.8586 79.9411 44.4323 80.4078C44.0061 80.8743 43.7514 81.5271 43.6683 82.3658L48.3472 82.3796C48.3434 81.8525 48.2614 81.3897 48.1012 80.9913C47.9465 80.5874 47.7081 80.2748 47.386 80.0534C47.064 79.8265 46.6502 79.7124 46.1446 79.7109Z" fill="#CFA567"/>
<path d="M57.6209 86.3153C56.8478 86.5045 56.127 86.5128 55.4587 86.3385C54.7904 86.1642 54.2116 85.7908 53.7226 85.2191C53.2335 84.6466 52.8674 83.8643 52.6243 82.8714C52.3697 81.832 52.3341 80.941 52.5177 80.1983C52.7051 79.4492 53.0654 78.8404 53.5985 78.372C54.1317 77.9036 54.7873 77.5742 55.5657 77.3834C55.9941 77.2785 56.4176 77.2219 56.8364 77.2134C57.2591 77.1985 57.6144 77.2249 57.9023 77.2928L57.7774 78.4779C57.4906 78.4374 57.1646 78.4176 56.7993 78.4185C56.4393 78.4181 56.1104 78.4544 55.8127 78.5273C55.2171 78.6732 54.7523 78.9228 54.418 79.2759C54.0889 79.6279 53.8859 80.0763 53.809 80.6212C53.7372 81.1648 53.7903 81.7996 53.9682 82.5257C54.1384 83.2208 54.3777 83.79 54.686 84.2353C54.9996 84.6789 55.3764 84.9853 55.8165 85.1547C56.2605 85.3166 56.7672 85.3282 57.3366 85.1894C57.7911 85.0779 58.1897 84.93 58.5322 84.7466C58.8736 84.5574 59.1772 84.3616 59.4429 84.1584L59.727 85.3174C59.4755 85.5347 59.1818 85.7255 58.8457 85.8907C58.515 86.0551 58.1066 86.1964 57.6209 86.3153Z" fill="#CFA567"/>
<path d="M65.3455 74.6763L62.7351 75.9675L66.1511 82.873L64.9652 83.4596L61.5493 76.5542L58.975 77.8275L58.4707 76.808L64.8412 73.6567L65.3455 74.6763Z" fill="#CFA567"/>
<path d="M73.1035 69.824C73.4628 70.2456 73.6207 70.6798 73.5775 71.1265C73.5307 71.5692 73.3477 71.9971 73.0286 72.4103L73.0705 72.4595C73.5409 72.1575 74.0323 72.0003 74.5445 71.9877C75.0573 71.9676 75.5265 72.2073 75.9521 72.7067C76.28 73.0915 76.4774 73.5098 76.5444 73.9615C76.6113 74.4132 76.5197 74.8904 76.2698 75.3931C76.0199 75.8957 75.5796 76.4157 74.9493 76.9529L72.051 79.4226L66.3164 72.6928L69.19 70.2441C69.6731 69.8324 70.1459 69.525 70.6085 69.3215C71.0717 69.1105 71.5144 69.0372 71.9366 69.1014C72.3587 69.1656 72.7477 69.4065 73.1035 69.824ZM74.8898 73.6119C74.5514 73.2149 74.1558 73.0573 73.7029 73.1394C73.254 73.2181 72.7431 73.5016 72.1701 73.9899L70.4446 75.4602L72.37 77.7198L74.1201 76.2286C74.685 75.7472 75.0415 75.295 75.1898 74.8719C75.3386 74.4413 75.2386 74.0213 74.8898 73.6119ZM72.1652 70.8249C71.8931 70.5056 71.5741 70.3677 71.2082 70.4109C70.8389 70.4501 70.3881 70.6964 69.8559 71.1499L68.0691 72.6724L69.7173 74.6066L71.326 73.2358C71.8787 72.7649 72.2282 72.3293 72.3746 71.929C72.5211 71.5286 72.4513 71.1606 72.1652 70.8249Z" fill="#CFA567"/>
<path d="M74.9069 63.6782C75.5034 62.809 76.1414 62.2978 76.8207 62.1444C77.5001 61.9911 78.2676 62.2081 79.1234 62.7956L84.0784 66.197L83.5258 67.0017L82.3023 66.475L82.2658 66.5282C82.3919 66.9148 82.4697 67.2813 82.4993 67.6278C82.5245 67.9712 82.4832 68.3213 82.3754 68.6778C82.2661 69.0269 82.067 69.412 81.7778 69.8333C81.4735 70.2767 81.125 70.618 80.7323 70.8573C80.3428 71.0922 79.9221 71.2014 79.4703 71.1848C79.0216 71.1638 78.5556 70.9874 78.0723 70.6556C77.3451 70.1564 76.9843 69.4847 76.9898 68.6405C76.9953 67.7962 77.3851 66.7722 78.1593 65.5684L78.9691 64.2748L78.5234 63.9689C77.8938 63.5367 77.3598 63.3691 76.9214 63.466C76.483 63.563 76.0949 63.8576 75.757 64.3498C75.4952 64.7311 75.3011 65.1327 75.1744 65.5547C75.0479 65.9766 74.9535 66.3945 74.8912 66.8084L73.8203 66.5723C73.8771 66.1285 73.9916 65.6527 74.1641 65.1449C74.3366 64.6371 74.5842 64.1481 74.9069 63.6782ZM79.7381 64.8223L79.0222 65.965C78.4337 66.8983 78.1423 67.641 78.1483 68.193C78.1542 68.745 78.3966 69.1854 78.8755 69.5141C79.2922 69.8003 79.6872 69.8855 80.0602 69.7696C80.4332 69.6539 80.7628 69.3876 81.0489 68.9708C81.4933 68.3235 81.6775 67.6703 81.6014 67.0114C81.5253 66.3525 81.1281 65.7765 80.4098 65.2834L79.7381 64.8223Z" fill="#CFA567"/>
</g>
</g>
<defs>
<clipPath id="clip0_1029_6225">
<rect width="95" height="95" fill="white"/>
</clipPath>
</defs>
</svg>
