<svg id="soc-yt" viewBox="0 0 29 30" xmlns="http://www.w3.org/2000/svg">
	<path d="M21.7492 6.44483C23.1992 6.58983 25.0842 6.44483 26.0992 7.60483C27.2592 8.76483 27.4042 10.6498 27.4042 12.0998C27.5492 13.8398 27.5492 16.3048 27.5492 17.8998C27.4042 19.4948 27.5492 21.3798 26.8242 22.8298C26.0992 24.4248 24.7942 25.0048 23.1992 25.1498C21.4592 25.2948 10.7292 25.2948 7.24922 25.1498C5.65422 25.0048 3.76922 25.0048 2.60922 23.6998C1.59422 22.5398 1.59422 20.7998 1.44922 19.3498C1.44922 17.6098 1.44922 15.1448 1.44922 13.4048C1.44922 11.8098 1.44922 9.92483 2.17422 8.47483C2.89922 7.02483 4.34922 6.73483 5.94422 6.58983C7.68422 6.44483 18.2692 6.29983 21.7492 6.44483ZM11.5992 11.3748V20.0748L19.5742 15.7248L11.5992 11.3748Z"/>
</svg>