<svg width="29" height="31" fill="none" xmlns="http://www.w3.org/2000/svg"><g clip-path="url(#clip0)"><circle cx="14.125" cy="8.584" r="5" stroke="#fff"/><mask id="a" fill="#fff"><path d="M4.227 27.42c0-1.397.256-2.78.754-4.07a10.722 10.722 0 012.146-3.45 9.885 9.885 0 013.212-2.306 9.307 9.307 0 013.788-.81c1.3 0 2.588.275 3.789.81a9.886 9.886 0 013.212 2.305c.919.988 1.648 2.16 2.146 3.45.497 1.291.753 2.674.753 4.071h-1.046c0-1.249-.229-2.486-.674-3.64a9.588 9.588 0 00-1.919-3.086 8.84 8.84 0 00-2.872-2.062 8.326 8.326 0 00-3.389-.724 8.325 8.325 0 00-3.388.724 8.84 8.84 0 00-2.872 2.062 9.588 9.588 0 00-1.92 3.086 10.13 10.13 0 00-.674 3.64H4.227z"/></mask><path d="M4.227 27.42c0-1.397.256-2.78.754-4.07a10.722 10.722 0 012.146-3.45 9.885 9.885 0 013.212-2.306 9.307 9.307 0 013.788-.81c1.3 0 2.588.275 3.789.81a9.886 9.886 0 013.212 2.305c.919.988 1.648 2.16 2.146 3.45.497 1.291.753 2.674.753 4.071h-1.046c0-1.249-.229-2.486-.674-3.64a9.588 9.588 0 00-1.919-3.086 8.84 8.84 0 00-2.872-2.062 8.326 8.326 0 00-3.389-.724 8.325 8.325 0 00-3.388.724 8.84 8.84 0 00-2.872 2.062 9.588 9.588 0 00-1.92 3.086 10.13 10.13 0 00-.674 3.64H4.227z" stroke="#fff" stroke-width="2" mask="url(#a)"/><path fill="#fff" d="M4.449 26.262h19.184v1.158H4.449z"/></g><defs><clipPath id="clip0"><path fill="#fff" transform="translate(.129 .42)" d="M0 0h28v30H0z"/></clipPath></defs></svg>