<svg width="38" height="38" viewBox="0 0 38 38" fill="none" xmlns="http://www.w3.org/2000/svg">
<g clip-path="url(#clip0)">
<path d="M36.2732 19.1594V13.8186C36.2732 12.0076 34.8685 10.5348 33.0936 10.3919L28.1337 1.72873C27.6741 0.927505 26.9319 0.354843 26.0438 0.11705C25.1599 -0.119124 24.2356 0.00491366 23.4445 0.465359L6.44171 10.3641H3.45549C1.55031 10.3641 0.000976562 11.9133 0.000976562 13.8186V34.5455C0.000976562 36.4507 1.55023 38.0001 3.45549 38.0001H32.8187C34.7239 38.0001 36.2732 36.4508 36.2732 34.5455V29.2047C37.2763 28.847 38.0004 27.8974 38.0004 26.7729V21.5912C38.0004 20.4668 37.2763 19.5171 36.2732 19.1594ZM31.0866 10.3641H23.5592L29.2048 7.07725L31.0866 10.3641ZM28.3467 5.57835L20.1264 10.3641H16.7168L27.4941 4.08933L28.3467 5.57835ZM24.314 1.9581C24.7045 1.72954 25.1607 1.66882 25.5968 1.78524C26.0379 1.90329 26.4056 2.18837 26.6342 2.58728L26.636 2.59044L13.2841 10.3641H9.87461L24.314 1.9581ZM34.5459 34.5455C34.5459 35.4977 33.7708 36.2728 32.8187 36.2728H3.45549C2.50335 36.2728 1.72827 35.4977 1.72827 34.5455V13.8186C1.72827 12.8665 2.50335 12.0914 3.45549 12.0914H32.8187C33.7708 12.0914 34.5459 12.8665 34.5459 13.8186V19.0003H29.3642C26.5068 19.0003 24.1824 21.3247 24.1824 24.1821C24.1824 27.0395 26.5068 29.3638 29.3642 29.3638H34.5459V34.5455ZM36.2732 26.7729C36.2732 27.2494 35.8861 27.6366 35.4095 27.6366H29.3642C27.459 27.6366 25.9096 26.0873 25.9096 24.1821C25.9096 22.2769 27.4589 20.7276 29.3642 20.7276H35.4095C35.886 20.7276 36.2732 21.1147 36.2732 21.5912V26.7729Z" fill="#D0A567"/>
<path d="M29.3634 22.455C28.4113 22.455 27.6362 23.23 27.6362 24.1822C27.6362 25.1343 28.4113 25.9094 29.3634 25.9094C30.3156 25.9094 31.0907 25.1343 31.0907 24.1822C31.0907 23.23 30.3157 22.455 29.3634 22.455Z" fill="#D0A567"/>
</g>
<defs>
<clipPath id="clip0">
<rect width="38" height="38" fill="white"/>
</clipPath>
</defs>
</svg>
